<svg width="80" height="60" viewBox="0 0 80 60" fill="none" xmlns="http://www.w3.org/2000/svg">
<path d="M0 0H80V60L41.0271 47.7551L0 60V0Z" fill="#EE5A6D"/>
<path d="M25.748 27.62C25.5333 27.62 25.3513 27.5453 25.202 27.396C25.062 27.2467 24.992 27.0693 24.992 26.864C24.992 26.6587 25.062 26.4813 25.202 26.332C25.3513 26.1827 25.5333 26.108 25.748 26.108H30.172C30.256 26.108 30.298 26.0707 30.298 25.996V25.436C30.298 25.3613 30.256 25.324 30.172 25.324H27.05C26.854 25.324 26.686 25.2587 26.546 25.128C26.4153 24.988 26.35 24.82 26.35 24.624C26.35 24.428 26.4153 24.2647 26.546 24.134C26.686 23.994 26.854 23.924 27.05 23.924H30.172C30.256 23.924 30.298 23.882 30.298 23.798V23.294C30.298 23.21 30.256 23.168 30.172 23.168H27.008C26.7933 23.168 26.6067 23.0933 26.448 22.944C26.2893 22.7853 26.21 22.5987 26.21 22.384V22.3C26.21 22.2253 26.168 22.188 26.084 22.188H25.972C25.7573 22.188 25.5707 22.1087 25.412 21.95C25.2627 21.7913 25.188 21.6047 25.188 21.39V20.242C25.188 20.0273 25.2627 19.8453 25.412 19.696C25.5707 19.5373 25.7573 19.458 25.972 19.458H30.172C30.256 19.458 30.298 19.416 30.298 19.332V19.22C30.298 19.0053 30.3727 18.8187 30.522 18.66C30.6807 18.5013 30.8673 18.422 31.082 18.422H31.418C31.6327 18.422 31.8147 18.5013 31.964 18.66C32.1227 18.8187 32.202 19.0053 32.202 19.22V19.332C32.202 19.416 32.244 19.458 32.328 19.458H36.528C36.7427 19.458 36.9247 19.5373 37.074 19.696C37.2327 19.8453 37.312 20.0273 37.312 20.242V21.39C37.312 21.6047 37.2327 21.7913 37.074 21.95C36.9247 22.1087 36.7427 22.188 36.528 22.188H36.402C36.3273 22.188 36.29 22.2253 36.29 22.3V22.384C36.29 22.5987 36.2107 22.7853 36.052 22.944C35.8933 23.0933 35.7067 23.168 35.492 23.168H32.328C32.244 23.168 32.202 23.21 32.202 23.294V23.798C32.202 23.882 32.244 23.924 32.328 23.924H35.45C35.646 23.924 35.8093 23.994 35.94 24.134C36.08 24.2647 36.15 24.428 36.15 24.624C36.15 24.82 36.08 24.988 35.94 25.128C35.8093 25.2587 35.646 25.324 35.45 25.324H32.328C32.244 25.324 32.202 25.3613 32.202 25.436V25.996C32.202 26.0707 32.244 26.108 32.328 26.108H36.752C36.9667 26.108 37.144 26.1827 37.284 26.332C37.4333 26.4813 37.508 26.6587 37.508 26.864C37.508 27.0693 37.4333 27.2467 37.284 27.396C37.144 27.5453 36.9667 27.62 36.752 27.62H32.706C32.6313 27.62 32.6173 27.6527 32.664 27.718C33.3453 28.5207 34.7033 29.1087 36.738 29.482C36.9433 29.5193 37.0927 29.6267 37.186 29.804C37.2887 29.9813 37.3027 30.1633 37.228 30.35L37.172 30.476C37.088 30.6907 36.9433 30.854 36.738 30.966C36.542 31.078 36.332 31.106 36.108 31.05C35.1 30.8073 34.1853 30.4667 33.364 30.028C32.552 29.5987 31.9033 29.118 31.418 28.586C31.362 28.5393 31.3107 28.5393 31.264 28.586C30.1347 29.762 28.5107 30.588 26.392 31.064C26.168 31.1107 25.9533 31.078 25.748 30.966C25.552 30.854 25.412 30.6907 25.328 30.476L25.272 30.35C25.1973 30.1633 25.2113 29.9813 25.314 29.804C25.4167 29.6267 25.566 29.5193 25.762 29.482C27.778 29.1087 29.136 28.5207 29.836 27.718C29.8827 27.6527 29.8687 27.62 29.794 27.62H25.748ZM32.202 21.054V21.614C32.202 21.6887 32.244 21.726 32.328 21.726H35.464C35.548 21.726 35.59 21.6887 35.59 21.614V21.054C35.59 20.97 35.548 20.928 35.464 20.928H32.328C32.244 20.928 32.202 20.97 32.202 21.054ZM30.172 21.726C30.256 21.726 30.298 21.6887 30.298 21.614V21.054C30.298 20.97 30.256 20.928 30.172 20.928H27.022C26.9473 20.928 26.91 20.97 26.91 21.054V21.614C26.91 21.6887 26.9473 21.726 27.022 21.726H30.172ZM42.464 25.184L42.422 25.086C42.3473 24.8807 42.3567 24.6847 42.45 24.498C42.5433 24.302 42.6927 24.1713 42.898 24.106C43.3087 23.9753 43.6913 23.8353 44.046 23.686C44.0553 23.6767 44.06 23.6673 44.06 23.658C44.06 23.6487 44.0507 23.644 44.032 23.644L43.318 23.602C43.1127 23.5927 42.954 23.504 42.842 23.336C42.73 23.168 42.702 22.9907 42.758 22.804C42.9073 22.2813 43.0147 21.894 43.08 21.642C43.1453 21.418 43.2667 21.236 43.444 21.096C43.6307 20.9467 43.8407 20.872 44.074 20.872H46.188C46.2813 20.872 46.328 20.8347 46.328 20.76C46.328 20.7413 46.328 20.718 46.328 20.69C46.3373 20.6527 46.342 20.6247 46.342 20.606C46.342 20.522 46.3047 20.48 46.23 20.48H43.234C43.066 20.48 42.9213 20.4193 42.8 20.298C42.6787 20.1767 42.618 20.032 42.618 19.864C42.618 19.696 42.6787 19.5513 42.8 19.43C42.9213 19.3087 43.066 19.248 43.234 19.248H46.272C46.3373 19.248 46.37 19.2153 46.37 19.15C46.37 18.982 46.426 18.842 46.538 18.73C46.6593 18.6087 46.804 18.548 46.972 18.548H47.588C47.756 18.548 47.896 18.6087 48.008 18.73C48.1293 18.842 48.19 18.982 48.19 19.15C48.19 19.2153 48.2227 19.248 48.288 19.248H49.38C49.4453 19.248 49.478 19.2153 49.478 19.15C49.478 18.982 49.534 18.842 49.646 18.73C49.7673 18.6087 49.912 18.548 50.08 18.548H50.682C50.85 18.548 50.9947 18.6087 51.116 18.73C51.2373 18.842 51.298 18.982 51.298 19.15C51.298 19.2153 51.326 19.248 51.382 19.248H53.762C53.9767 19.248 54.1633 19.3273 54.322 19.486C54.4807 19.6353 54.56 19.8173 54.56 20.032V21.082C54.56 21.2967 54.4807 21.4833 54.322 21.642C54.1633 21.8007 53.9767 21.88 53.762 21.88H51.41C51.3353 21.88 51.298 21.9173 51.298 21.992V22.146C51.298 22.2207 51.3353 22.258 51.41 22.258H54.322C54.5367 22.258 54.7233 22.3373 54.882 22.496C55.0407 22.6547 55.1153 22.8413 55.106 23.056C55.078 23.7373 54.9847 24.1993 54.826 24.442C54.6767 24.6847 54.406 24.8247 54.014 24.862C53.9393 24.862 53.902 24.904 53.902 24.988V28.348C53.902 28.5627 53.8227 28.7493 53.664 28.908C53.5147 29.0573 53.3327 29.132 53.118 29.132H52.306C52.2967 29.1413 52.292 29.1553 52.292 29.174C53.2533 29.4913 54 29.762 54.532 29.986C54.7093 30.0607 54.8213 30.1913 54.868 30.378C54.924 30.574 54.9007 30.756 54.798 30.924C54.686 31.1013 54.5273 31.218 54.322 31.274C54.1167 31.3393 53.916 31.33 53.72 31.246C52.852 30.8447 51.7787 30.434 50.5 30.014C50.3413 29.958 50.2247 29.8553 50.15 29.706C50.0847 29.5473 50.0893 29.3887 50.164 29.23C50.1827 29.1647 50.164 29.132 50.108 29.132H47.392C47.3453 29.132 47.3313 29.1553 47.35 29.202C47.434 29.3327 47.4573 29.4773 47.42 29.636C47.3827 29.7947 47.294 29.9067 47.154 29.972C46.202 30.476 45.04 30.9147 43.668 31.288C43.4627 31.344 43.262 31.3253 43.066 31.232C42.8793 31.1387 42.7347 30.994 42.632 30.798C42.548 30.63 42.5433 30.4573 42.618 30.28C42.702 30.112 42.8373 30.0047 43.024 29.958C43.9573 29.706 44.7693 29.4447 45.46 29.174C45.4693 29.1647 45.474 29.1553 45.474 29.146C45.474 29.1367 45.4647 29.132 45.446 29.132H44.382C44.1673 29.132 43.9807 29.0573 43.822 28.908C43.6727 28.7493 43.598 28.5627 43.598 28.348V25.73C43.598 25.6553 43.5607 25.6273 43.486 25.646C43.2807 25.7207 43.0753 25.716 42.87 25.632C42.674 25.5387 42.5387 25.3893 42.464 25.184ZM51.298 20.592V20.76C51.298 20.8347 51.3353 20.872 51.41 20.872H52.642C52.726 20.872 52.768 20.8347 52.768 20.76V20.592C52.768 20.5173 52.726 20.48 52.642 20.48H51.41C51.3353 20.48 51.298 20.5173 51.298 20.592ZM51.998 27.858V27.704C51.998 27.62 51.956 27.578 51.872 27.578H45.628C45.544 27.578 45.502 27.62 45.502 27.704V27.858C45.502 27.942 45.544 27.984 45.628 27.984H51.872C51.956 27.984 51.998 27.942 51.998 27.858ZM51.998 26.528V26.36C51.998 26.276 51.956 26.234 51.872 26.234H45.628C45.544 26.234 45.502 26.276 45.502 26.36V26.528C45.502 26.6027 45.544 26.64 45.628 26.64H51.872C51.956 26.64 51.998 26.6027 51.998 26.528ZM51.298 23.378V23.7C51.298 23.7747 51.3353 23.812 51.41 23.812H51.662C51.6807 23.812 51.69 23.8027 51.69 23.784C51.6807 23.7373 51.6947 23.6953 51.732 23.658C51.7693 23.6207 51.8113 23.602 51.858 23.602C52.138 23.6113 52.4413 23.616 52.768 23.616C52.8893 23.616 52.964 23.6067 52.992 23.588C53.0293 23.56 53.0527 23.49 53.062 23.378C53.0807 23.294 53.048 23.252 52.964 23.252H51.41C51.3353 23.252 51.298 23.294 51.298 23.378ZM48.162 20.606C48.162 20.6247 48.1573 20.6527 48.148 20.69C48.148 20.718 48.148 20.7413 48.148 20.76C48.148 20.8347 48.1853 20.872 48.26 20.872H49.352C49.436 20.872 49.478 20.8347 49.478 20.76V20.592C49.478 20.5173 49.436 20.48 49.352 20.48H48.288C48.204 20.48 48.162 20.522 48.162 20.606ZM47.896 22.146C47.8773 22.2207 47.9053 22.258 47.98 22.258H49.352C49.436 22.258 49.478 22.2207 49.478 22.146V21.992C49.478 21.9173 49.436 21.88 49.352 21.88H48.092C48.008 21.88 47.9613 21.9127 47.952 21.978C47.9427 21.9967 47.9333 22.0247 47.924 22.062C47.9147 22.0993 47.9053 22.1273 47.896 22.146ZM46.958 23.728C46.9393 23.7467 46.9347 23.7653 46.944 23.784C46.9627 23.8027 46.9813 23.812 47 23.812H49.352C49.436 23.812 49.478 23.7747 49.478 23.7V23.378C49.478 23.294 49.436 23.252 49.352 23.252H47.476C47.4013 23.252 47.3407 23.2847 47.294 23.35C47.2007 23.4713 47.0887 23.5973 46.958 23.728ZM51.872 24.904H45.628C45.544 24.904 45.502 24.9413 45.502 25.016V25.184C45.502 25.268 45.544 25.31 45.628 25.31H51.872C51.956 25.31 51.998 25.268 51.998 25.184V25.016C51.998 24.9413 51.956 24.904 51.872 24.904ZM44.76 22.132C44.7413 22.216 44.7693 22.258 44.844 22.258H45.796C45.8893 22.258 45.95 22.2253 45.978 22.16C45.9873 22.1413 46.0013 22.1133 46.02 22.076C46.0387 22.0293 46.0527 21.9967 46.062 21.978C46.0807 21.9127 46.0527 21.88 45.978 21.88H44.956C44.8813 21.88 44.8347 21.9173 44.816 21.992C44.8067 22.0107 44.7973 22.034 44.788 22.062C44.7787 22.09 44.7693 22.1133 44.76 22.132ZM44.34 23.476C44.3307 23.4947 44.3353 23.5133 44.354 23.532C44.3727 23.5413 44.3913 23.5413 44.41 23.532C44.5967 23.4387 44.732 23.3687 44.816 23.322C44.8253 23.3127 44.83 23.2987 44.83 23.28C44.83 23.2613 44.8207 23.252 44.802 23.252H44.536C44.4707 23.252 44.4193 23.294 44.382 23.378C44.382 23.3873 44.3773 23.406 44.368 23.434C44.3587 23.4527 44.3493 23.4667 44.34 23.476Z" fill="white"/>
</svg>
