<svg width="80" height="60" viewBox="0 0 80 60" fill="none" xmlns="http://www.w3.org/2000/svg">
<rect width="80" height="60" fill="#F5F5F5"/>
<g id="03-&#232;&#168;&#186;&#231;&#153;&#130;&#230;&#161;&#136;&#229;&#134;&#133;-sp" clip-path="url(#clip0_0_1)">
<rect width="375" height="9931" transform="translate(-255 -1431)" fill="white"/>
<g id="&#228;&#184;&#128;&#232;&#136;&#172;&#232;&#168;&#186;&#231;&#153;&#130;">
<g id="bg">
<rect id="&#233;&#149;&#183;&#230;&#150;&#185;&#229;&#189;&#162; 23379" x="-255" y="-97" width="375" height="2472" fill="#DFF1FD"/>
</g>
<g id="card-sp">
<g id="&#227;&#130;&#176;&#227;&#131;&#171;&#227;&#131;&#188;&#227;&#131;&#151; 11170">
<path id="&#233;&#149;&#183;&#230;&#150;&#185;&#229;&#189;&#162; 23408" d="M-235 20C-235 8.95429 -226.046 0 -215 0H80C91.0457 0 100 8.95431 100 20V723C100 734.046 91.0457 743 80 743H-215C-226.046 743 -235 734.046 -235 723V20Z" fill="white"/>
<g id="&#227;&#130;&#176;&#227;&#131;&#171;&#227;&#131;&#188;&#227;&#131;&#151; 11169">
</g>
</g>
<g id="tag-01-sp">
<path id="&#227;&#131;&#145;&#227;&#130;&#185; 43827" d="M0 0H80V60L41.0271 47.7551L0 60V0Z" fill="#1391E6"/>
<path id="&#228;&#191;&#157;&#233;&#153;&#186;&#229;&#175;&#190;&#232;&#177;&#161;" d="M12.63 31.302C12.4153 31.302 12.2287 31.2227 12.07 31.064C11.9113 30.9147 11.832 30.7327 11.832 30.518V25.604C11.832 25.5853 11.8227 25.576 11.804 25.576C11.7947 25.5667 11.7853 25.5667 11.776 25.576L11.44 26.08C11.3467 26.2107 11.2207 26.2573 11.062 26.22C10.9127 26.1827 10.8193 26.0847 10.782 25.926L10.642 25.31C10.53 24.8247 10.6233 24.3487 10.922 23.882C11.7153 22.6407 12.322 21.1287 12.742 19.346C12.7887 19.1313 12.9053 18.9633 13.092 18.842C13.2787 18.7113 13.4793 18.6647 13.694 18.702L13.848 18.73C14.0627 18.7767 14.2307 18.8887 14.352 19.066C14.4827 19.234 14.5293 19.4253 14.492 19.64C14.2773 20.676 14.0067 21.5907 13.68 22.384C13.652 22.4587 13.638 22.538 13.638 22.622V30.518C13.638 30.7327 13.5587 30.9147 13.4 31.064C13.2413 31.2227 13.0547 31.302 12.84 31.302H12.63ZM23.396 28.768C23.5827 28.908 23.704 29.09 23.76 29.314C23.816 29.5287 23.7927 29.7387 23.69 29.944L23.62 30.098C23.5267 30.2847 23.382 30.4013 23.186 30.448C22.99 30.4947 22.8127 30.4527 22.654 30.322C21.6273 29.4633 20.7593 28.5487 20.05 27.578C20.0407 27.5593 20.0267 27.5547 20.008 27.564C19.9893 27.564 19.98 27.5733 19.98 27.592V30.49C19.98 30.7047 19.9007 30.8913 19.742 31.05C19.5833 31.2087 19.3967 31.288 19.182 31.288H18.902C18.6873 31.288 18.5007 31.2087 18.342 31.05C18.1927 30.8913 18.118 30.7047 18.118 30.49V27.648C18.118 27.6293 18.1087 27.6153 18.09 27.606C18.0807 27.5967 18.0667 27.6013 18.048 27.62C17.3107 28.6093 16.4613 29.5007 15.5 30.294C15.3413 30.4247 15.1593 30.4667 14.954 30.42C14.7487 30.3827 14.5947 30.2707 14.492 30.084L14.38 29.888C14.2773 29.692 14.2493 29.482 14.296 29.258C14.352 29.034 14.4733 28.8567 14.66 28.726C15.64 28.0073 16.4707 27.228 17.152 26.388C17.1987 26.3227 17.1847 26.29 17.11 26.29H15.22C15.0147 26.29 14.8373 26.22 14.688 26.08C14.548 25.9307 14.478 25.7533 14.478 25.548C14.478 25.3427 14.548 25.1653 14.688 25.016C14.8373 24.8667 15.0147 24.792 15.22 24.792H17.992C18.076 24.792 18.118 24.7547 18.118 24.68V24.036C18.118 23.952 18.076 23.91 17.992 23.91H16.872H15.85C15.6353 23.91 15.4487 23.8307 15.29 23.672C15.1313 23.5133 15.052 23.3267 15.052 23.112V19.71C15.052 19.4953 15.1313 19.3087 15.29 19.15C15.4487 18.9913 15.6353 18.912 15.85 18.912H22.36C22.5747 18.912 22.7613 18.9913 22.92 19.15C23.0787 19.3087 23.158 19.4953 23.158 19.71V23.112C23.158 23.3267 23.0787 23.5133 22.92 23.672C22.7613 23.8307 22.5747 23.91 22.36 23.91H20.106C20.022 23.91 19.98 23.952 19.98 24.036V24.68C19.98 24.7547 20.022 24.792 20.106 24.792H22.92C23.1253 24.792 23.298 24.8667 23.438 25.016C23.5873 25.1653 23.662 25.3427 23.662 25.548C23.662 25.7533 23.5873 25.9307 23.438 26.08C23.298 26.22 23.1253 26.29 22.92 26.29H20.946C20.8713 26.29 20.8573 26.3227 20.904 26.388C21.548 27.2 22.3787 27.9933 23.396 28.768ZM16.998 22.468H21.212C21.296 22.468 21.338 22.426 21.338 22.342V20.536C21.338 20.452 21.296 20.41 21.212 20.41H16.998C16.914 20.41 16.872 20.452 16.872 20.536V22.342C16.872 22.426 16.914 22.468 16.998 22.468ZM27.12 31.26C26.9053 31.26 26.7187 31.1807 26.56 31.022C26.4013 30.8633 26.322 30.6767 26.322 30.462V19.738C26.322 19.5233 26.4013 19.3367 26.56 19.178C26.7187 19.0193 26.9053 18.94 27.12 18.94H30.368C30.564 18.94 30.7273 19.01 30.858 19.15C30.998 19.2807 31.068 19.444 31.068 19.64C31.068 19.9667 31.0213 20.3167 30.928 20.69C30.9187 20.7087 30.9233 20.7273 30.942 20.746C30.9607 20.7553 30.9793 20.7507 30.998 20.732C31.726 20.2373 32.412 19.6727 33.056 19.038C33.448 18.6647 33.896 18.478 34.4 18.478H34.54C35.044 18.478 35.492 18.6647 35.884 19.038C36.7053 19.8313 37.5733 20.5173 38.488 21.096C38.6747 21.2173 38.8053 21.3853 38.88 21.6C38.9547 21.8147 38.9453 22.0293 38.852 22.244L38.824 22.314C38.74 22.5007 38.6 22.6267 38.404 22.692C38.208 22.7573 38.0213 22.734 37.844 22.622C37.4147 22.3233 37.1487 22.1367 37.046 22.062C36.99 22.0247 36.948 22.034 36.92 22.09C36.7987 22.3513 36.5887 22.482 36.29 22.482H35.45C35.3753 22.482 35.338 22.524 35.338 22.608V23.07C35.338 23.1447 35.3753 23.182 35.45 23.182H37.508C37.7227 23.182 37.9047 23.2613 38.054 23.42C38.2127 23.5787 38.292 23.7653 38.292 23.98V26.738C38.292 26.9527 38.2127 27.1393 38.054 27.298C37.9047 27.4473 37.7227 27.522 37.508 27.522H35.716C35.688 27.522 35.6647 27.536 35.646 27.564C35.6273 27.592 35.6273 27.6153 35.646 27.634C36.094 28.39 37.004 29.0013 38.376 29.468C38.5813 29.5427 38.7307 29.6733 38.824 29.86C38.9173 30.0373 38.922 30.224 38.838 30.42L38.782 30.532C38.6887 30.7373 38.5393 30.8867 38.334 30.98C38.1287 31.0733 37.9233 31.078 37.718 30.994C36.374 30.4433 35.338 29.6687 34.61 28.67C34.5633 28.6047 34.512 28.6 34.456 28.656C33.6627 29.6453 32.4493 30.4293 30.816 31.008C30.6013 31.0827 30.3913 31.0733 30.186 30.98C29.9807 30.8867 29.8313 30.7373 29.738 30.532L29.682 30.42C29.598 30.224 29.6027 30.0373 29.696 29.86C29.7893 29.6733 29.9387 29.5473 30.144 29.482C31.7027 28.9967 32.7153 28.3807 33.182 27.634C33.2007 27.6153 33.2007 27.592 33.182 27.564C33.1727 27.536 33.154 27.522 33.126 27.522H31.95H31.292C31.0773 27.522 30.9047 27.4613 30.774 27.34C30.718 27.3027 30.6807 27.312 30.662 27.368C30.5033 28.152 30.018 28.6 29.206 28.712C28.982 28.74 28.772 28.684 28.576 28.544C28.3893 28.404 28.2587 28.2173 28.184 27.984L28.072 27.62C28.0627 27.62 28.0487 27.6247 28.03 27.634V30.462C28.03 30.6767 27.9507 30.8633 27.792 31.022C27.6333 31.1807 27.4467 31.26 27.232 31.26H27.12ZM31.95 26.108C31.95 26.1827 31.992 26.22 32.076 26.22H33.392C33.476 26.22 33.518 26.1827 33.518 26.108V24.652C33.518 24.5773 33.476 24.54 33.392 24.54H32.076C31.992 24.54 31.95 24.5773 31.95 24.652V26.108ZM36.682 24.54H35.45C35.3753 24.54 35.338 24.5773 35.338 24.652V26.108C35.338 26.1827 35.3753 26.22 35.45 26.22H36.682C36.766 26.22 36.808 26.1827 36.808 26.108V24.652C36.808 24.5773 36.766 24.54 36.682 24.54ZM34.4 19.738C33.9053 20.2793 33.49 20.704 33.154 21.012C33.1353 21.0307 33.1307 21.0493 33.14 21.068C33.1493 21.0773 33.1633 21.082 33.182 21.082H35.758C35.7767 21.082 35.7907 21.0773 35.8 21.068C35.8093 21.0493 35.8047 21.0307 35.786 21.012C35.3193 20.5733 34.9087 20.1533 34.554 19.752C34.498 19.696 34.4467 19.6913 34.4 19.738ZM29.724 23.546C29.696 23.6207 29.7007 23.686 29.738 23.742C30.046 24.162 30.2887 24.596 30.466 25.044C30.4753 25.0533 30.4847 25.058 30.494 25.058C30.5033 25.058 30.508 25.0487 30.508 25.03V23.98C30.508 23.7653 30.5827 23.5787 30.732 23.42C30.8907 23.2613 31.0773 23.182 31.292 23.182H33.392C33.476 23.182 33.518 23.1447 33.518 23.07V22.608C33.518 22.524 33.476 22.482 33.392 22.482H32.608C32.3187 22.482 32.1133 22.3607 31.992 22.118C31.9827 22.09 31.9593 22.076 31.922 22.076C31.8847 22.0667 31.8567 22.0713 31.838 22.09C31.614 22.258 31.3713 22.4307 31.11 22.608C30.8487 22.7853 30.5873 22.776 30.326 22.58C30.27 22.524 30.2233 22.5287 30.186 22.594C29.9807 23.042 29.8267 23.3593 29.724 23.546ZM28.03 20.466V23.364C28.03 23.3827 28.0347 23.392 28.044 23.392C28.0627 23.392 28.0767 23.3873 28.086 23.378C28.6087 22.4167 29.0287 21.4413 29.346 20.452C29.3647 20.3773 29.3367 20.34 29.262 20.34H28.156C28.072 20.34 28.03 20.382 28.03 20.466ZM28.03 23.98V27.172C28.03 27.256 28.072 27.298 28.156 27.298H28.282C28.5993 27.298 28.8093 27.2327 28.912 27.102C29.024 26.962 29.08 26.6773 29.08 26.248C29.08 25.8373 29.01 25.4687 28.87 25.142C28.7393 24.806 28.4827 24.4093 28.1 23.952C28.0813 23.9333 28.0627 23.9287 28.044 23.938C28.0347 23.9473 28.03 23.9613 28.03 23.98ZM49.492 27.648C49.2867 27.7227 49.0813 27.7133 48.876 27.62C48.68 27.5173 48.5447 27.3633 48.47 27.158C48.1247 26.2713 47.7467 25.408 47.336 24.568C47.2427 24.372 47.2333 24.176 47.308 23.98C47.3827 23.7747 47.518 23.63 47.714 23.546L47.854 23.476C48.0593 23.3827 48.2647 23.3733 48.47 23.448C48.6753 23.5227 48.8247 23.6627 48.918 23.868C49.3473 24.792 49.7347 25.6927 50.08 26.57C50.1547 26.7753 50.1453 26.9807 50.052 27.186C49.968 27.382 49.8233 27.5173 49.618 27.592L49.492 27.648ZM41.876 22.02C41.6613 22.02 41.4747 21.9407 41.316 21.782C41.1667 21.6233 41.092 21.4367 41.092 21.222C41.092 21.0073 41.1667 20.8253 41.316 20.676C41.4747 20.5173 41.6613 20.438 41.876 20.438H43.164C43.2387 20.438 43.276 20.396 43.276 20.312V19.318C43.276 19.1033 43.3553 18.9167 43.514 18.758C43.6727 18.5993 43.8593 18.52 44.074 18.52H44.354C44.5687 18.52 44.7553 18.5993 44.914 18.758C45.0727 18.9167 45.152 19.1033 45.152 19.318V20.312C45.152 20.396 45.1893 20.438 45.264 20.438H46.608C46.7947 20.438 46.9627 20.4987 47.112 20.62C47.2613 20.7413 47.3547 20.8907 47.392 21.068C47.4107 21.1147 47.4433 21.1193 47.49 21.082C47.6487 20.942 47.826 20.872 48.022 20.872H50.962C51.046 20.872 51.088 20.8347 51.088 20.76V19.402C51.088 19.1873 51.1627 19.0053 51.312 18.856C51.4707 18.6973 51.6573 18.618 51.872 18.618H52.152C52.3667 18.618 52.5533 18.6973 52.712 18.856C52.8707 19.0053 52.95 19.1873 52.95 19.402V20.76C52.95 20.8347 52.992 20.872 53.076 20.872H53.23C53.4447 20.872 53.6313 20.9513 53.79 21.11C53.9487 21.2687 54.028 21.4553 54.028 21.67C54.028 21.8847 53.9487 22.0713 53.79 22.23C53.6313 22.3887 53.4447 22.468 53.23 22.468H53.076C52.992 22.468 52.95 22.5053 52.95 22.58V28.95C52.95 29.3327 52.9407 29.636 52.922 29.86C52.9127 30.0747 52.8753 30.2753 52.81 30.462C52.7447 30.658 52.67 30.798 52.586 30.882C52.502 30.966 52.362 31.036 52.166 31.092C51.97 31.1573 51.76 31.1947 51.536 31.204C51.312 31.2227 51.004 31.232 50.612 31.232C50.0893 31.232 49.632 31.2227 49.24 31.204C49.016 31.1947 48.8247 31.1107 48.666 30.952C48.5073 30.7933 48.4187 30.602 48.4 30.378C48.3907 30.1727 48.4607 29.9953 48.61 29.846C48.7593 29.6873 48.9413 29.6127 49.156 29.622C49.8093 29.6407 50.1873 29.65 50.29 29.65C50.6727 29.65 50.9013 29.622 50.976 29.566C51.0507 29.5007 51.088 29.3093 51.088 28.992V22.58C51.088 22.5053 51.046 22.468 50.962 22.468H48.022C47.8353 22.468 47.6673 22.412 47.518 22.3C47.378 22.1787 47.2893 22.0247 47.252 21.838C47.2333 21.782 47.196 21.7727 47.14 21.81C46.9813 21.95 46.804 22.02 46.608 22.02H46.594C46.51 22.02 46.468 22.062 46.468 22.146C46.412 23.826 46.174 25.2493 45.754 26.416C45.726 26.4907 45.7353 26.5607 45.782 26.626C46.1367 27.0833 46.594 27.7133 47.154 28.516C47.2753 28.7027 47.3173 28.908 47.28 29.132C47.252 29.3467 47.1493 29.524 46.972 29.664L46.846 29.762C46.678 29.8927 46.4867 29.944 46.272 29.916C46.0573 29.8787 45.8893 29.7713 45.768 29.594C45.2453 28.8473 44.956 28.4367 44.9 28.362C44.8627 28.306 44.8207 28.3107 44.774 28.376C44.2047 29.2253 43.4767 29.9953 42.59 30.686C42.422 30.8167 42.2307 30.8633 42.016 30.826C41.8013 30.7887 41.6333 30.6767 41.512 30.49L41.372 30.28C41.2507 30.1027 41.2087 29.902 41.246 29.678C41.2833 29.454 41.3907 29.272 41.568 29.132C42.4733 28.3947 43.15 27.6247 43.598 26.822C43.626 26.766 43.6167 26.7053 43.57 26.64C42.87 25.772 42.2447 25.0533 41.694 24.484C41.5447 24.3253 41.47 24.1387 41.47 23.924C41.47 23.7093 41.5493 23.5227 41.708 23.364L41.82 23.252C41.9693 23.0933 42.156 23.0187 42.38 23.028C42.604 23.028 42.7907 23.1073 42.94 23.266C43.332 23.686 43.7707 24.176 44.256 24.736C44.2747 24.7547 44.2933 24.764 44.312 24.764C44.3307 24.7547 44.3447 24.7407 44.354 24.722C44.5127 23.9753 44.6107 23.1167 44.648 22.146C44.648 22.062 44.606 22.02 44.522 22.02H41.876ZM56.408 23.518L56.338 23.294C56.254 23.0793 56.24 22.86 56.296 22.636C56.3613 22.412 56.4827 22.2207 56.66 22.062C57.7427 21.138 58.62 20.1113 59.292 18.982C59.5627 18.5247 59.9547 18.324 60.468 18.38L60.958 18.436C61.0887 18.4547 61.1867 18.5247 61.252 18.646C61.3267 18.758 61.336 18.8747 61.28 18.996C61.252 19.052 61.266 19.08 61.322 19.08H65.34C65.5267 19.08 65.6853 19.1453 65.816 19.276C65.9467 19.4067 66.012 19.5653 66.012 19.752V19.794C66.012 20.2513 65.872 20.6247 65.592 20.914C65.5733 20.9233 65.5687 20.9373 65.578 20.956C65.5873 20.9747 65.6013 20.984 65.62 20.984H67.692C67.9067 20.984 68.0933 21.0633 68.252 21.222C68.4107 21.3807 68.49 21.5673 68.49 21.782V23.826C68.49 24.0407 68.4107 24.2273 68.252 24.386C68.0933 24.5447 67.9067 24.624 67.692 24.624H65.382C65.3167 24.624 65.2933 24.6613 65.312 24.736C65.5267 25.296 65.7647 25.7953 66.026 26.234C66.0353 26.262 66.0587 26.276 66.096 26.276C66.1427 26.276 66.1753 26.2667 66.194 26.248C66.4647 25.996 66.7727 25.6927 67.118 25.338C67.2767 25.1793 67.4633 25.0907 67.678 25.072C67.8927 25.044 68.0933 25.0907 68.28 25.212C68.4573 25.3333 68.5553 25.5013 68.574 25.716C68.602 25.9213 68.546 26.1033 68.406 26.262C67.9673 26.766 67.5427 27.1953 67.132 27.55C67.076 27.5967 67.0713 27.6527 67.118 27.718C67.5847 28.2593 68.1073 28.754 68.686 29.202C68.8633 29.3327 68.966 29.5053 68.994 29.72C69.0313 29.9347 68.9893 30.1307 68.868 30.308L68.742 30.462C68.6113 30.6393 68.4387 30.7467 68.224 30.784C68.0187 30.8213 67.8273 30.7747 67.65 30.644C66.7633 29.9347 65.9607 29.062 65.242 28.026C64.5327 26.99 63.996 25.898 63.632 24.75C63.5947 24.666 63.5433 24.624 63.478 24.624H62.89C62.8713 24.624 62.8527 24.6333 62.834 24.652C62.8247 24.6707 62.8293 24.6893 62.848 24.708C63.996 25.968 64.57 27.34 64.57 28.824C64.57 29.7573 64.444 30.392 64.192 30.728C63.94 31.064 63.492 31.232 62.848 31.232C62.4747 31.232 61.9567 31.218 61.294 31.19C61.07 31.1807 60.8787 31.0967 60.72 30.938C60.5707 30.7793 60.4913 30.588 60.482 30.364L60.468 29.93C60.468 29.846 60.4307 29.8227 60.356 29.86C59.4507 30.2987 58.5547 30.6673 57.668 30.966C57.4533 31.0407 57.2387 31.0313 57.024 30.938C56.8187 30.854 56.6693 30.7047 56.576 30.49C56.492 30.3033 56.492 30.1167 56.576 29.93C56.66 29.734 56.8047 29.6033 57.01 29.538C59.2687 28.8473 61.042 28.054 62.33 27.158C62.3953 27.1113 62.414 27.0507 62.386 26.976C62.358 26.9013 62.3067 26.7893 62.232 26.64C62.1947 26.5747 62.1433 26.5653 62.078 26.612C60.8647 27.4053 59.39 28.096 57.654 28.684C57.458 28.7493 57.262 28.74 57.066 28.656C56.87 28.5627 56.73 28.418 56.646 28.222C56.5713 28.0447 56.576 27.872 56.66 27.704C56.744 27.5267 56.8793 27.41 57.066 27.354C58.7833 26.8593 60.2113 26.2807 61.35 25.618C61.378 25.6087 61.392 25.5853 61.392 25.548C61.4013 25.5107 61.3967 25.4827 61.378 25.464C61.2567 25.3427 61.1633 25.254 61.098 25.198C61.0513 25.1513 60.986 25.1467 60.902 25.184C59.95 25.6693 58.8907 26.0987 57.724 26.472C57.5373 26.5373 57.3507 26.5327 57.164 26.458C56.9773 26.374 56.8373 26.2387 56.744 26.052C56.6693 25.8933 56.6693 25.7347 56.744 25.576C56.8187 25.408 56.9447 25.3007 57.122 25.254C57.822 25.0767 58.466 24.8807 59.054 24.666C59.0633 24.6473 59.0633 24.6333 59.054 24.624H58.172C57.9573 24.624 57.7707 24.5447 57.612 24.386C57.4627 24.2273 57.388 24.0407 57.388 23.826V23.812C57.388 23.7933 57.374 23.7793 57.346 23.77C57.3273 23.7607 57.3087 23.7607 57.29 23.77C57.1313 23.8913 56.9633 23.9287 56.786 23.882C56.6087 23.826 56.4827 23.7047 56.408 23.518ZM62.232 29.762C62.4653 29.762 62.61 29.72 62.666 29.636C62.722 29.5427 62.75 29.2907 62.75 28.88C62.75 28.8427 62.7453 28.7913 62.736 28.726C62.736 28.6607 62.736 28.614 62.736 28.586C62.736 28.558 62.722 28.5393 62.694 28.53C62.666 28.5113 62.6427 28.5113 62.624 28.53C62.008 28.9687 61.3967 29.342 60.79 29.65C60.7807 29.6593 60.776 29.6733 60.776 29.692C60.776 29.7013 60.7853 29.706 60.804 29.706C61.392 29.7433 61.868 29.762 62.232 29.762ZM63.926 22.426C63.842 22.426 63.8 22.4633 63.8 22.538V23.21C63.8 23.294 63.842 23.336 63.926 23.336H66.544C66.628 23.336 66.67 23.294 66.67 23.21V22.538C66.67 22.4633 66.628 22.426 66.544 22.426H63.926ZM60.132 20.886C60.0853 20.9513 60.0993 20.984 60.174 20.984H63.156C63.2493 20.984 63.324 20.956 63.38 20.9C63.5667 20.732 63.702 20.606 63.786 20.522C63.8047 20.5127 63.8093 20.4987 63.8 20.48C63.7907 20.452 63.7767 20.438 63.758 20.438H60.566C60.4913 20.438 60.4307 20.4707 60.384 20.536C60.356 20.5733 60.314 20.634 60.258 20.718C60.202 20.7927 60.16 20.8487 60.132 20.886ZM59.152 22.538V23.21C59.152 23.294 59.194 23.336 59.278 23.336H61.91C61.9847 23.336 62.022 23.294 62.022 23.21V22.538C62.022 22.4633 61.9847 22.426 61.91 22.426H59.278C59.194 22.426 59.152 22.4633 59.152 22.538Z" fill="white"/>
</g>
</g>
</g>
</g>
<defs>
<clipPath id="clip0_0_1">
<rect width="375" height="9931" fill="white" transform="translate(-255 -1431)"/>
</clipPath>
</defs>
</svg>
