<svg width="1280" height="203" viewBox="0 0 1280 203" fill="none" xmlns="http://www.w3.org/2000/svg">
<path d="M814.735 102.995C742.405 111.197 693.41 114.391 639.967 114.391C586.535 114.391 537.542 111.197 465.256 103C331.643 87.7853 207.75 97.5556 116.464 130.525C66.1247 148.706 26.899 173.331 -0.000488281 203H1280C1253.1 173.332 1213.88 148.709 1163.55 130.529C1072.27 97.5556 948.361 87.796 814.735 102.995Z" fill="#DFF1FD"/>
<path d="M48.283 110.347C49.7473 115.376 55.0702 120.662 60.1161 122.122L63.5195 123.108C68.5654 124.548 68.5654 126.935 63.5195 128.375L60.1161 129.361C55.0702 130.82 49.7473 136.107 48.283 141.136L47.2936 144.549C45.8492 149.578 43.4547 149.578 42.0103 144.549L41.0209 141.136C39.5764 136.107 34.2535 130.82 29.2077 129.361L25.7844 128.375C20.7385 126.935 20.7385 124.548 25.7844 123.108L29.2077 122.122C34.2535 120.662 39.5764 115.376 41.0209 110.347L42.0103 106.934C43.4547 101.905 45.8492 101.905 47.2936 106.934L48.283 110.347Z" fill="#DFF1FD"/>
<path d="M108.931 25.6503C111.919 35.9069 122.763 46.7357 133.053 49.6942L140.038 51.6863C150.327 54.6647 150.327 59.517 140.038 62.4756L133.053 64.4679C122.763 67.4264 111.919 78.2552 108.931 88.5116L106.933 95.4547C103.965 105.731 99.0969 105.731 96.1287 95.4547L94.1104 88.5116C91.1422 78.2552 80.2787 67.4264 69.9891 64.4679L63.0239 62.4756C52.7342 59.517 52.7342 54.6647 63.0239 51.6863L69.9891 49.6942C80.2787 46.7357 91.1422 35.9069 94.1104 25.6503L96.1287 18.7073C99.0969 8.43088 103.965 8.43088 106.933 18.7073L108.931 25.6503Z" fill="#DFF1FD"/>
<path d="M1208.73 72.3714C1206.88 78.7551 1200.15 85.4951 1193.77 87.3365L1189.43 88.5764C1183.05 90.4302 1183.05 93.4502 1189.43 95.2917L1193.77 96.5317C1200.15 98.3731 1206.88 105.113 1208.73 111.497L1209.97 115.818C1211.81 122.214 1214.83 122.214 1216.67 115.818L1217.93 111.497C1219.77 105.113 1226.51 98.3731 1232.89 96.5317L1237.21 95.2917C1243.6 93.4502 1243.6 90.4302 1237.21 88.5764L1232.89 87.3365C1226.51 85.4951 1219.77 78.7551 1217.93 72.3714L1216.67 68.05C1214.83 61.6539 1211.81 61.6539 1209.97 68.05L1208.73 72.3714Z" fill="#DFF1FD"/>
<path d="M669.995 89.0144C667.435 89.0144 664.877 88.0384 662.924 86.0863C659.018 82.1803 659.018 75.8484 662.924 71.9433C668.561 66.3064 671.665 58.8114 671.665 50.8404C671.665 42.8683 668.561 35.3744 662.924 29.7373C657.287 24.1004 649.792 20.9964 641.821 20.9964C633.849 20.9964 626.355 24.1004 620.717 29.7373C609.081 41.3733 609.081 60.3073 620.717 71.9433C624.623 75.8484 624.623 82.1803 620.717 86.0863C616.813 89.9914 610.482 89.9903 606.576 86.0863C587.141 66.6513 587.141 35.0293 606.576 15.5953C615.99 6.18134 628.508 0.996338 641.821 0.996338C655.135 0.996338 667.652 6.18134 677.066 15.5953C686.48 25.0094 691.665 37.5263 691.665 50.8404C691.665 64.1543 686.48 76.6703 677.066 86.0863C675.113 88.0384 672.553 89.0144 669.995 89.0144Z" fill="#DFF1FD"/>
</svg>
