<svg width="20" height="20" viewBox="0 0 20 20" fill="none" xmlns="http://www.w3.org/2000/svg">
<path d="M4 16.5726C4 17.3478 4.6169 17.9767 5.37727 17.9767H15.4772C16.2376 17.9767 16.8545 17.3478 16.8545 16.5726V8.61633H4V16.5726ZM13.1818 10.8394C13.1818 10.6464 13.3367 10.4884 13.5261 10.4884H14.6738C14.8632 10.4884 15.0181 10.6464 15.0181 10.8394V12.0095C15.0181 12.2025 14.8632 12.3605 14.6738 12.3605H13.5261C13.3367 12.3605 13.1818 12.2025 13.1818 12.0095V10.8394ZM13.1818 14.5836C13.1818 14.3905 13.3367 14.2325 13.5261 14.2325H14.6738C14.8632 14.2325 15.0181 14.3905 15.0181 14.5836V15.7536C15.0181 15.9467 14.8632 16.1046 14.6738 16.1046H13.5261C13.3367 16.1046 13.1818 15.9467 13.1818 15.7536V14.5836ZM9.50907 10.8394C9.50907 10.6464 9.66401 10.4884 9.85338 10.4884H11.0011C11.1905 10.4884 11.3454 10.6464 11.3454 10.8394V12.0095C11.3454 12.2025 11.1905 12.3605 11.0011 12.3605H9.85338C9.66401 12.3605 9.50907 12.2025 9.50907 12.0095V10.8394ZM9.50907 14.5836C9.50907 14.3905 9.66401 14.2325 9.85338 14.2325H11.0011C11.1905 14.2325 11.3454 14.3905 11.3454 14.5836V15.7536C11.3454 15.9467 11.1905 16.1046 11.0011 16.1046H9.85338C9.66401 16.1046 9.50907 15.9467 9.50907 15.7536V14.5836ZM5.83636 10.8394C5.83636 10.6464 5.9913 10.4884 6.18067 10.4884H7.3284C7.51777 10.4884 7.67271 10.6464 7.67271 10.8394V12.0095C7.67271 12.2025 7.51777 12.3605 7.3284 12.3605H6.18067C5.9913 12.3605 5.83636 12.2025 5.83636 12.0095V10.8394ZM5.83636 14.5836C5.83636 14.3905 5.9913 14.2325 6.18067 14.2325H7.3284C7.51777 14.2325 7.67271 14.3905 7.67271 14.5836V15.7536C7.67271 15.9467 7.51777 16.1046 7.3284 16.1046H6.18067C5.9913 16.1046 5.83636 15.9467 5.83636 15.7536V14.5836ZM15.4772 4.87219H14.1V3.46814C14.1 3.21073 13.8934 3.00012 13.6409 3.00012H12.7227C12.4702 3.00012 12.2636 3.21073 12.2636 3.46814V4.87219H8.59089V3.46814C8.59089 3.21073 8.3843 3.00012 8.1318 3.00012H7.21362C6.96112 3.00012 6.75453 3.21073 6.75453 3.46814V4.87219H5.37727C4.6169 4.87219 4 5.50109 4 6.27625V7.6803H16.8545V6.27625C16.8545 5.50109 16.2376 4.87219 15.4772 4.87219Z" fill="#393939"/>
</svg>
