<svg width="270" height="32" viewBox="0 0 270 32" fill="none" xmlns="http://www.w3.org/2000/svg">
<path d="M48.4452 5.57861H52.9895C55.6407 5.59862 56.8906 7.14439 56.7392 10.2169C56.6254 11.4218 56.4739 12.837 56.2849 14.4634C57.0985 14.7446 57.9223 15.0866 58.7556 15.4875C58.8505 14.624 58.9455 13.4601 59.0396 11.9941C59.1158 10.6688 59.7309 10.0057 60.8866 10.0057C62.193 10.0455 62.8269 10.7087 62.7893 11.9941C62.6567 14.1623 62.5147 15.9195 62.3632 17.2648L63.4993 17.9578C64.8818 18.6409 65.2984 19.8457 64.7492 21.572C64.105 22.7975 63.2341 23.0788 62.1365 22.4156L61.6531 22.1444C61.4068 23.4698 60.8481 25.5282 59.9772 28.3194C59.3716 29.6239 58.4622 30.0259 57.2508 29.5243C56.0009 28.881 55.6595 27.9176 56.2276 26.6321C57.137 24.2835 57.7333 22.1245 58.0173 20.1568C57.5818 19.9364 57.1558 19.7295 56.7392 19.5391C56.3225 19.3485 55.9153 19.1725 55.5175 19.012L55.4893 19.0728C55.1864 20.3972 54.7314 21.7626 54.1256 23.1686C53.5199 24.5748 52.7954 25.7596 51.9527 26.7228C51.11 27.6872 50.1681 28.2088 49.127 28.2896C47.6496 28.2687 46.546 27.5566 45.8171 26.1504C45.0882 24.7444 44.847 22.8674 45.0933 20.5179C45.2824 19.1925 45.77 18.0332 46.5563 17.0388C47.3416 16.0456 48.251 15.2617 49.2827 14.6893C50.3144 14.1178 51.4179 13.8012 52.5917 13.7413C52.6678 13.099 52.7338 12.4757 52.791 11.8735C52.8664 10.9091 52.5447 10.4176 51.8252 10.3974H48.4452C46.9301 10.3974 46.1722 9.59385 46.1722 7.98802C46.1722 6.38141 46.9301 5.57861 48.4452 5.57861ZM49.269 23.4399C49.6848 23.419 50.05 23.1486 50.3623 22.6261C50.6746 22.1045 50.9346 21.5022 51.1434 20.819C51.3513 20.1359 51.5129 19.529 51.6259 18.9965C51.7396 18.465 51.797 18.1892 51.797 18.1683C51.1716 18.1683 50.6224 18.3398 50.1493 18.6809C49.6754 19.022 49.3203 19.4238 49.0842 19.8856C48.8473 20.3474 48.6813 20.7592 48.5872 21.1202C48.4537 21.9041 48.4871 22.4855 48.6864 22.8674C48.8849 23.2494 49.0791 23.4399 49.269 23.4399Z" fill="#1391E6"/>
<path d="M67.449 9.91566C67.449 8.4097 68.159 7.65686 69.5791 7.65686H71.0275L71.3398 5.84875C71.5485 4.78464 72.2868 4.24305 73.5555 4.22217C74.8815 4.30309 75.4307 4.92524 75.2032 6.09015C75.0894 6.5717 75.0047 7.09344 74.9474 7.65686H76.4248C77.8449 7.65686 78.555 8.4097 78.555 9.91566C78.555 11.4415 77.8449 12.2044 76.4248 12.2044H74.2655C72.9216 18.2081 72.1165 21.8133 71.8513 23.0178C71.5673 24.2025 70.7717 24.6843 69.4654 24.4639C68.1779 24.1628 67.6851 23.3589 67.988 22.0544C69.1813 17.4361 69.9385 14.1529 70.261 12.2044H69.5791C68.159 12.2044 67.449 11.4415 67.449 9.91566ZM83.4407 15.0964V18.0484C84.2928 18.3695 85.3528 18.9011 86.6223 19.6441C87.4358 20.2864 87.5497 21.2108 86.9628 22.4154C86.2998 23.3997 85.505 23.6002 84.5768 23.0178C84.3116 22.8772 83.9326 22.7067 83.4407 22.5062V24.4639C83.4407 25.9898 83.1995 27.1391 82.7161 27.9129C82.2336 28.6849 81.651 29.2074 80.9692 29.4788C80.2874 29.7501 79.5961 29.885 78.8955 29.885C77.9869 29.925 77.0921 29.7744 76.2118 29.4333C75.3306 29.0914 74.5829 28.48 73.9678 27.5964C73.3519 26.7126 73.0448 25.4673 73.0448 23.8615C73.0636 21.7932 73.6641 20.1711 74.8482 18.9964C76.0313 17.8224 77.6644 17.3045 79.7484 17.446V15.0964C79.7484 13.791 80.3635 13.1379 81.5946 13.1379C82.8248 13.1379 83.4407 13.791 83.4407 15.0964ZM78.8955 25.6386C79.1795 25.6177 79.3925 25.4673 79.5345 25.1868C79.6774 24.9056 79.7484 24.5338 79.7484 24.0721V21.5119C78.7252 21.3513 77.9484 21.4819 77.4189 21.9039C76.8885 22.3247 76.595 22.9072 76.5386 23.65C76.5189 24.3941 76.7225 24.9256 77.1486 25.2467C77.5746 25.5687 78.1572 25.6986 78.8955 25.6386ZM79.9751 8.83054C80.3541 7.44535 81.2249 6.94278 82.5887 7.32464L85.1449 8.04772C86.5085 8.44959 87.0004 9.33318 86.6223 10.6985C86.2245 12.0838 85.3442 12.5863 83.9806 12.2044L81.4526 11.4813C80.0692 11.0994 79.5773 10.2167 79.9751 8.83054Z" fill="#1391E6"/>
<path d="M93.5805 5.57861H98.1258C100.777 5.59862 102.027 7.14439 101.875 10.2169C101.762 11.4218 101.609 12.837 101.42 14.4634C102.235 14.7446 103.059 15.0866 103.892 15.4875C103.987 14.624 104.081 13.4601 104.176 11.9941C104.251 10.6688 104.867 10.0057 106.022 10.0057C107.329 10.0455 107.963 10.7087 107.926 11.9941C107.793 14.1623 107.651 15.9195 107.499 17.2648L108.636 17.9578C110.017 18.6409 110.435 19.8457 109.885 21.572C109.241 22.7975 108.37 23.0788 107.272 22.4156L106.789 22.1444C106.543 23.4698 105.983 25.5282 105.113 28.3194C104.507 29.6239 103.598 30.0259 102.386 29.5243C101.136 28.881 100.796 27.9176 101.364 26.6321C102.273 24.2835 102.869 22.1245 103.153 20.1568C102.717 19.9364 102.291 19.7295 101.875 19.5391C101.458 19.3485 101.052 19.1725 100.654 19.012L100.626 19.0728C100.322 20.3972 99.8676 21.7626 99.2619 23.1686C98.6553 24.5748 97.9307 25.7596 97.089 26.7228C96.2463 27.6872 95.3044 28.2088 94.2624 28.2896C92.7858 28.2687 91.6822 27.5566 90.9533 26.1504C90.2244 24.7444 89.9824 22.8674 90.2287 20.5179C90.4186 19.1925 90.9054 18.0332 91.6916 17.0388C92.4779 16.0456 93.3864 15.2617 94.4189 14.6893C95.4507 14.1178 96.5534 13.8012 97.728 13.7413C97.8033 13.099 97.87 12.4757 97.9274 11.8735C98.0018 10.9091 97.6801 10.4176 96.9615 10.3974H93.5805C92.0655 10.3974 91.3084 9.59385 91.3084 7.98802C91.3084 6.38141 92.0655 5.57861 93.5805 5.57861ZM94.4044 23.4399C94.821 23.419 95.1855 23.1486 95.4986 22.6261C95.8108 22.1045 96.0709 21.5022 96.2796 20.819C96.4875 20.1359 96.6484 19.529 96.7621 18.9965C96.8759 18.465 96.9324 18.1892 96.9324 18.1683C96.3079 18.1683 95.7586 18.3398 95.2856 18.6809C94.8116 19.022 94.4566 19.4238 94.2205 19.8856C93.9835 20.3474 93.8176 20.7592 93.7226 21.1202C93.59 21.9041 93.6233 22.4855 93.8227 22.8674C94.0211 23.2494 94.2154 23.4399 94.4044 23.4399Z" fill="#1391E6"/>
<path d="M127.753 7.05353C127.753 7.25494 127.847 7.35457 128.037 7.35457H137.268C137.779 7.35457 138.214 7.54516 138.574 7.92705C138.934 8.30901 139.114 8.76531 139.114 9.2979C139.114 9.83032 138.934 10.2867 138.574 10.6685C138.214 11.0505 137.779 11.241 137.268 11.241H114.089C113.597 11.241 113.171 11.0505 112.811 10.6685C112.451 10.2867 112.271 9.83032 112.271 9.2979C112.271 8.76531 112.451 8.30901 112.811 7.92705C113.171 7.54516 113.597 7.35457 114.089 7.35457H116.021C116.21 7.35457 116.305 7.25494 116.305 7.05353V4.70487C116.305 4.12245 116.504 3.61991 116.901 3.19806C117.299 2.77715 117.772 2.56577 118.322 2.56577C118.871 2.56577 119.345 2.77715 119.742 3.19806C120.139 3.61991 120.339 4.12245 120.339 4.70487V7.05353C120.339 7.25494 120.433 7.35457 120.623 7.35457H123.265C123.453 7.35457 123.549 7.25494 123.549 7.05353V3.22889C123.549 2.6056 123.751 2.07861 124.159 1.64686C124.566 1.21588 125.063 1 125.651 1H126.303C126.701 1 127.042 1.15057 127.326 1.45177C127.61 1.75294 127.753 2.11397 127.753 2.53579C127.753 2.65647 127.809 2.71634 127.923 2.71634H134.712C135.166 2.71634 135.554 2.88776 135.876 3.22889C136.198 3.56998 136.359 3.98726 136.359 4.47899C136.359 4.97058 136.198 5.38793 135.876 5.72905C135.554 6.06924 135.166 6.24066 134.712 6.24066H128.037C127.847 6.24066 127.753 6.34052 127.753 6.54189V7.05353ZM133.348 25.3375C133.537 25.3375 133.632 25.2367 133.632 25.0363V14.0722C133.632 13.4699 133.831 12.9573 134.229 12.5355C134.626 12.1146 135.109 11.9032 135.677 11.9032C136.246 11.9032 136.728 12.1146 137.126 12.5355C137.524 12.9573 137.722 13.4699 137.722 14.0722V28.1987C137.722 28.801 137.524 29.3135 137.126 29.7345C136.728 30.1564 136.246 30.3677 135.677 30.3677H134.655C134.371 30.3677 134.129 30.2615 133.93 30.0512C133.732 29.8406 133.632 29.584 133.632 29.2828C133.632 29.202 133.594 29.1629 133.519 29.1629H117.895C117.819 29.1629 117.782 29.202 117.782 29.2828C117.782 29.584 117.682 29.8406 117.484 30.0512C117.285 30.2615 117.043 30.3677 116.759 30.3677H115.765C115.215 30.3677 114.743 30.1564 114.345 29.7345C113.947 29.3135 113.749 28.811 113.749 28.2286V14.0423C113.749 13.4599 113.947 12.9573 114.345 12.5355C114.743 12.1146 115.215 11.9032 115.765 11.9032C116.314 11.9032 116.788 12.1146 117.185 12.5355C117.583 12.9573 117.782 13.4599 117.782 14.0423V21.4521C117.782 21.5319 117.811 21.5927 117.867 21.6326C117.925 21.6725 117.981 21.6825 118.038 21.6625C119.363 21.1201 120.603 20.3471 121.759 19.3429C121.797 19.3229 121.81 19.2884 121.802 19.2377C121.791 19.1869 121.759 19.1623 121.702 19.1623H119.855C119.439 19.1623 119.084 19.0063 118.79 18.6952C118.496 18.385 118.351 18.0085 118.351 17.5658C118.351 17.1239 118.496 16.7475 118.79 16.4364C119.084 16.1252 119.439 15.9701 119.855 15.9701H119.884C119.997 15.9701 120.035 15.9092 119.997 15.7886C119.846 15.3877 119.657 14.9758 119.429 14.5539C119.316 14.3336 119.259 14.1122 119.259 13.8918C119.259 13.7312 119.278 13.5806 119.316 13.44C119.448 13.0381 119.695 12.7768 120.055 12.6562C120.281 12.5563 120.518 12.5056 120.765 12.5056C120.954 12.5056 121.143 12.5265 121.333 12.5664C121.768 12.707 122.099 12.9783 122.327 13.3792C122.365 13.4191 122.402 13.4699 122.441 13.5298C122.572 13.791 122.639 14.0514 122.639 14.3127C122.639 14.4941 122.611 14.6845 122.554 14.885C122.383 15.3468 122.071 15.678 121.617 15.8794H121.589C121.569 15.8993 121.564 15.9192 121.574 15.9391C121.583 15.96 121.597 15.9701 121.617 15.9701H123.435C123.624 15.9701 123.719 15.8693 123.719 15.6688V13.801C123.719 13.2794 123.893 12.8321 124.244 12.4602C124.594 12.0892 125.016 11.9032 125.509 11.9032C126 11.9032 126.421 12.0892 126.772 12.4602C127.122 12.8321 127.298 13.2794 127.298 13.801V15.6688C127.298 15.8693 127.392 15.9701 127.582 15.9701H129.826C129.844 15.9701 129.859 15.96 129.868 15.9391C129.878 15.9192 129.872 15.9092 129.854 15.9092L129.627 15.8194C129.21 15.678 128.917 15.3877 128.747 14.9459C128.67 14.7445 128.633 14.544 128.633 14.3434C128.633 14.1023 128.68 13.8709 128.775 13.6504C128.983 13.1887 129.296 12.8366 129.712 12.5963C129.977 12.4557 130.252 12.3849 130.536 12.3849C130.706 12.3849 130.867 12.4158 131.019 12.4756H131.076C131.473 12.5963 131.748 12.8675 131.899 13.2894C131.956 13.449 131.985 13.6105 131.985 13.771C131.985 14.0323 131.908 14.2726 131.757 14.4941C131.36 15.1164 131.085 15.5383 130.934 15.7586C130.896 15.7986 130.891 15.844 130.92 15.8947C130.948 15.9447 130.98 15.9701 131.019 15.9701H131.53C131.946 15.9701 132.301 16.1252 132.595 16.4364C132.889 16.7475 133.036 17.1239 133.036 17.5658C133.036 18.0085 132.889 18.385 132.595 18.6952C132.301 19.0063 131.946 19.1623 131.53 19.1623H129.542C129.485 19.1623 129.451 19.1869 129.442 19.2377C129.433 19.2884 129.446 19.3229 129.485 19.3429C130.242 20.006 131.047 20.5576 131.899 21.0004C132.258 21.2008 132.477 21.522 132.553 21.9637C132.572 22.0444 132.581 22.1342 132.581 22.235C132.581 22.5362 132.477 22.8165 132.269 23.0787C131.908 23.4994 131.492 23.7707 131.019 23.8915C130.886 23.9313 130.744 23.9514 130.593 23.9514C130.27 23.9514 129.958 23.8515 129.655 23.6501C128.898 23.0877 128.179 22.4453 127.497 21.7224C127.458 21.6825 127.415 21.6725 127.369 21.6924C127.321 21.7133 127.298 21.7533 127.298 21.8131V22.9279C127.298 23.4496 127.122 23.8969 126.772 24.2679C126.421 24.639 126 24.8249 125.509 24.8249C125.016 24.8249 124.594 24.639 124.244 24.2679C123.893 23.8969 123.719 23.4496 123.719 22.9279V21.9338C123.719 21.873 123.695 21.833 123.648 21.8131C123.6 21.7932 123.557 21.8031 123.52 21.8431C122.989 22.4254 122.45 22.9371 121.901 23.3798C121.465 23.7009 121.01 23.8616 120.537 23.8616C120.367 23.8616 120.197 23.8406 120.027 23.8008C119.363 23.641 118.785 23.2681 118.293 22.6868C118.179 22.5869 118.075 22.4753 117.981 22.3555C117.943 22.3157 117.9 22.3048 117.854 22.3248C117.806 22.3456 117.782 22.3855 117.782 22.4453V25.0363C117.782 25.2367 117.877 25.3375 118.067 25.3375H133.348Z" fill="#1391E6"/>
<path d="M151.414 17.0539C151.829 17.5157 152.057 18.0573 152.095 18.6805V18.861C152.095 19.4236 151.934 19.936 151.612 20.397C151.366 20.7588 151.044 20.9393 150.647 20.9393C150.608 20.9393 150.561 20.9294 150.504 20.9094C150.05 20.8696 149.719 20.6382 149.51 20.2165C149.435 20.0957 149.368 19.9759 149.312 19.8554C149.293 19.8154 149.264 19.7999 149.226 19.8099C149.187 19.82 149.17 19.8453 149.17 19.8852V28.8308C149.17 29.4332 148.971 29.9459 148.573 30.3676C148.175 30.7895 147.692 30.9999 147.124 30.9999C146.556 30.9999 146.073 30.7895 145.676 30.3676C145.278 29.9459 145.079 29.4332 145.079 28.8308V21.783C145.079 21.7431 145.065 21.7178 145.037 21.7078C145.008 21.6977 144.984 21.7132 144.966 21.7531C144.549 22.7374 144.142 23.6001 143.744 24.343C143.535 24.7251 143.232 24.9155 142.835 24.9155H142.693C142.22 24.8556 141.878 24.5935 141.67 24.1326C141.424 23.5901 141.302 23.0078 141.302 22.3855V22.0842C141.358 21.3813 141.566 20.719 141.926 20.0957C142.835 18.5699 143.668 16.8127 144.426 14.8251C144.445 14.7443 144.435 14.6745 144.398 14.6136C144.359 14.5539 144.312 14.5239 144.256 14.5239H142.92C142.371 14.5239 141.907 14.3225 141.528 13.9216C141.149 13.5197 140.96 13.0325 140.96 12.46C140.96 11.8886 141.149 11.3969 141.528 10.9842C141.907 10.5723 142.371 10.3672 142.92 10.3672H144.795C144.984 10.3672 145.079 10.2667 145.079 10.0661V7.80718C145.079 7.72655 145.05 7.66118 144.994 7.61128C144.937 7.56054 144.871 7.53596 144.795 7.53596C144.454 7.5959 144.17 7.64667 143.943 7.6866C143.847 7.70664 143.753 7.71651 143.659 7.71651C143.299 7.71651 142.958 7.5959 142.636 7.35454C142.238 7.05337 141.954 6.65244 141.784 6.1499C141.728 5.96938 141.699 5.78893 141.699 5.60831C141.699 5.36695 141.756 5.12578 141.87 4.88523C142.077 4.48342 142.399 4.24297 142.835 4.16221C144.899 3.74046 146.831 3.22882 148.63 2.62636C148.914 2.52572 149.198 2.47585 149.482 2.47585C149.766 2.47585 150.059 2.52572 150.362 2.62636C150.949 2.82689 151.403 3.19793 151.726 3.74046C151.915 4.02159 152.01 4.32279 152.01 4.644C152.01 4.82452 151.971 5.01501 151.896 5.21644C151.726 5.73802 151.395 6.06901 150.902 6.21055C150.429 6.3513 149.945 6.48189 149.454 6.6016C149.264 6.64146 149.17 6.76221 149.17 6.96358V10.0661C149.17 10.2667 149.264 10.3672 149.454 10.3672H150.789C151.337 10.3672 151.801 10.5723 152.18 10.9842C152.559 11.3969 152.749 11.8886 152.749 12.46C152.749 13.0325 152.559 13.5197 152.18 13.9216C151.801 14.3225 151.337 14.5239 150.789 14.5239H149.226C149.187 14.5239 149.17 14.5438 149.17 14.5838C149.17 14.6238 149.187 14.6535 149.226 14.6745C149.605 15.0357 150.334 15.8284 151.414 17.0539ZM168.344 20.6083C168.362 20.729 168.372 20.8486 168.372 20.9694C168.372 21.412 168.248 21.823 168.002 22.205C167.68 22.6866 167.244 22.9779 166.696 23.0785L165.702 23.289C165.512 23.3088 165.418 23.4187 165.418 23.6202V28.7709C165.418 29.3735 165.213 29.8896 164.807 30.3224C164.399 30.7533 163.907 30.97 163.33 30.97C162.751 30.97 162.259 30.7533 161.853 30.3224C161.445 29.8896 161.242 29.3735 161.242 28.7709V24.4337C161.242 24.3531 161.214 24.2886 161.157 24.2378C161.1 24.187 161.043 24.1725 160.987 24.1925L154.851 25.3673C154.718 25.3872 154.595 25.3973 154.481 25.3973C154.065 25.3973 153.686 25.2675 153.345 25.0062C152.891 24.6651 152.615 24.2024 152.521 23.6202C152.502 23.4994 152.493 23.3698 152.493 23.2291C152.493 22.7865 152.615 22.3755 152.862 21.9935C153.183 21.491 153.629 21.1897 154.197 21.09L160.987 19.7946C161.157 19.7745 161.242 19.6648 161.242 19.4635V3.89103C161.242 3.26865 161.445 2.74176 161.853 2.30984C162.259 1.87796 162.751 1.66211 163.33 1.66211C163.907 1.66211 164.399 1.87796 164.807 2.30984C165.213 2.74176 165.418 3.26865 165.418 3.89103V18.6805C165.418 18.7613 165.446 18.8257 165.503 18.8765C165.56 18.9265 165.616 18.9418 165.673 18.9209L166.042 18.861C166.174 18.8411 166.298 18.8311 166.412 18.8311C166.81 18.8311 167.188 18.961 167.548 19.223C168.002 19.5632 168.268 20.0259 168.344 20.6083ZM154.14 15.3676C153.781 15.0056 153.601 14.5738 153.601 14.0722C153.601 13.5696 153.781 13.1477 154.14 12.8066C154.539 12.4247 154.993 12.2252 155.504 12.2044H155.589C156.082 12.2044 156.516 12.3757 156.896 12.7168C157.596 13.3591 158.212 13.9515 158.743 14.494C159.102 14.895 159.282 15.3576 159.282 15.8793C159.282 16.5215 159.055 17.064 158.6 17.5057C158.259 17.8469 157.862 18.0173 157.407 18.0173H157.237C156.725 17.9577 156.29 17.7162 155.931 17.2954C155.4 16.672 154.803 16.0298 154.14 15.3676ZM159.651 6.36121C159.992 6.7431 160.163 7.18402 160.163 7.6866V7.89707C160.106 8.47952 159.868 8.96127 159.453 9.34303C159.112 9.66418 158.732 9.82479 158.317 9.82479C158.24 9.82479 158.164 9.81481 158.089 9.79487C157.558 9.73496 157.123 9.4937 156.783 9.07185C156.309 8.46945 155.76 7.84629 155.135 7.20413C154.794 6.86307 154.623 6.44194 154.623 5.93933C154.623 5.41775 154.812 4.98509 155.191 4.644C155.589 4.28305 156.053 4.10241 156.583 4.10241C157.114 4.10241 157.568 4.28305 157.947 4.644C158.59 5.2463 159.158 5.81875 159.651 6.36121Z" fill="#1391E6"/>
<path d="M179.28 7.41546H184.308C187.678 7.3755 189.098 9.32226 188.568 13.2585C188.322 15.0456 187.782 16.9388 186.95 18.9365C186.115 20.934 185.089 22.576 183.867 23.8615C182.646 25.1468 181.382 26.1802 180.075 26.964C178.768 27.7468 177.358 28.4399 175.843 29.0424C174.498 29.5839 173.514 29.1821 172.889 27.8377C172.491 26.2917 172.898 25.2676 174.11 24.765C174.678 24.6045 175.492 24.2525 176.553 23.7109C177.614 23.1684 178.721 22.3456 179.876 21.2406C181.031 20.1358 181.964 18.8612 182.675 17.4152C183.385 15.97 183.806 14.6646 183.938 13.4998C184.07 12.4557 183.635 11.9241 182.632 11.9031H177.547C176.448 13.791 175.35 15.2869 174.252 16.391C173.134 17.5159 172.074 17.6764 171.071 16.8736C170.143 15.5482 170.152 14.3734 171.099 13.3492C171.629 12.8467 172.254 12.0637 172.974 10.9996C173.693 9.93561 174.384 8.35889 175.047 6.27066C175.445 4.76469 176.43 4.16232 178.002 4.46346C179.308 4.86445 179.734 5.84881 179.28 7.41546Z" fill="#1391E6"/>
<path d="M192.971 6.96408C192.971 5.41835 193.699 4.64453 195.158 4.64453C196.635 4.64453 197.374 5.41835 197.374 6.96408V16.4523C197.374 17.9981 196.645 18.7709 195.186 18.7709C193.71 18.7709 192.971 17.9981 192.971 16.4523V6.96408ZM198.34 24.7046C199.835 24.0824 200.92 23.3894 201.592 22.6264C202.264 21.8644 202.842 20.9246 203.325 19.8105C203.808 18.6957 204.059 17.3159 204.077 15.6694V6.96408C204.077 5.41835 204.806 4.64453 206.265 4.64453C207.741 4.64453 208.481 5.41835 208.481 6.96408V15.6694C208.461 18.1786 208.083 20.3131 207.344 22.0694C206.605 23.8265 205.63 25.2471 204.419 26.3314C203.206 27.4162 201.673 28.3597 199.817 29.1635C198.321 29.6451 197.335 29.1635 196.862 27.7174C196.578 26.1108 197.071 25.1065 198.34 24.7046Z" fill="#1391E6"/>
<path d="M228.449 23.3802C229.926 23.3802 230.665 24.1632 230.665 25.7288C230.665 27.3154 229.926 28.1084 228.449 28.1084H214.871C213.395 28.1084 212.656 27.3254 212.656 25.7597C212.656 24.173 213.395 23.3802 214.871 23.3802H228.449ZM213.195 8.41021C213.195 6.8435 213.935 6.06055 215.411 6.06055H227.853C229.33 6.06055 230.068 6.8435 230.068 8.41021C230.068 9.99671 229.33 10.7896 227.853 10.7896H215.411C213.935 10.7896 213.195 10.0059 213.195 8.44003V8.41021Z" fill="#1391E6"/>
<path d="M236.545 10.1561L237.653 17.3853C237.784 18.4494 237.378 19.0817 236.431 19.2832C235.484 19.4636 234.944 19.0119 234.812 17.9278L233.676 10.7893C233.562 9.70431 233.998 9.10198 234.983 8.98136C235.93 8.90145 236.45 9.29247 236.545 10.1561ZM237.284 28.8917C235.938 29.2121 235.134 28.7304 234.869 27.4458C234.68 26.0207 235.124 25.2069 236.204 25.0064C237.756 24.6444 239.12 23.916 240.294 22.822C241.468 21.7279 242.396 20.4071 243.078 18.8613C243.76 17.3155 244.275 15.8096 244.627 14.3436C244.976 12.8767 245.198 11.7528 245.294 10.9698C245.426 9.6843 246.098 9.03217 247.31 9.01222C248.598 9.07203 249.147 9.82499 248.958 11.271C248.579 14.2828 248.067 16.6568 247.424 18.3941C246.78 20.1313 245.918 21.7623 244.839 23.2891C243.76 24.8159 242.538 26.0551 241.175 27.0095C239.812 27.9628 238.514 28.5906 237.284 28.8917ZM241.288 10.1561L242.396 17.3853C242.528 18.4494 242.112 19.0817 241.146 19.2832C240.199 19.4636 239.66 19.0119 239.528 17.9278L238.391 10.7893C238.296 9.70431 238.732 9.10198 239.698 8.98136C240.664 8.90145 241.193 9.29247 241.288 10.1561Z" fill="#1391E6"/>
<path d="M260.603 7.41546H265.631C269.002 7.3755 270.422 9.32226 269.892 13.2585C269.646 15.0456 269.106 16.9388 268.273 18.9365C267.439 20.934 266.412 22.576 265.191 23.8615C263.97 25.1468 262.705 26.1802 261.399 26.964C260.093 27.7468 258.681 28.4399 257.167 29.0424C255.821 29.5839 254.837 29.1821 254.213 27.8377C253.815 26.2917 254.221 25.2676 255.434 24.765C256.002 24.6045 256.816 24.2525 257.877 23.7109C258.937 23.1684 260.045 22.3456 261.2 21.2406C262.354 20.1358 263.288 18.8612 263.998 17.4152C264.708 15.97 265.129 14.6646 265.262 13.4998C265.394 12.4557 264.959 11.9241 263.955 11.9031H258.871C257.772 13.791 256.674 15.2869 255.575 16.391C254.458 17.5159 253.397 17.6764 252.395 16.8736C251.467 15.5482 251.475 14.3734 252.423 13.3492C252.953 12.8467 253.577 12.0637 254.297 10.9996C255.017 9.93561 255.708 8.35889 256.371 6.27066C256.769 4.76469 257.753 4.16232 259.325 4.46346C260.631 4.86445 261.058 5.84881 260.603 7.41546Z" fill="#1391E6"/>
<path d="M31.1768 5.66036C30.2611 4.88387 29.1489 4.33386 27.9866 3.99775C25.783 3.36099 23.4367 4.171 21.9532 5.95495C21.1145 6.96315 19.8648 7.6026 18.4687 7.6026C17.1237 7.6026 15.9155 7.00911 15.0786 6.06456C13.4289 4.20118 10.9302 3.32822 8.59169 4.10654C7.56779 4.44697 6.59326 4.96169 5.76929 5.66036C0.510551 10.1276 4.06341 20.5169 4.69781 22.3476C6.52834 27.6161 10.1392 31.9897 12.1809 31.9915C13.7137 31.9932 14.6501 32.0437 15.8757 27.0121C16.1977 25.6969 16.9091 24.8002 17.6032 24.3412C18.0663 24.0351 18.6721 24.0334 19.1429 24.327C19.8717 24.7817 20.6472 25.6837 20.9718 27.0121C22.1982 32.0437 23.3034 32.04 24.7176 31.9915C26.755 31.9225 30.397 27.6161 32.2232 22.3476C32.8568 20.5169 36.4356 10.1276 31.1768 5.66036Z" fill="#1391E6"/>
<path d="M14.4646 17.252C14.4646 19.3236 16.1102 21.003 18.1401 21.003C20.17 21.003 21.8156 19.3236 21.8156 17.252C20.7695 17.252 14.4646 17.252 14.4646 17.252Z" fill="white"/>
<path d="M1.65075 6.38826C1.74272 6.71168 2.07704 7.05159 2.39395 7.14546L2.6077 7.20888C2.92462 7.30147 2.92462 7.45494 2.6077 7.54752L2.39395 7.61094C2.07704 7.70479 1.74272 8.0447 1.65075 8.36814L1.58861 8.58756C1.49789 8.91098 1.3475 8.91098 1.25679 8.58756L1.19464 8.36814C1.10391 8.0447 0.769605 7.70479 0.452696 7.61094L0.237684 7.54752C-0.079228 7.45494 -0.079228 7.30147 0.237684 7.20888L0.452696 7.14546C0.769605 7.05159 1.10391 6.71168 1.19464 6.38826L1.25679 6.16884C1.3475 5.84541 1.49789 5.84541 1.58861 6.16884L1.65075 6.38826Z" fill="#1391E6"/>
<path d="M4.44684 0.942061C4.63451 1.6016 5.31556 2.29793 5.96182 2.48817L6.40053 2.61627C7.04678 2.80779 7.04678 3.1198 6.40053 3.31005L5.96182 3.43817C5.31556 3.62841 4.63451 4.32474 4.44684 4.98426L4.32132 5.43072C4.1349 6.09153 3.82918 6.09153 3.64275 5.43072L3.51599 4.98426C3.32957 4.32474 2.64727 3.62841 2.00102 3.43817L1.56356 3.31005C0.917291 3.1198 0.917291 2.80779 1.56356 2.61627L2.00102 2.48817C2.64727 2.29793 3.32957 1.6016 3.51599 0.942061L3.64275 0.495614C3.82918 -0.165205 4.1349 -0.165205 4.32132 0.495614L4.44684 0.942061Z" fill="#1391E6"/>
<path d="M14.0854 11.8657C14.0854 11.3059 14.5393 10.8521 15.099 10.8521C15.6588 10.8521 16.1126 11.3059 16.1126 11.8657V13.9762C16.1126 14.536 15.6588 14.9898 15.099 14.9898C14.5393 14.9898 14.0854 14.536 14.0854 13.9762V11.8657Z" fill="white"/>
<path d="M20.1667 11.8657C20.1667 11.3059 20.6206 10.8521 21.1803 10.8521C21.7401 10.8521 22.1939 11.3059 22.1939 11.8657V13.9762C22.1939 14.536 21.7401 14.9898 21.1803 14.9898C20.6206 14.9898 20.1667 14.536 20.1667 13.9762V11.8657Z" fill="white"/>
</svg>
