<svg width="269" height="81" viewBox="0 0 269 81" fill="none" xmlns="http://www.w3.org/2000/svg">
<ellipse cx="2.99834" cy="75" rx="0.998337" ry="1" fill="white"/>
<ellipse cx="9.38847" cy="75" rx="0.998337" ry="1" fill="white"/>
<ellipse cx="15.7791" cy="75" rx="0.998337" ry="1" fill="white"/>
<ellipse cx="22.1692" cy="75" rx="0.998337" ry="1" fill="white"/>
<ellipse cx="28.5594" cy="75" rx="0.998337" ry="1" fill="white"/>
<ellipse cx="34.95" cy="75" rx="0.998337" ry="1" fill="white"/>
<ellipse cx="41.3401" cy="75" rx="0.998337" ry="1" fill="white"/>
<ellipse cx="47.7303" cy="75" rx="0.998337" ry="1" fill="white"/>
<ellipse cx="54.1209" cy="75" rx="0.998337" ry="1" fill="white"/>
<ellipse cx="60.511" cy="75" rx="0.998337" ry="1" fill="white"/>
<ellipse cx="66.9017" cy="75" rx="0.998337" ry="1" fill="white"/>
<ellipse cx="73.2918" cy="75" rx="0.998337" ry="1" fill="white"/>
<ellipse cx="79.6819" cy="75" rx="0.998337" ry="1" fill="white"/>
<ellipse cx="86.0726" cy="75" rx="0.998337" ry="1" fill="white"/>
<ellipse cx="92.4627" cy="75" rx="0.998337" ry="1" fill="white"/>
<ellipse cx="98.8533" cy="75" rx="0.998337" ry="1" fill="white"/>
<ellipse cx="105.243" cy="75" rx="0.998337" ry="1" fill="white"/>
<ellipse cx="111.634" cy="75" rx="0.998337" ry="1" fill="white"/>
<ellipse cx="118.024" cy="75" rx="0.998337" ry="1" fill="white"/>
<ellipse cx="124.414" cy="75" rx="0.998337" ry="1" fill="white"/>
<ellipse cx="130.805" cy="75" rx="0.998337" ry="1" fill="white"/>
<ellipse cx="137.195" cy="75" rx="0.998337" ry="1" fill="white"/>
<ellipse cx="143.585" cy="75" rx="0.998337" ry="1" fill="white"/>
<ellipse cx="149.976" cy="75" rx="0.998337" ry="1" fill="white"/>
<ellipse cx="156.366" cy="75" rx="0.998337" ry="1" fill="white"/>
<ellipse cx="162.757" cy="75" rx="0.998337" ry="1" fill="white"/>
<ellipse cx="169.147" cy="75" rx="0.998337" ry="1" fill="white"/>
<ellipse cx="175.537" cy="75" rx="0.998337" ry="1" fill="white"/>
<ellipse cx="181.928" cy="75" rx="0.998337" ry="1" fill="white"/>
<ellipse cx="188.318" cy="75" rx="0.998337" ry="1" fill="white"/>
<ellipse cx="194.708" cy="75" rx="0.998337" ry="1" fill="white"/>
<ellipse cx="201.098" cy="75" rx="0.998337" ry="1" fill="white"/>
<ellipse cx="207.489" cy="75" rx="0.998337" ry="1" fill="white"/>
<ellipse cx="213.879" cy="75" rx="0.998337" ry="1" fill="white"/>
<ellipse cx="220.269" cy="75" rx="0.998337" ry="1" fill="white"/>
<ellipse cx="226.659" cy="75" rx="0.998337" ry="1" fill="white"/>
<ellipse cx="233.05" cy="75" rx="0.998337" ry="1" fill="white"/>
<ellipse cx="239.44" cy="75" rx="0.998337" ry="1" fill="white"/>
<ellipse cx="245.831" cy="75" rx="0.998337" ry="1" fill="white"/>
<ellipse cx="252.221" cy="75" rx="0.998337" ry="1" fill="white"/>
<ellipse cx="258.611" cy="75" rx="0.998337" ry="1" fill="white"/>
<ellipse cx="265.002" cy="75" rx="0.998337" ry="1" fill="white"/>
<g filter="url(#filter0_d_1_3566)">
<path d="M5.4 53.8C5.09333 53.8 4.82667 53.6867 4.6 53.46C4.37333 53.2333 4.26 52.9667 4.26 52.66V52.6C4.26 52.2933 4.37333 52.0267 4.6 51.8C4.82667 51.5733 5.09333 51.46 5.4 51.46H19.34C19.6467 51.46 19.9067 51.5733 20.12 51.8C20.3467 52.0267 20.46 52.2933 20.46 52.6V52.66C20.46 53.54 20.3333 54.2733 20.08 54.86C19.2267 56.8467 17.8867 58.4867 16.06 59.78C15.7933 59.9667 15.5 60.0333 15.18 59.98C14.86 59.9267 14.6 59.7667 14.4 59.5L14.22 59.24C14.0467 59 13.98 58.7333 14.02 58.44C14.0733 58.1467 14.2267 57.9067 14.48 57.72C15.9733 56.6533 16.9933 55.4 17.54 53.96C17.5933 53.8533 17.56 53.8 17.44 53.8H5.4ZM10.6 55.4H11C11.3067 55.4 11.5733 55.5133 11.8 55.74C12.0267 55.9667 12.1333 56.2333 12.12 56.54C12.0533 59.3 11.6867 61.4133 11.02 62.88C10.3533 64.3333 9.22 65.5133 7.62 66.42C7.34 66.58 7.04 66.6133 6.72 66.52C6.41333 66.44 6.17333 66.26 6 65.98L5.86 65.72C5.7 65.4667 5.65333 65.2 5.72 64.92C5.8 64.6267 5.96667 64.4 6.22 64.24C7.36667 63.5467 8.18 62.64 8.66 61.52C9.14 60.3867 9.40667 58.72 9.46 56.52C9.47333 56.2133 9.58667 55.9533 9.8 55.74C10.0267 55.5133 10.2933 55.4 10.6 55.4ZM39.02 54.44C39.34 54.4533 39.6067 54.58 39.82 54.82C40.0333 55.06 40.1333 55.34 40.12 55.66C39.96 59.1933 39.1667 61.8 37.74 63.48C36.3267 65.1467 34.0533 66.22 30.92 66.7C30.6 66.7533 30.3067 66.68 30.04 66.48C29.7867 66.2933 29.6267 66.04 29.56 65.72C29.5067 65.4267 29.5667 65.1533 29.74 64.9C29.9133 64.6467 30.1533 64.4933 30.46 64.44C33.0333 64 34.8533 63.1333 35.92 61.84C36.9867 60.5467 37.5867 58.44 37.72 55.52C37.7333 55.2133 37.8533 54.9533 38.08 54.74C38.3067 54.5267 38.5733 54.4267 38.88 54.44H39.02ZM28.02 59.58C27.7 58.2333 27.4333 57.1867 27.22 56.44C27.14 56.1333 27.18 55.8467 27.34 55.58C27.5 55.3133 27.7267 55.1467 28.02 55.08L28.06 55.06C28.3667 54.9933 28.6533 55.04 28.92 55.2C29.2 55.3467 29.3867 55.5733 29.48 55.88C29.7467 56.8133 30.0267 57.8667 30.32 59.04C30.4 59.3333 30.36 59.62 30.2 59.9C30.04 60.1667 29.8067 60.3333 29.5 60.4L29.4 60.42C29.0933 60.4867 28.8 60.44 28.52 60.28C28.2533 60.1067 28.0867 59.8733 28.02 59.58ZM33.76 60.04C33.4533 60.1067 33.1667 60.06 32.9 59.9C32.6333 59.74 32.46 59.5067 32.38 59.2C32.26 58.76 31.9733 57.6667 31.52 55.92C31.44 55.6133 31.48 55.3267 31.64 55.06C31.8 54.7933 32.0267 54.6267 32.32 54.56L32.42 54.54C32.7267 54.4733 33.02 54.52 33.3 54.68C33.58 54.84 33.76 55.0733 33.84 55.38C34.2133 56.7667 34.5 57.86 34.7 58.66C34.78 58.9533 34.7333 59.24 34.56 59.52C34.4 59.7867 34.1667 59.9533 33.86 60.02L33.76 60.04ZM50.86 67.06C50.5533 67.06 50.2867 66.9467 50.06 66.72C49.8467 66.5067 49.74 66.2467 49.74 65.94V51.66C49.74 51.3533 49.8467 51.0933 50.06 50.88C50.2867 50.6533 50.5533 50.54 50.86 50.54H51.4C51.7067 50.54 51.9733 50.6533 52.2 50.88C52.4267 51.0933 52.54 51.3533 52.54 51.66V55.98C52.54 56.1 52.5867 56.1667 52.68 56.18C55.8533 56.9533 59.08 57.92 62.36 59.08C62.6533 59.1867 62.8667 59.38 63 59.66C63.1467 59.94 63.1667 60.2333 63.06 60.54L62.94 60.92C62.8333 61.2133 62.64 61.4267 62.36 61.56C62.0933 61.6933 61.8133 61.7133 61.52 61.62C58.36 60.5133 55.4133 59.6133 52.68 58.92C52.64 58.9067 52.6067 58.92 52.58 58.96C52.5533 58.9867 52.54 59.02 52.54 59.06V65.94C52.54 66.2467 52.4267 66.5067 52.2 66.72C51.9733 66.9467 51.7067 67.06 51.4 67.06H50.86ZM74.86 64.52C75.2467 64.52 75.4733 64.48 75.54 64.4C75.6067 64.3067 75.64 64.0333 75.64 63.58V55.24C75.64 55.12 75.58 55.06 75.46 55.06H69.66C69.3533 55.06 69.0867 54.9533 68.86 54.74C68.6467 54.5133 68.54 54.2467 68.54 53.94V53.8C68.54 53.4933 68.6467 53.2267 68.86 53C69.0867 52.7733 69.3533 52.66 69.66 52.66H75.46C75.58 52.66 75.64 52.6067 75.64 52.5V51.06C75.64 50.7533 75.7467 50.4933 75.96 50.28C76.1867 50.0533 76.4533 49.94 76.76 49.94H77.26C77.5667 49.94 77.8333 50.0533 78.06 50.28C78.2867 50.4933 78.4 50.7533 78.4 51.06V52.5C78.4 52.6067 78.46 52.66 78.58 52.66H83.94C84.2467 52.66 84.5067 52.7733 84.72 53C84.9467 53.2267 85.06 53.4933 85.06 53.8V53.94C85.06 54.2467 84.9467 54.5133 84.72 54.74C84.5067 54.9533 84.2467 55.06 83.94 55.06H78.58C78.46 55.06 78.4 55.12 78.4 55.24V63.94C78.4 65.2733 78.2333 66.1067 77.9 66.44C77.58 66.7733 76.7667 66.94 75.46 66.94C74.8867 66.94 74.1867 66.9 73.36 66.82C73.0533 66.7933 72.8 66.6533 72.6 66.4C72.4133 66.1467 72.3333 65.8667 72.36 65.56V65.46C72.3867 65.1533 72.52 64.9 72.76 64.7C73.0133 64.5 73.2933 64.4133 73.6 64.44C74.2667 64.4933 74.6867 64.52 74.86 64.52ZM68.92 64.48C68.64 64.36 68.4467 64.1533 68.34 63.86C68.2333 63.5667 68.2467 63.28 68.38 63C69.1533 61.3867 69.8867 59.7467 70.58 58.08C70.7 57.7867 70.9067 57.5733 71.2 57.44C71.4933 57.3067 71.7867 57.2867 72.08 57.38L72.38 57.48C72.6733 57.5733 72.8867 57.76 73.02 58.04C73.1533 58.3067 73.16 58.58 73.04 58.86C72.4133 60.42 71.6533 62.1333 70.76 64C70.6133 64.2933 70.3933 64.5 70.1 64.62C69.82 64.7267 69.5267 64.72 69.22 64.6L68.92 64.48ZM81.46 57.32C81.7533 57.2 82.0467 57.2 82.34 57.32C82.6467 57.4267 82.8667 57.6267 83 57.92C83.7467 59.52 84.5133 61.2533 85.3 63.12C85.42 63.4133 85.4133 63.7067 85.28 64C85.16 64.28 84.9533 64.4733 84.66 64.58L84.34 64.7C84.0467 64.8067 83.7533 64.8 83.46 64.68C83.18 64.56 82.98 64.3533 82.86 64.06C82.38 62.8867 81.6267 61.1533 80.6 58.86C80.48 58.58 80.48 58.3 80.6 58.02C80.72 57.7267 80.92 57.5267 81.2 57.42L81.46 57.32ZM91.26 60.14C90.9533 60.14 90.6867 60.0267 90.46 59.8C90.2467 59.5733 90.14 59.3067 90.14 59V58.6C90.14 58.2933 90.2467 58.0267 90.46 57.8C90.6867 57.5733 90.9533 57.46 91.26 57.46H105.54C105.847 57.46 106.107 57.5733 106.32 57.8C106.547 58.0267 106.66 58.2933 106.66 58.6V59C106.66 59.3067 106.547 59.5733 106.32 59.8C106.107 60.0267 105.847 60.14 105.54 60.14H91.26ZM112.56 66.16C112.253 66.1733 111.98 66.0733 111.74 65.86C111.5 65.6333 111.373 65.3667 111.36 65.06V64.94C111.347 64.6333 111.447 64.3667 111.66 64.14C111.887 63.9 112.153 63.7667 112.46 63.74C112.54 63.7267 112.66 63.72 112.82 63.72C112.98 63.72 113.1 63.7133 113.18 63.7C113.287 63.7 113.36 63.6467 113.4 63.54V63.52C114.76 59.88 115.96 55.9533 117 51.74C117.08 51.4333 117.253 51.1933 117.52 51.02C117.787 50.8467 118.073 50.7933 118.38 50.86L118.88 50.94C119.187 51.0067 119.42 51.1733 119.58 51.44C119.753 51.6933 119.807 51.9667 119.74 52.26C118.82 56.0867 117.713 59.7733 116.42 63.32C116.393 63.4267 116.433 63.48 116.54 63.48C119.087 63.2667 121.713 62.9667 124.42 62.58C124.54 62.5533 124.573 62.4867 124.52 62.38C123.8 60.8333 123.267 59.7 122.92 58.98C122.773 58.7 122.747 58.4133 122.84 58.12C122.947 57.8267 123.147 57.6133 123.44 57.48L123.82 57.32C124.113 57.1867 124.407 57.1733 124.7 57.28C124.993 57.3867 125.213 57.58 125.36 57.86C126.347 59.9133 127.407 62.2 128.54 64.72C128.673 65 128.68 65.28 128.56 65.56C128.44 65.84 128.233 66.04 127.94 66.16L127.52 66.34C127.227 66.46 126.933 66.46 126.64 66.34C126.36 66.22 126.153 66.0133 126.02 65.72C126.007 65.7067 125.96 65.6133 125.88 65.44C125.8 65.2533 125.74 65.1133 125.7 65.02C125.66 64.9 125.587 64.8533 125.48 64.88C120.973 65.5467 116.667 65.9733 112.56 66.16ZM144.22 62.6V62.52C144.22 62.4 144.167 62.32 144.06 62.28C143.353 61.9333 142.693 61.76 142.08 61.76C141.347 61.76 140.793 61.9 140.42 62.18C140.06 62.46 139.88 62.8467 139.88 63.34C139.88 63.86 140.073 64.2667 140.46 64.56C140.847 64.8533 141.387 65 142.08 65C142.893 65 143.453 64.8333 143.76 64.5C144.067 64.1667 144.22 63.5333 144.22 62.6ZM149.36 52.72C149.68 52.7467 149.933 52.8867 150.12 53.14C150.32 53.3933 150.4 53.68 150.36 54C150.32 54.3067 150.173 54.5533 149.92 54.74C149.667 54.9267 149.387 55 149.08 54.96C148.333 54.8667 147.613 54.8133 146.92 54.8C146.813 54.8 146.76 54.86 146.76 54.98V61.04C146.76 61.1467 146.8 61.2333 146.88 61.3C147.787 61.86 148.747 62.58 149.76 63.46C150 63.66 150.127 63.92 150.14 64.24C150.153 64.56 150.053 64.8333 149.84 65.06L149.78 65.12C149.567 65.3467 149.307 65.4733 149 65.5C148.693 65.5267 148.42 65.44 148.18 65.24C147.98 65.0667 147.707 64.8467 147.36 64.58C147.013 64.3 146.813 64.14 146.76 64.1C146.68 64.0467 146.627 64.06 146.6 64.14C146.387 65.1667 145.907 65.92 145.16 66.4C144.427 66.8933 143.4 67.14 142.08 67.14C140.6 67.14 139.44 66.8 138.6 66.12C137.773 65.44 137.36 64.5133 137.36 63.34C137.36 62.1933 137.767 61.2867 138.58 60.62C139.407 59.94 140.573 59.6 142.08 59.6C142.667 59.6 143.333 59.7133 144.08 59.94C144.173 59.9667 144.22 59.9267 144.22 59.82V53.6C144.22 53.2933 144.327 53.0267 144.54 52.8C144.767 52.5733 145.033 52.4667 145.34 52.48C147.047 52.5333 148.387 52.6133 149.36 52.72ZM133.54 64.34C133.247 64.2467 133.04 64.06 132.92 63.78C132.8 63.5 132.793 63.2133 132.9 62.92C133.913 60.3467 134.833 57.6733 135.66 54.9C135.687 54.7933 135.647 54.74 135.54 54.74H134.06C133.753 54.74 133.487 54.6267 133.26 54.4C133.047 54.1733 132.94 53.9067 132.94 53.6C132.94 53.2933 133.047 53.0267 133.26 52.8C133.487 52.5733 133.753 52.46 134.06 52.46H136.18C136.3 52.46 136.373 52.4067 136.4 52.3C136.453 52.1267 136.52 51.8667 136.6 51.52C136.68 51.1733 136.747 50.9133 136.8 50.74C136.88 50.4333 137.053 50.1933 137.32 50.02C137.587 49.8333 137.88 49.76 138.2 49.8H138.34C138.647 49.84 138.88 49.9867 139.04 50.24C139.213 50.4933 139.267 50.7667 139.2 51.06C139.067 51.62 138.967 52.0333 138.9 52.3C138.873 52.4067 138.92 52.46 139.04 52.46H141.06C141.367 52.46 141.633 52.5733 141.86 52.8C142.087 53.0267 142.2 53.2933 142.2 53.6C142.2 53.9067 142.087 54.1733 141.86 54.4C141.633 54.6267 141.367 54.74 141.06 54.74H138.42C138.3 54.74 138.227 54.8 138.2 54.92C137.373 57.8533 136.38 60.78 135.22 63.7C135.1 63.9933 134.893 64.2133 134.6 64.36C134.32 64.4933 134.027 64.5067 133.72 64.4L133.54 64.34ZM155.26 55.24C154.967 55.24 154.713 55.1333 154.5 54.92C154.3 54.7067 154.2 54.4533 154.2 54.16C154.2 53.8667 154.3 53.62 154.5 53.42C154.713 53.2067 154.967 53.1 155.26 53.1H156.8C156.907 53.1 156.96 53.04 156.96 52.92V50.94C156.96 50.6333 157.073 50.3667 157.3 50.14C157.527 49.9133 157.793 49.8 158.1 49.8H158.44C158.747 49.8 159.007 49.9133 159.22 50.14C159.447 50.3667 159.56 50.6333 159.56 50.94V52.92C159.56 53.04 159.62 53.1 159.74 53.1H161.82C161.94 53.1 162 53.04 162 52.92V50.46C162 50.1533 162.113 49.8933 162.34 49.68C162.567 49.4533 162.833 49.34 163.14 49.34H163.92C164.147 49.34 164.34 49.42 164.5 49.58C164.66 49.74 164.74 49.9267 164.74 50.14C164.74 50.22 164.78 50.26 164.86 50.26H170.12C170.373 50.26 170.593 50.3533 170.78 50.54C170.967 50.7267 171.06 50.9533 171.06 51.22C171.06 51.4733 170.967 51.6933 170.78 51.88C170.607 52.0667 170.387 52.16 170.12 52.16H164.9C164.793 52.16 164.74 52.22 164.74 52.34V52.92C164.74 53.04 164.793 53.1 164.9 53.1H171.14C171.433 53.1 171.68 53.2067 171.88 53.42C172.093 53.62 172.2 53.8667 172.2 54.16C172.2 54.4533 172.093 54.7067 171.88 54.92C171.68 55.1333 171.433 55.24 171.14 55.24H155.26ZM156.06 55.9C156.367 55.9 156.633 56.0133 156.86 56.24C157.087 56.4667 157.2 56.7333 157.2 57.04V65.06C157.2 65.18 157.253 65.24 157.36 65.24H169.02C169.14 65.24 169.2 65.18 169.2 65.06V57.04C169.2 56.7333 169.313 56.4667 169.54 56.24C169.767 56.0133 170.033 55.9 170.34 55.9H170.64C170.947 55.9 171.207 56.0133 171.42 56.24C171.647 56.4667 171.76 56.7333 171.76 57.04V66.9C171.76 67.2067 171.647 67.4733 171.42 67.7C171.207 67.9267 170.947 68.04 170.64 68.04H169.86C169.687 68.04 169.533 67.9733 169.4 67.84C169.267 67.7067 169.2 67.5467 169.2 67.36C169.2 67.2933 169.167 67.26 169.1 67.26H157.3C157.233 67.26 157.2 67.2933 157.2 67.36C157.2 67.5467 157.133 67.7067 157 67.84C156.867 67.9733 156.713 68.04 156.54 68.04H155.76C155.453 68.04 155.187 67.9267 154.96 67.7C154.747 67.4733 154.64 67.2067 154.64 66.9V57.04C154.64 56.7333 154.747 56.4667 154.96 56.24C155.187 56.0133 155.453 55.9 155.76 55.9H156.06ZM159.5 58.98C159.607 58.98 159.627 58.9333 159.56 58.84C159.44 58.6667 159.253 58.4267 159 58.12C158.76 57.8 158.62 57.6133 158.58 57.56C158.407 57.3467 158.34 57.1067 158.38 56.84C158.42 56.56 158.553 56.3467 158.78 56.2C159.02 56.04 159.287 55.98 159.58 56.02C159.887 56.06 160.127 56.1933 160.3 56.42C160.38 56.5133 160.487 56.6533 160.62 56.84C160.767 57.0267 160.853 57.14 160.88 57.18C161.067 57.4333 161.133 57.7133 161.08 58.02C161.027 58.3133 160.867 58.5467 160.6 58.72L160.36 58.88C160.333 58.8933 160.32 58.9133 160.32 58.94C160.333 58.9667 160.353 58.98 160.38 58.98H161.8C161.92 58.98 161.98 58.92 161.98 58.8V56.84C161.98 56.5333 162.087 56.2667 162.3 56.04C162.527 55.8133 162.793 55.7 163.1 55.7H163.3C163.607 55.7 163.867 55.8133 164.08 56.04C164.307 56.2667 164.42 56.5333 164.42 56.84V58.8C164.42 58.92 164.48 58.98 164.6 58.98H166C166.027 58.98 166.047 58.9667 166.06 58.94C166.073 58.9133 166.067 58.8933 166.04 58.88L165.8 58.72C165.547 58.5467 165.4 58.3133 165.36 58.02C165.333 57.7133 165.413 57.4467 165.6 57.22C165.627 57.18 165.813 56.9333 166.16 56.48C166.333 56.2533 166.553 56.1133 166.82 56.06C167.1 55.9933 167.36 56.0333 167.6 56.18C167.84 56.34 167.987 56.56 168.04 56.84C168.093 57.12 168.033 57.3733 167.86 57.6C167.607 57.96 167.28 58.3733 166.88 58.84C166.813 58.9333 166.833 58.98 166.94 58.98H167.62C167.873 58.98 168.093 59.0733 168.28 59.26C168.467 59.4333 168.56 59.6533 168.56 59.92C168.56 60.1867 168.467 60.4133 168.28 60.6C168.093 60.7733 167.873 60.86 167.62 60.86H166.2C166.173 60.86 166.153 60.8733 166.14 60.9C166.14 60.9133 166.153 60.9333 166.18 60.96C166.873 61.4667 167.533 62.0067 168.16 62.58C168.387 62.78 168.507 63.0267 168.52 63.32C168.533 63.6133 168.44 63.8733 168.24 64.1C168.053 64.3133 167.813 64.42 167.52 64.42C167.227 64.42 166.98 64.3133 166.78 64.1C166.247 63.54 165.507 62.8133 164.56 61.92C164.533 61.8933 164.5 61.8867 164.46 61.9C164.433 61.9133 164.42 61.9333 164.42 61.96V63.64C164.42 63.9467 164.307 64.2133 164.08 64.44C163.867 64.6533 163.607 64.76 163.3 64.76H163.1C162.793 64.76 162.527 64.6533 162.3 64.44C162.087 64.2133 161.98 63.9467 161.98 63.64V62.2C161.98 62.1733 161.96 62.1533 161.92 62.14C161.893 62.1267 161.873 62.1333 161.86 62.16C161.193 62.9333 160.46 63.62 159.66 64.22C159.42 64.3933 159.153 64.46 158.86 64.42C158.567 64.3667 158.327 64.2267 158.14 64C157.967 63.7867 157.9 63.54 157.94 63.26C157.993 62.98 158.133 62.7667 158.36 62.62C159.107 62.1267 159.82 61.58 160.5 60.98C160.527 60.9267 160.507 60.8867 160.44 60.86H158.78C158.527 60.86 158.307 60.7733 158.12 60.6C157.933 60.4133 157.84 60.1867 157.84 59.92C157.84 59.6533 157.933 59.4333 158.12 59.26C158.307 59.0733 158.527 58.98 158.78 58.98H159.5ZM177.54 67.86C177.233 67.86 176.967 67.7467 176.74 67.52C176.513 67.3067 176.4 67.0467 176.4 66.74V51.2C176.4 50.8933 176.513 50.6267 176.74 50.4C176.967 50.1733 177.233 50.06 177.54 50.06H192.4C192.693 50.06 192.94 50.1667 193.14 50.38C193.353 50.5933 193.46 50.8467 193.46 51.14C193.46 51.4333 193.353 51.6867 193.14 51.9C192.94 52.1 192.693 52.2 192.4 52.2H184.34C184.26 52.2 184.233 52.2533 184.26 52.36C184.367 52.6 184.36 52.84 184.24 53.08C184.213 53.1067 184.213 53.14 184.24 53.18C184.267 53.22 184.3 53.24 184.34 53.24H191.56C191.827 53.24 192.053 53.3333 192.24 53.52C192.427 53.7067 192.52 53.9333 192.52 54.2C192.52 54.4667 192.427 54.6933 192.24 54.88C192.053 55.0667 191.827 55.16 191.56 55.16H187.92C187.813 55.16 187.76 55.22 187.76 55.34V57.14C187.76 57.2467 187.813 57.3 187.92 57.3H192.22C192.513 57.3 192.76 57.4 192.96 57.6C193.16 57.8 193.26 58.0467 193.26 58.34C193.26 58.6333 193.16 58.88 192.96 59.08C192.76 59.2667 192.513 59.36 192.22 59.36H188.28C188.16 59.36 188.127 59.4133 188.18 59.52C188.82 60.8267 190.153 61.9267 192.18 62.82C192.447 62.94 192.62 63.14 192.7 63.42C192.793 63.7 192.76 63.96 192.6 64.2C192.413 64.48 192.16 64.6733 191.84 64.78C191.533 64.8733 191.227 64.8533 190.92 64.72C189.12 63.8933 187.7 62.6867 186.66 61.1C186.633 61.0733 186.6 61.06 186.56 61.06C186.52 61.0467 186.487 61.0533 186.46 61.08C185.287 62.6933 183.733 63.9133 181.8 64.74C181.493 64.86 181.18 64.8667 180.86 64.76C180.54 64.6533 180.287 64.46 180.1 64.18C179.94 63.94 179.9 63.6867 179.98 63.42C180.073 63.14 180.253 62.9467 180.52 62.84C182.707 61.9467 184.127 60.84 184.78 59.52C184.807 59.4933 184.807 59.46 184.78 59.42C184.753 59.38 184.72 59.36 184.68 59.36H180.54C180.247 59.36 180 59.2667 179.8 59.08C179.613 58.88 179.52 58.6333 179.52 58.34C179.52 58.0467 179.613 57.8 179.8 57.6C180 57.4 180.247 57.3 180.54 57.3H185.04C185.16 57.3 185.22 57.2467 185.22 57.14V55.34C185.22 55.22 185.16 55.16 185.04 55.16H183.22C183.113 55.16 183.027 55.2133 182.96 55.32C182.8 55.5467 182.547 55.8867 182.2 56.34C182 56.5933 181.733 56.7467 181.4 56.8C181.08 56.8533 180.773 56.8 180.48 56.64C180.227 56.5067 180.073 56.2933 180.02 56C179.967 55.7067 180.033 55.4467 180.22 55.22C180.887 54.34 181.453 53.4467 181.92 52.54C181.92 52.5267 181.973 52.4533 182.08 52.32C182.133 52.24 182.107 52.2 182 52.2H179.1C178.993 52.2 178.94 52.2533 178.94 52.36V64.76C178.94 64.88 178.993 64.94 179.1 64.94H192.6C192.893 64.94 193.14 65.0467 193.34 65.26C193.553 65.46 193.66 65.7067 193.66 66C193.66 66.2933 193.553 66.54 193.34 66.74C193.14 66.9533 192.893 67.06 192.6 67.06H179.04C178.973 67.06 178.94 67.1 178.94 67.18C178.94 67.3667 178.867 67.5267 178.72 67.66C178.587 67.7933 178.427 67.86 178.24 67.86H177.54ZM198.2 57.06C197.907 57.06 197.653 56.96 197.44 56.76C197.24 56.5467 197.14 56.2933 197.14 56C197.14 55.7067 197.24 55.46 197.44 55.26C197.653 55.0467 197.907 54.94 198.2 54.94H204C204.107 54.94 204.16 54.88 204.16 54.76V53.3C204.16 53.1933 204.107 53.14 204 53.14H199.9C199.607 53.14 199.36 53.04 199.16 52.84C198.96 52.64 198.86 52.3933 198.86 52.1C198.86 51.8067 198.96 51.56 199.16 51.36C199.36 51.16 199.607 51.06 199.9 51.06H204C204.107 51.06 204.16 51.0067 204.16 50.9V50.56C204.16 50.2533 204.273 49.9933 204.5 49.78C204.727 49.5533 204.993 49.44 205.3 49.44H205.76C206.067 49.44 206.333 49.5533 206.56 49.78C206.787 49.9933 206.9 50.2533 206.9 50.56V50.9C206.9 51.0067 206.96 51.06 207.08 51.06H209.74C210.047 51.06 210.307 51.1733 210.52 51.4C210.747 51.6267 210.86 51.8933 210.86 52.2V52.32C210.86 52.3467 210.873 52.3667 210.9 52.38C210.94 52.3933 210.973 52.3867 211 52.36C211.4 51.96 211.86 51.4533 212.38 50.84C212.58 50.6 212.833 50.46 213.14 50.42C213.447 50.38 213.733 50.4467 214 50.62L214.14 50.72C214.393 50.9067 214.54 51.1533 214.58 51.46C214.633 51.7533 214.56 52.02 214.36 52.26C213.747 52.9933 212.893 53.8467 211.8 54.82C211.773 54.8333 211.767 54.86 211.78 54.9C211.807 54.9267 211.833 54.94 211.86 54.94H214.6C214.893 54.94 215.14 55.0467 215.34 55.26C215.553 55.46 215.66 55.7067 215.66 56C215.66 56.2933 215.553 56.5467 215.34 56.76C215.14 56.96 214.893 57.06 214.6 57.06H209.12C209.04 57.06 208.933 57.1 208.8 57.18C208.467 57.4067 207.847 57.8067 206.94 58.38C206.927 58.3933 206.92 58.4133 206.92 58.44C206.92 58.4533 206.933 58.46 206.96 58.46H212.84C213.147 58.46 213.407 58.5733 213.62 58.8C213.847 59.0267 213.96 59.2933 213.96 59.6V66.66C213.96 66.9667 213.847 67.2333 213.62 67.46C213.407 67.6867 213.147 67.8 212.84 67.8H211.94C211.767 67.8 211.613 67.74 211.48 67.62C211.36 67.5 211.3 67.3467 211.3 67.16C211.3 67.0933 211.267 67.06 211.2 67.06H203.4C203.333 67.06 203.3 67.0933 203.3 67.16C203.3 67.3467 203.233 67.5 203.1 67.62C202.98 67.74 202.833 67.8 202.66 67.8H201.76C201.453 67.8 201.187 67.6867 200.96 67.46C200.747 67.2333 200.64 66.9667 200.64 66.66V61.68C200.64 61.5733 200.587 61.5333 200.48 61.56C200.147 61.6933 199.647 61.88 198.98 62.12C198.673 62.2267 198.373 62.2133 198.08 62.08C197.8 61.9467 197.607 61.7333 197.5 61.44L197.44 61.24C197.333 60.9467 197.347 60.6667 197.48 60.4C197.627 60.12 197.847 59.9333 198.14 59.84C200.367 59.1333 202.467 58.24 204.44 57.16C204.467 57.1467 204.48 57.1267 204.48 57.1C204.48 57.0733 204.467 57.06 204.44 57.06H198.2ZM211.3 64.92V63.92C211.3 63.8 211.24 63.74 211.12 63.74H203.48C203.36 63.74 203.3 63.8 203.3 63.92V64.92C203.3 65.0267 203.36 65.08 203.48 65.08H211.12C211.24 65.08 211.3 65.0267 211.3 64.92ZM206.9 53.3V54.76C206.9 54.88 206.96 54.94 207.08 54.94H207.8C207.907 54.94 208.007 54.9067 208.1 54.84C208.767 54.3467 209.42 53.8133 210.06 53.24C210.087 53.2133 210.093 53.1933 210.08 53.18C210.067 53.1533 210.047 53.14 210.02 53.14H207.08C206.96 53.14 206.9 53.1933 206.9 53.3ZM211.12 60.52H203.48C203.36 60.52 203.3 60.5733 203.3 60.68V61.64C203.3 61.76 203.36 61.82 203.48 61.82H211.12C211.24 61.82 211.3 61.76 211.3 61.64V60.68C211.3 60.5733 211.24 60.52 211.12 60.52ZM221.06 54.86C220.753 54.86 220.487 54.7533 220.26 54.54C220.047 54.3133 219.94 54.0467 219.94 53.74C219.94 53.42 220.047 53.1533 220.26 52.94C220.487 52.7133 220.76 52.6 221.08 52.6C222.72 52.6 225.193 52.56 228.5 52.48C228.633 52.48 228.687 52.4267 228.66 52.32C228.62 51.96 228.58 51.58 228.54 51.18C228.513 50.8733 228.6 50.6067 228.8 50.38C229.013 50.1533 229.28 50.0267 229.6 50H229.86C230.167 49.9733 230.44 50.0667 230.68 50.28C230.933 50.4933 231.067 50.7533 231.08 51.06C231.093 51.18 231.107 51.3733 231.12 51.64C231.147 51.9067 231.167 52.1067 231.18 52.24C231.207 52.3467 231.273 52.4 231.38 52.4C232.94 52.3467 234.127 52.3 234.94 52.26C235.247 52.2467 235.513 52.3467 235.74 52.56C235.967 52.7733 236.087 53.0333 236.1 53.34C236.113 53.6467 236.007 53.92 235.78 54.16C235.567 54.3867 235.307 54.5067 235 54.52L231.76 54.64C231.653 54.64 231.613 54.7 231.64 54.82C231.973 56.14 232.533 57.48 233.32 58.84C233.467 59.0933 233.5 59.3733 233.42 59.68C233.34 59.9867 233.167 60.2067 232.9 60.34L232.52 60.52C231.907 60.84 231.247 60.8267 230.54 60.48C229.34 59.8933 228.113 59.6 226.86 59.6C225.847 59.6 225.06 59.8067 224.5 60.22C223.94 60.62 223.66 61.1667 223.66 61.86C223.66 62.78 224.073 63.4933 224.9 64C225.727 64.4933 226.96 64.74 228.6 64.74C229.613 64.74 230.86 64.6267 232.34 64.4C232.647 64.3467 232.927 64.4133 233.18 64.6C233.447 64.7733 233.607 65.0133 233.66 65.32V65.36C233.727 65.6667 233.667 65.9467 233.48 66.2C233.307 66.4533 233.067 66.6067 232.76 66.66C231.213 66.8867 229.827 67 228.6 67C226.04 67 224.133 66.52 222.88 65.56C221.627 64.6 221 63.3267 221 61.74C221 60.4067 221.507 59.34 222.52 58.54C223.533 57.74 224.94 57.34 226.74 57.34C227.887 57.34 229.02 57.56 230.14 58H230.18C230.193 57.9867 230.2 57.9733 230.2 57.96C229.747 57.04 229.387 56.02 229.12 54.9C229.093 54.7933 229.013 54.74 228.88 54.74C226.267 54.82 223.66 54.86 221.06 54.86ZM242.08 66.7C241.787 66.5933 241.573 66.3933 241.44 66.1C241.32 65.82 241.313 65.5333 241.42 65.24C243.5 59.9067 245.353 55.2133 246.98 51.16C247.1 50.8667 247.307 50.6533 247.6 50.52C247.893 50.3733 248.193 50.3467 248.5 50.44L248.72 50.5C249.013 50.5933 249.22 50.78 249.34 51.06C249.473 51.3267 249.487 51.6 249.38 51.88C248.713 53.5333 247.927 55.52 247.02 57.84V57.88H247.06C247.767 57.3867 248.433 57.14 249.06 57.14C249.927 57.14 250.613 57.4733 251.12 58.14C251.64 58.7933 252.007 59.9 252.22 61.46C252.38 62.62 252.56 63.4067 252.76 63.82C252.96 64.22 253.22 64.42 253.54 64.42C254.327 64.42 255.08 63.2333 255.8 60.86C255.893 60.5533 256.073 60.3267 256.34 60.18C256.607 60.0333 256.887 60 257.18 60.08L257.3 60.12C257.607 60.2 257.84 60.38 258 60.66C258.16 60.9267 258.193 61.2067 258.1 61.5C257.5 63.4867 256.833 64.88 256.1 65.68C255.367 66.4667 254.487 66.86 253.46 66.86C252.447 66.86 251.653 66.52 251.08 65.84C250.507 65.16 250.087 63.9733 249.82 62.28C249.647 61.2533 249.453 60.5467 249.24 60.16C249.027 59.76 248.767 59.56 248.46 59.56C247.82 59.56 247.14 60.04 246.42 61C245.7 61.96 244.82 63.6667 243.78 66.12C243.66 66.4133 243.453 66.62 243.16 66.74C242.867 66.8733 242.573 66.8867 242.28 66.78L242.08 66.7Z" fill="white"/>
</g>
<ellipse cx="3.00069" cy="32" rx="1.00069" ry="1" fill="white"/>
<ellipse cx="9.40596" cy="32" rx="1.00069" ry="1" fill="white"/>
<ellipse cx="15.8117" cy="32" rx="1.00069" ry="1" fill="white"/>
<ellipse cx="22.217" cy="32" rx="1.00069" ry="1" fill="white"/>
<ellipse cx="28.6223" cy="32" rx="1.00069" ry="1" fill="white"/>
<ellipse cx="35.0275" cy="32" rx="1.00069" ry="1" fill="white"/>
<ellipse cx="41.4328" cy="32" rx="1.00069" ry="1" fill="white"/>
<ellipse cx="47.8381" cy="32" rx="1.00069" ry="1" fill="white"/>
<ellipse cx="54.2439" cy="32" rx="1.00069" ry="1" fill="white"/>
<ellipse cx="60.6491" cy="32" rx="1.00069" ry="1" fill="white"/>
<ellipse cx="67.0544" cy="32" rx="1.00069" ry="1" fill="white"/>
<ellipse cx="73.4597" cy="32" rx="1.00069" ry="1" fill="white"/>
<ellipse cx="79.8649" cy="32" rx="1.00069" ry="1" fill="white"/>
<ellipse cx="86.2707" cy="32" rx="1.00069" ry="1" fill="white"/>
<ellipse cx="92.676" cy="32" rx="1.00069" ry="1" fill="white"/>
<ellipse cx="99.0813" cy="32" rx="1.00069" ry="1" fill="white"/>
<ellipse cx="105.487" cy="32" rx="1.00069" ry="1" fill="white"/>
<ellipse cx="111.892" cy="32" rx="1.00069" ry="1" fill="white"/>
<ellipse cx="118.297" cy="32" rx="1.00069" ry="1" fill="white"/>
<ellipse cx="124.703" cy="32" rx="1.00069" ry="1" fill="white"/>
<ellipse cx="131.108" cy="32" rx="1.00069" ry="1" fill="white"/>
<ellipse cx="137.513" cy="32" rx="1.00069" ry="1" fill="white"/>
<ellipse cx="143.919" cy="32" rx="1.00069" ry="1" fill="white"/>
<ellipse cx="150.324" cy="32" rx="1.00069" ry="1" fill="white"/>
<ellipse cx="156.73" cy="32" rx="1.00069" ry="1" fill="white"/>
<ellipse cx="163.135" cy="32" rx="1.00069" ry="1" fill="white"/>
<ellipse cx="169.54" cy="32" rx="1.00069" ry="1" fill="white"/>
<ellipse cx="175.946" cy="32" rx="1.00069" ry="1" fill="white"/>
<ellipse cx="182.351" cy="32" rx="1.00069" ry="1" fill="white"/>
<ellipse cx="188.757" cy="32" rx="1.00069" ry="1" fill="white"/>
<ellipse cx="195.162" cy="32" rx="1.00069" ry="1" fill="white"/>
<ellipse cx="201.567" cy="32" rx="1.00069" ry="1" fill="white"/>
<ellipse cx="207.973" cy="32" rx="1.00069" ry="1" fill="white"/>
<ellipse cx="214.378" cy="32" rx="1.00069" ry="1" fill="white"/>
<ellipse cx="220.783" cy="32" rx="1.00069" ry="1" fill="white"/>
<ellipse cx="227.189" cy="32" rx="1.00069" ry="1" fill="white"/>
<ellipse cx="233.594" cy="32" rx="1.00069" ry="1" fill="white"/>
<ellipse cx="239.999" cy="32" rx="1.00069" ry="1" fill="white"/>
<g filter="url(#filter1_d_1_3566)">
<path d="M7.56 7.14C7.81333 7.32667 7.96 7.57333 8 7.88C8.05333 8.17333 7.98 8.44 7.78 8.68C6.68667 10 5.51333 11.08 4.26 11.92C4.02 12.08 3.76 12.1133 3.48 12.02C3.21333 11.9133 3.02667 11.72 2.92 11.44L2.86 11.28C2.75333 10.9733 2.74667 10.66 2.84 10.34C2.94667 10.02 3.13333 9.76667 3.4 9.58C4.28 8.94 5.12 8.18 5.92 7.3C6.13333 7.07333 6.39333 6.94 6.7 6.9C7.00667 6.86 7.28667 6.93333 7.54 7.12L7.56 7.14ZM16.7 9.56C16.3933 9.56 16.1267 9.45333 15.9 9.24C15.6733 9.01333 15.56 8.74667 15.56 8.44C15.56 8.13333 15.6733 7.86667 15.9 7.64C16.1267 7.41333 16.3933 7.3 16.7 7.3H20.2C20.5067 7.3 20.7733 7.41333 21 7.64C21.2267 7.86667 21.34 8.13333 21.34 8.44C21.34 8.74667 21.2267 9.01333 21 9.24C20.7733 9.45333 20.5067 9.56 20.2 9.56H16.7ZM20.46 11.84C20.7667 11.84 21.0333 11.9533 21.26 12.18C21.4867 12.3933 21.6 12.6533 21.6 12.96C21.6 13.2667 21.4867 13.5333 21.26 13.76C21.0333 13.9867 20.7667 14.1 20.46 14.1H20.44C20.32 14.1 20.26 14.1533 20.26 14.26V21.36C20.26 22.16 20.2333 22.7533 20.18 23.14C20.14 23.5267 20 23.8467 19.76 24.1C19.5333 24.3533 19.24 24.5067 18.88 24.56C18.5333 24.6133 17.9867 24.64 17.24 24.64C17.1333 24.64 16.7733 24.6267 16.16 24.6C15.84 24.5733 15.5667 24.4467 15.34 24.22C15.1133 23.9933 14.9867 23.72 14.96 23.4C14.9333 23.08 15.0467 22.8067 15.3 22.58C15.34 22.54 15.34 22.52 15.3 22.52C13.3533 22.8667 11.16 23.16 8.72 23.4C8.41333 23.4267 8.14 23.34 7.9 23.14C7.67333 22.9533 7.55333 22.7067 7.54 22.4C7.51333 22.0933 7.6 21.82 7.8 21.58C8.01333 21.34 8.27333 21.2067 8.58 21.18C9.42 21.1 10.06 21.0333 10.5 20.98C10.62 20.9533 10.68 20.8867 10.68 20.78V18.92C10.68 18.8 10.62 18.74 10.5 18.74H9.14C8.86 18.74 8.62 18.6467 8.42 18.46C8.23333 18.26 8.14 18.02 8.14 17.74C8.14 17.46 8.23333 17.2267 8.42 17.04C8.62 16.84 8.86 16.74 9.14 16.74H10.5C10.62 16.74 10.68 16.68 10.68 16.56V16.52C10.68 16.2133 10.7867 15.9467 11 15.72C11.2267 15.4933 11.4933 15.38 11.8 15.38H12.12C12.4267 15.38 12.6933 15.4933 12.92 15.72C13.1467 15.9467 13.26 16.2133 13.26 16.52V16.56C13.26 16.68 13.3133 16.74 13.42 16.74H14.72C15 16.74 15.24 16.84 15.44 17.04C15.64 17.2267 15.74 17.46 15.74 17.74C15.74 18.02 15.64 18.26 15.44 18.46C15.24 18.6467 15 18.74 14.72 18.74H13.42C13.3133 18.74 13.26 18.8 13.26 18.92V20.44C13.26 20.56 13.3133 20.6067 13.42 20.58C13.54 20.5667 13.8133 20.5267 14.24 20.46C14.68 20.3933 15.0133 20.34 15.24 20.3C15.5333 20.2467 15.7933 20.3133 16.02 20.5C16.2467 20.6733 16.3733 20.9067 16.4 21.2C16.44 21.64 16.28 21.9933 15.92 22.26C15.9067 22.2867 15.92 22.3133 15.96 22.34H16.02C16.2467 22.3533 16.5067 22.36 16.8 22.36C17.2133 22.36 17.4533 22.32 17.52 22.24C17.6 22.16 17.64 21.8933 17.64 21.44V14.26C17.64 14.1533 17.58 14.1 17.46 14.1H16.44C16.0933 14.1 15.82 13.9867 15.62 13.76C15.5667 13.7067 15.54 13.7133 15.54 13.78V13.84C15.54 14.1333 15.4333 14.3867 15.22 14.6C15.02 14.8133 14.7667 14.92 14.46 14.92H9.24C8.94667 14.92 8.69333 14.8133 8.48 14.6C8.26667 14.3867 8.16 14.1333 8.16 13.84C8.16 13.8133 8.14667 13.8 8.12 13.8C8.10667 13.7867 8.09333 13.7867 8.08 13.8C7.76 14.2667 7.34667 14.8133 6.84 15.44C6.76 15.52 6.72 15.6267 6.72 15.76V23.74C6.72 24.0467 6.60667 24.3067 6.38 24.52C6.16667 24.7467 5.90667 24.86 5.6 24.86H5.24C4.93333 24.86 4.66667 24.7467 4.44 24.52C4.21333 24.3067 4.1 24.0467 4.1 23.74V18.06C4.1 18.0333 4.08667 18.0133 4.06 18C4.04667 17.9867 4.02667 17.9933 4 18.02L3.66 18.36C3.47333 18.5333 3.26 18.5867 3.02 18.52C2.79333 18.44 2.64667 18.2733 2.58 18.02L2.46 17.52C2.28667 16.8 2.5 16.1933 3.1 15.7C4.28667 14.7267 5.34667 13.5733 6.28 12.24C6.46667 11.9733 6.71333 11.7933 7.02 11.7C7.32667 11.6067 7.63333 11.6267 7.94 11.76L8 11.78C8.21333 11.8733 8.37333 12.02 8.48 12.22C8.58667 12.42 8.62667 12.6267 8.6 12.84C8.6 12.9333 8.64 12.9533 8.72 12.9C8.90667 12.8067 9.08 12.76 9.24 12.76H10.5C10.62 12.76 10.68 12.7067 10.68 12.6V10.72C10.68 10.6 10.62 10.54 10.5 10.54H9.68C9.4 10.54 9.16 10.4467 8.96 10.26C8.76 10.06 8.66 9.82 8.66 9.54C8.66 9.26 8.76 9.02667 8.96 8.84C9.16 8.64 9.4 8.54 9.68 8.54H10.5C10.62 8.54 10.68 8.48 10.68 8.36V7.84C10.68 7.53333 10.7867 7.26667 11 7.04C11.2267 6.81333 11.4933 6.7 11.8 6.7H12.12C12.4267 6.7 12.6933 6.81333 12.92 7.04C13.1467 7.26667 13.26 7.53333 13.26 7.84V8.36C13.26 8.48 13.3133 8.54 13.42 8.54H14.2C14.48 8.54 14.7133 8.64 14.9 8.84C15.1 9.02667 15.2 9.26 15.2 9.54C15.2 9.82 15.1 10.06 14.9 10.26C14.7133 10.4467 14.48 10.54 14.2 10.54H13.42C13.3133 10.54 13.26 10.6 13.26 10.72V12.6C13.26 12.7067 13.3133 12.76 13.42 12.76H14.46C14.7133 12.76 14.96 12.8667 15.2 13.08C15.2267 13.1067 15.2467 13.1133 15.26 13.1C15.2867 13.0867 15.3 13.0667 15.3 13.04V12.96C15.3 12.6533 15.4133 12.3933 15.64 12.18C15.8667 11.9533 16.1333 11.84 16.44 11.84H20.46ZM32.42 10.74C30.86 11.0733 29.6333 11.7867 28.74 12.88C27.8467 13.96 27.4 15.2867 27.4 16.86C27.4 17.8733 27.6067 18.7733 28.02 19.56C28.4333 20.3467 28.8267 20.74 29.2 20.74C29.3867 20.74 29.58 20.6533 29.78 20.48C29.98 20.2933 30.2 19.9667 30.44 19.5C30.6933 19.02 30.9333 18.4267 31.16 17.72C31.4 17 31.64 16.0533 31.88 14.88C32.1333 13.6933 32.36 12.36 32.56 10.88C32.5733 10.84 32.56 10.8067 32.52 10.78C32.4933 10.74 32.46 10.7267 32.42 10.74ZM29.2 23.26C28.12 23.26 27.1267 22.64 26.22 21.4C25.3133 20.16 24.86 18.6467 24.86 16.86C24.86 14.2733 25.74 12.1733 27.5 10.56C29.26 8.94667 31.56 8.14 34.4 8.14C36.6933 8.14 38.5867 8.86 40.08 10.3C41.5867 11.74 42.34 13.5733 42.34 15.8C42.34 17.8933 41.8533 19.62 40.88 20.98C39.92 22.3267 38.6 23.1867 36.92 23.56C36.6 23.6267 36.3067 23.5667 36.04 23.38C35.7867 23.1933 35.6267 22.94 35.56 22.62L35.52 22.44C35.4533 22.1467 35.5067 21.8733 35.68 21.62C35.8533 21.3667 36.0867 21.1933 36.38 21.1C38.66 20.3933 39.8 18.6267 39.8 15.8C39.8 14.44 39.3933 13.2933 38.58 12.36C37.78 11.4133 36.7267 10.8333 35.42 10.62C35.3 10.5933 35.2267 10.64 35.2 10.76C34.9333 12.7733 34.6333 14.5267 34.3 16.02C33.9667 17.5 33.6133 18.7 33.24 19.62C32.88 20.5267 32.4733 21.26 32.02 21.82C31.5667 22.3667 31.12 22.7467 30.68 22.96C30.24 23.16 29.7467 23.26 29.2 23.26ZM56.18 15.6L56.16 15.64L56.14 15.68C56.1133 15.7867 56.16 15.84 56.28 15.84H61.54C61.8467 15.84 62.1067 15.9533 62.32 16.18C62.5467 16.3933 62.66 16.6533 62.66 16.96V23.64C62.66 23.9467 62.5467 24.2067 62.32 24.42C62.1067 24.6467 61.8467 24.76 61.54 24.76H60.64C60.4533 24.76 60.3 24.7 60.18 24.58C60.06 24.46 60 24.3067 60 24.12C60 24.0667 59.9667 24.04 59.9 24.04H50.7C50.6333 24.04 50.6 24.0667 50.6 24.12C50.6 24.3067 50.54 24.46 50.42 24.58C50.3 24.7 50.1467 24.76 49.96 24.76H49.06C48.7533 24.76 48.4867 24.6467 48.26 24.42C48.0467 24.2067 47.94 23.9467 47.94 23.64V16.96C47.94 16.6533 48.0467 16.3933 48.26 16.18C48.4867 15.9533 48.7533 15.84 49.06 15.84H53.12C53.2133 15.84 53.2867 15.78 53.34 15.66C53.3533 15.62 53.3667 15.56 53.38 15.48C53.4067 15.3867 53.4267 15.32 53.44 15.28C53.5333 14.9733 53.7133 14.7267 53.98 14.54C54.2467 14.3533 54.54 14.28 54.86 14.32L55.34 14.38C55.6467 14.42 55.88 14.56 56.04 14.8C56.2133 15.04 56.26 15.3067 56.18 15.6ZM60 21.88V21.06C60 20.94 59.94 20.88 59.82 20.88H50.78C50.66 20.88 50.6 20.94 50.6 21.06V21.88C50.6 21.9867 50.66 22.04 50.78 22.04H59.82C59.94 22.04 60 21.9867 60 21.88ZM59.82 17.84H50.78C50.66 17.84 50.6 17.9 50.6 18.02V18.84C50.6 18.96 50.66 19.02 50.78 19.02H59.82C59.94 19.02 60 18.96 60 18.84V18.02C60 17.9 59.94 17.84 59.82 17.84ZM47 15.34C46.7067 15.3667 46.44 15.2867 46.2 15.1C45.9733 14.9133 45.8467 14.6667 45.82 14.36C45.7933 14.0667 45.8733 13.8067 46.06 13.58C46.2467 13.3533 46.4867 13.2267 46.78 13.2C46.8733 13.1867 47.02 13.1733 47.22 13.16C47.42 13.1333 47.5733 13.1133 47.68 13.1C47.7867 13.0733 47.84 13.0067 47.84 12.9V8.16C47.84 7.85333 47.9533 7.59333 48.18 7.38C48.4067 7.15333 48.6733 7.04 48.98 7.04H49.38C49.6867 7.04 49.9533 7.15333 50.18 7.38C50.4067 7.59333 50.52 7.85333 50.52 8.16V8.32C50.52 8.44 50.5733 8.5 50.68 8.5H53.84C54.1333 8.5 54.38 8.60667 54.58 8.82C54.78 9.02 54.88 9.26667 54.88 9.56C54.88 9.85333 54.78 10.1 54.58 10.3C54.38 10.5 54.1333 10.6 53.84 10.6H50.68C50.5733 10.6 50.52 10.66 50.52 10.78V12.54C50.52 12.66 50.5733 12.7067 50.68 12.68C51.3867 12.5733 52.4467 12.3867 53.86 12.12C54.14 12.0533 54.4 12.1067 54.64 12.28C54.88 12.44 55.0133 12.6667 55.04 12.96C55.0667 13.2667 54.9933 13.5467 54.82 13.8C54.6467 14.0533 54.4133 14.2067 54.12 14.26C51.72 14.7533 49.3467 15.1133 47 15.34ZM64.2 12.02C64.08 13.2867 63.88 14.08 63.6 14.4C63.32 14.7067 62.7067 14.88 61.76 14.92C60.96 14.9467 60.3467 14.96 59.92 14.96C59.4133 14.96 58.8 14.9467 58.08 14.92C57.0667 14.88 56.4333 14.78 56.18 14.62C55.94 14.46 55.82 14.0867 55.82 13.5V8.16C55.82 7.85333 55.9267 7.59333 56.14 7.38C56.3667 7.15333 56.6333 7.04 56.94 7.04H57.34C57.6467 7.04 57.9133 7.15333 58.14 7.38C58.3667 7.59333 58.48 7.85333 58.48 8.16V8.84C58.48 8.96 58.5333 9.00667 58.64 8.98C59.76 8.67333 61.02 8.24667 62.42 7.7C62.7 7.58 62.98 7.57333 63.26 7.68C63.5533 7.78667 63.76 7.98 63.88 8.26C64 8.52667 64.0067 8.8 63.9 9.08C63.7933 9.36 63.6 9.55333 63.32 9.66C61.7067 10.2867 60.1533 10.7733 58.66 11.12C58.54 11.1467 58.48 11.2133 58.48 11.32V12.4C58.48 12.6 58.5 12.72 58.54 12.76C58.58 12.7867 58.7333 12.8133 59 12.84C59.1867 12.8533 59.5133 12.86 59.98 12.86C60.4333 12.86 60.7667 12.8533 60.98 12.84C61.2067 12.8267 61.36 12.8067 61.44 12.78C61.52 12.74 61.5867 12.6467 61.64 12.5C61.7067 12.3533 61.76 12.1067 61.8 11.76C61.8267 11.44 61.9533 11.1867 62.18 11C62.42 10.8 62.6933 10.72 63 10.76L63.16 10.78C63.48 10.82 63.74 10.96 63.94 11.2C64.14 11.44 64.2267 11.7133 64.2 12.02ZM69.86 11.86C69.5533 11.86 69.2867 11.7533 69.06 11.54C68.8467 11.3133 68.74 11.0467 68.74 10.74C68.74 10.42 68.8467 10.1533 69.06 9.94C69.2867 9.71333 69.56 9.6 69.88 9.6C71.52 9.6 73.9933 9.56 77.3 9.48C77.4333 9.48 77.4867 9.42667 77.46 9.32C77.42 8.96 77.38 8.58 77.34 8.18C77.3133 7.87333 77.4 7.60667 77.6 7.38C77.8133 7.15333 78.08 7.02667 78.4 7H78.66C78.9667 6.97333 79.24 7.06667 79.48 7.28C79.7333 7.49333 79.8667 7.75333 79.88 8.06C79.8933 8.18 79.9067 8.37333 79.92 8.64C79.9467 8.90667 79.9667 9.10667 79.98 9.24C80.0067 9.34667 80.0733 9.4 80.18 9.4C81.74 9.34667 82.9267 9.3 83.74 9.26C84.0467 9.24667 84.3133 9.34667 84.54 9.56C84.7667 9.77333 84.8867 10.0333 84.9 10.34C84.9133 10.6467 84.8067 10.92 84.58 11.16C84.3667 11.3867 84.1067 11.5067 83.8 11.52L80.56 11.64C80.4533 11.64 80.4133 11.7 80.44 11.82C80.7733 13.14 81.3333 14.48 82.12 15.84C82.2667 16.0933 82.3 16.3733 82.22 16.68C82.14 16.9867 81.9667 17.2067 81.7 17.34L81.32 17.52C80.7067 17.84 80.0467 17.8267 79.34 17.48C78.14 16.8933 76.9133 16.6 75.66 16.6C74.6467 16.6 73.86 16.8067 73.3 17.22C72.74 17.62 72.46 18.1667 72.46 18.86C72.46 19.78 72.8733 20.4933 73.7 21C74.5267 21.4933 75.76 21.74 77.4 21.74C78.4133 21.74 79.66 21.6267 81.14 21.4C81.4467 21.3467 81.7267 21.4133 81.98 21.6C82.2467 21.7733 82.4067 22.0133 82.46 22.32V22.36C82.5267 22.6667 82.4667 22.9467 82.28 23.2C82.1067 23.4533 81.8667 23.6067 81.56 23.66C80.0133 23.8867 78.6267 24 77.4 24C74.84 24 72.9333 23.52 71.68 22.56C70.4267 21.6 69.8 20.3267 69.8 18.74C69.8 17.4067 70.3067 16.34 71.32 15.54C72.3333 14.74 73.74 14.34 75.54 14.34C76.6867 14.34 77.82 14.56 78.94 15H78.98C78.9933 14.9867 79 14.9733 79 14.96C78.5467 14.04 78.1867 13.02 77.92 11.9C77.8933 11.7933 77.8133 11.74 77.68 11.74C75.0667 11.82 72.46 11.86 69.86 11.86ZM96.2 21.94C97.08 21.94 97.6867 21.7933 98.02 21.5C98.3533 21.1933 98.5267 20.6267 98.54 19.8C98.54 19.6933 98.4867 19.62 98.38 19.58C97.66 19.3 97.02 19.16 96.46 19.16C95.6733 19.16 95.1067 19.2667 94.76 19.48C94.4267 19.6933 94.26 20.02 94.26 20.46C94.26 20.9267 94.4267 21.2933 94.76 21.56C95.1067 21.8133 95.5867 21.94 96.2 21.94ZM91.74 11.2C91.4333 11.2 91.1667 11.0867 90.94 10.86C90.7133 10.6333 90.6 10.3667 90.6 10.06C90.6 9.75333 90.7133 9.49333 90.94 9.28C91.1667 9.05333 91.4333 8.94 91.74 8.94H98.36C98.48 8.94 98.54 8.88 98.54 8.76V8.14C98.54 7.83333 98.6467 7.56667 98.86 7.34C99.0867 7.11333 99.3533 7 99.66 7H99.94C100.247 7 100.507 7.11333 100.72 7.34C100.947 7.56667 101.06 7.83333 101.06 8.14V8.76C101.06 8.88 101.12 8.94 101.24 8.94H105.06C105.367 8.94 105.633 9.05333 105.86 9.28C106.087 9.49333 106.2 9.75333 106.2 10.06C106.2 10.3667 106.087 10.6333 105.86 10.86C105.633 11.0867 105.367 11.2 105.06 11.2H101.24C101.12 11.2 101.06 11.2533 101.06 11.36V12.76C101.06 12.88 101.12 12.94 101.24 12.94H104.36C104.667 12.94 104.927 13.0467 105.14 13.26C105.353 13.4733 105.46 13.7333 105.46 14.04C105.46 14.3467 105.353 14.6133 105.14 14.84C104.927 15.0533 104.667 15.16 104.36 15.16H101.24C101.12 15.16 101.06 15.22 101.06 15.34V18.22C101.06 18.3267 101.107 18.4133 101.2 18.48C102.4 19.1733 103.647 20.08 104.94 21.2C105.18 21.4 105.307 21.66 105.32 21.98C105.333 22.3 105.233 22.5733 105.02 22.8L104.96 22.86C104.747 23.0867 104.48 23.2067 104.16 23.22C103.853 23.2467 103.587 23.1533 103.36 22.94C102.52 22.2067 101.767 21.6 101.1 21.12C101.007 21.0533 100.947 21.0733 100.92 21.18C100.707 22.2467 100.22 23.0133 99.46 23.48C98.7133 23.96 97.6267 24.2 96.2 24.2C94.7867 24.2 93.6733 23.8667 92.86 23.2C92.06 22.5467 91.66 21.6333 91.66 20.46C91.66 19.4067 92.0267 18.56 92.76 17.92C93.5067 17.2667 94.6533 16.94 96.2 16.94C96.96 16.94 97.6867 17.04 98.38 17.24C98.4867 17.2667 98.54 17.2267 98.54 17.12V15.34C98.54 15.22 98.48 15.16 98.36 15.16H92.44C92.1333 15.16 91.8733 15.0533 91.66 14.84C91.4467 14.6267 91.34 14.3667 91.34 14.06C91.34 13.7533 91.4467 13.4933 91.66 13.28C91.8733 13.0533 92.1333 12.94 92.44 12.94H98.36C98.48 12.94 98.54 12.88 98.54 12.76V11.38C98.54 11.26 98.48 11.2 98.36 11.2H91.74ZM118.82 10.74C117.26 11.0733 116.033 11.7867 115.14 12.88C114.247 13.96 113.8 15.2867 113.8 16.86C113.8 17.8733 114.007 18.7733 114.42 19.56C114.833 20.3467 115.227 20.74 115.6 20.74C115.787 20.74 115.98 20.6533 116.18 20.48C116.38 20.2933 116.6 19.9667 116.84 19.5C117.093 19.02 117.333 18.4267 117.56 17.72C117.8 17 118.04 16.0533 118.28 14.88C118.533 13.6933 118.76 12.36 118.96 10.88C118.973 10.84 118.96 10.8067 118.92 10.78C118.893 10.74 118.86 10.7267 118.82 10.74ZM115.6 23.26C114.52 23.26 113.527 22.64 112.62 21.4C111.713 20.16 111.26 18.6467 111.26 16.86C111.26 14.2733 112.14 12.1733 113.9 10.56C115.66 8.94667 117.96 8.14 120.8 8.14C123.093 8.14 124.987 8.86 126.48 10.3C127.987 11.74 128.74 13.5733 128.74 15.8C128.74 17.8933 128.253 19.62 127.28 20.98C126.32 22.3267 125 23.1867 123.32 23.56C123 23.6267 122.707 23.5667 122.44 23.38C122.187 23.1933 122.027 22.94 121.96 22.62L121.92 22.44C121.853 22.1467 121.907 21.8733 122.08 21.62C122.253 21.3667 122.487 21.1933 122.78 21.1C125.06 20.3933 126.2 18.6267 126.2 15.8C126.2 14.44 125.793 13.2933 124.98 12.36C124.18 11.4133 123.127 10.8333 121.82 10.62C121.7 10.5933 121.627 10.64 121.6 10.76C121.333 12.7733 121.033 14.5267 120.7 16.02C120.367 17.5 120.013 18.7 119.64 19.62C119.28 20.5267 118.873 21.26 118.42 21.82C117.967 22.3667 117.52 22.7467 117.08 22.96C116.64 23.16 116.147 23.26 115.6 23.26ZM133.62 19.16C133.313 19.16 133.047 19.0533 132.82 18.84C132.607 18.6267 132.5 18.3667 132.5 18.06C132.5 17.7533 132.607 17.4933 132.82 17.28C133.047 17.0533 133.313 16.94 133.62 16.94H139.9C140.007 16.94 140.073 16.8867 140.1 16.78C140.14 16.54 140.173 16.16 140.2 15.64C140.2 15.5333 140.147 15.48 140.04 15.48C138.6 15.5867 137.1 15.6467 135.54 15.66C135.247 15.66 134.987 15.56 134.76 15.36C134.547 15.1467 134.427 14.8867 134.4 14.58C134.373 14.2867 134.46 14.0333 134.66 13.82C134.86 13.6067 135.107 13.5 135.4 13.5C139.92 13.4333 143.907 13.0133 147.36 12.24C147.667 12.1733 147.96 12.2133 148.24 12.36C148.533 12.5067 148.74 12.7267 148.86 13.02L148.88 13.08C148.987 13.36 148.967 13.6333 148.82 13.9C148.687 14.1667 148.473 14.3333 148.18 14.4C146.513 14.76 144.827 15.0333 143.12 15.22C143 15.2467 142.94 15.3 142.94 15.38C142.927 15.74 142.88 16.2067 142.8 16.78C142.787 16.82 142.8 16.86 142.84 16.9C142.88 16.9267 142.92 16.94 142.96 16.94H149.58C149.887 16.94 150.147 17.0533 150.36 17.28C150.587 17.4933 150.7 17.7533 150.7 18.06C150.7 18.3667 150.587 18.6267 150.36 18.84C150.147 19.0533 149.887 19.16 149.58 19.16H143.5C143.46 19.16 143.427 19.18 143.4 19.22C143.387 19.26 143.393 19.2933 143.42 19.32C144.3 20.6667 146.307 21.6067 149.44 22.14C149.72 22.1933 149.927 22.3467 150.06 22.6C150.207 22.84 150.233 23.0933 150.14 23.36L150.06 23.58C149.94 23.8867 149.733 24.12 149.44 24.28C149.16 24.44 148.86 24.4867 148.54 24.42C146.953 24.0733 145.553 23.5667 144.34 22.9C143.127 22.22 142.187 21.4533 141.52 20.6C141.453 20.5333 141.393 20.54 141.34 20.62C140.02 22.4733 137.8 23.74 134.68 24.42C134.36 24.4867 134.053 24.44 133.76 24.28C133.467 24.12 133.26 23.8867 133.14 23.58L133.06 23.36C132.953 23.0933 132.973 22.8333 133.12 22.58C133.267 22.3267 133.487 22.1733 133.78 22.12C135.207 21.8533 136.353 21.5 137.22 21.06C138.1 20.62 138.773 20.0333 139.24 19.3C139.253 19.2733 139.247 19.2467 139.22 19.22C139.207 19.18 139.18 19.16 139.14 19.16H133.62ZM148.1 10.24C147.993 10.24 147.953 10.2933 147.98 10.4C148.087 10.6933 148.073 10.9733 147.94 11.24C147.807 11.5067 147.593 11.68 147.3 11.76L147.1 11.82C146.793 11.9 146.493 11.8667 146.2 11.72C145.92 11.5733 145.727 11.3533 145.62 11.06C145.593 10.9933 145.547 10.8867 145.48 10.74C145.427 10.5933 145.387 10.4867 145.36 10.42C145.307 10.3 145.227 10.24 145.12 10.24H144.64C144.533 10.24 144.447 10.2867 144.38 10.38C144.1 10.7267 143.733 11.1267 143.28 11.58C143.053 11.8067 142.773 11.9267 142.44 11.94C142.12 11.94 141.833 11.8333 141.58 11.62L141.32 11.42C141.147 11.2867 141.06 11.1067 141.06 10.88C141.06 10.6533 141.14 10.4667 141.3 10.32C141.353 10.2667 141.34 10.24 141.26 10.24H139.24C139.2 10.24 139.167 10.26 139.14 10.3C139.113 10.3267 139.107 10.36 139.12 10.4C139.16 10.4933 139.247 10.72 139.38 11.08C139.487 11.36 139.473 11.6333 139.34 11.9C139.207 12.1667 138.993 12.34 138.7 12.42L138.5 12.48C138.193 12.56 137.893 12.5267 137.6 12.38C137.32 12.2333 137.12 12.0067 137 11.7C136.933 11.5267 136.76 11.0933 136.48 10.4C136.44 10.2933 136.367 10.24 136.26 10.24H136.08C135.973 10.24 135.887 10.2867 135.82 10.38C135.38 10.9933 134.967 11.5067 134.58 11.92C134.353 12.1467 134.087 12.26 133.78 12.26C133.473 12.2467 133.2 12.1267 132.96 11.9C132.747 11.6867 132.633 11.4267 132.62 11.12C132.62 10.8 132.727 10.52 132.94 10.28C133.673 9.42667 134.28 8.52 134.76 7.56C134.92 7.26667 135.14 7.04 135.42 6.88C135.713 6.72 136.013 6.66667 136.32 6.72L136.48 6.76C136.76 6.81333 136.973 6.96 137.12 7.2C137.267 7.44 137.287 7.68667 137.18 7.94C137.153 8.03333 137.187 8.08 137.28 8.08H140.74C141.047 8.08 141.307 8.19333 141.52 8.42C141.747 8.64667 141.86 8.91333 141.86 9.22V9.58C141.86 9.60667 141.873 9.62667 141.9 9.64C141.94 9.65333 141.967 9.64667 141.98 9.62C142.593 8.92667 143.1 8.22667 143.5 7.52C143.887 6.86667 144.427 6.6 145.12 6.72L145.26 6.74C145.54 6.79333 145.747 6.94667 145.88 7.2C146.027 7.44 146.04 7.68667 145.92 7.94C145.907 7.96667 145.907 8 145.92 8.04C145.947 8.06667 145.98 8.08 146.02 8.08H149.58C149.887 8.08 150.14 8.18667 150.34 8.4C150.553 8.61333 150.66 8.86667 150.66 9.16C150.66 9.45333 150.553 9.70667 150.34 9.92C150.14 10.1333 149.887 10.24 149.58 10.24H148.1ZM154.7 24.16L154.36 23.84C153.84 23.3467 153.693 22.7267 153.92 21.98C154.173 21.1667 154.347 20.2333 154.44 19.18C154.547 18.1133 154.6 16.62 154.6 14.7V13.46C154.6 13.1533 154.713 12.8933 154.94 12.68C155.167 12.4533 155.433 12.34 155.74 12.34H155.82C155.86 12.34 155.893 12.32 155.92 12.28C155.96 12.24 155.973 12.2 155.96 12.16C155.92 11.9867 155.76 11.3333 155.48 10.2C155.453 10.1067 155.393 10.06 155.3 10.06C155.033 10.06 154.807 9.96667 154.62 9.78C154.433 9.59333 154.34 9.36667 154.34 9.1V9.04C154.34 8.74667 154.433 8.5 154.62 8.3C154.82 8.1 155.067 8 155.36 8H157.36C157.48 8 157.54 7.94 157.54 7.82V7.7C157.54 7.39333 157.647 7.12667 157.86 6.9C158.087 6.67333 158.353 6.56 158.66 6.56H159.04C159.347 6.56 159.607 6.67333 159.82 6.9C160.047 7.12667 160.16 7.39333 160.16 7.7V7.82C160.16 7.94 160.22 8 160.34 8H162.16C162.453 8 162.7 8.1 162.9 8.3C162.913 8.32667 162.933 8.34 162.96 8.34C162.987 8.32667 163 8.30667 163 8.28V8.26C163 7.95333 163.107 7.69333 163.32 7.48C163.533 7.26667 163.793 7.16 164.1 7.16H171.48C171.773 7.16 172.027 7.26667 172.24 7.48C172.453 7.69333 172.56 7.95333 172.56 8.26C172.56 8.56667 172.453 8.82667 172.24 9.04C172.027 9.24 171.773 9.34 171.48 9.34H169.1C168.993 9.34 168.927 9.4 168.9 9.52C168.86 9.69333 168.8 9.94 168.72 10.26C168.693 10.38 168.733 10.44 168.84 10.44H170.96C171.267 10.44 171.533 10.5533 171.76 10.78C171.987 10.9933 172.1 11.2533 172.1 11.56V19.8C172.1 20.1067 171.987 20.3733 171.76 20.6C171.533 20.8267 171.267 20.94 170.96 20.94H166.22H164.94C164.633 20.94 164.367 20.8267 164.14 20.6C163.913 20.3733 163.8 20.1067 163.8 19.8V11.56C163.8 11.2533 163.913 10.9933 164.14 10.78C164.367 10.5533 164.633 10.44 164.94 10.44H165.86C165.98 10.44 166.053 10.38 166.08 10.26C166.16 9.94 166.22 9.69333 166.26 9.52C166.287 9.4 166.247 9.34 166.14 9.34H164.1C163.753 9.34 163.48 9.22667 163.28 9C163.227 8.94667 163.2 8.96 163.2 9.04V9.38C163.2 9.56667 163.133 9.72667 163 9.86C162.867 9.99333 162.707 10.06 162.52 10.06C162.453 10.06 162.407 10.0933 162.38 10.16C162.207 10.8933 162.027 11.56 161.84 12.16C161.813 12.28 161.847 12.34 161.94 12.34H162.24C162.533 12.34 162.78 12.44 162.98 12.64C163.18 12.8267 163.28 13.0667 163.28 13.36C163.28 13.6533 163.18 13.9 162.98 14.1C162.78 14.3 162.533 14.4 162.24 14.4H162.16C162.133 14.4 162.113 14.4133 162.1 14.44C162.087 14.4667 162.087 14.4867 162.1 14.5C162.18 14.58 162.233 14.6467 162.26 14.7C162.407 14.9267 162.447 15.1733 162.38 15.44C162.313 15.7067 162.167 15.9067 161.94 16.04C161.087 16.56 159.98 17.0333 158.62 17.46C158.34 17.5533 158.067 17.54 157.8 17.42C157.547 17.2867 157.36 17.08 157.24 16.8C157.133 16.56 157.133 16.32 157.24 16.08C157.36 15.84 157.547 15.68 157.8 15.6C158.947 15.2667 159.92 14.8933 160.72 14.48C160.733 14.4667 160.74 14.4533 160.74 14.44C160.74 14.4133 160.727 14.4 160.7 14.4H157.16C157.04 14.4 156.98 14.4533 156.98 14.56V16.3C156.98 17.5933 156.947 18.62 156.88 19.38C156.893 19.4067 156.913 19.42 156.94 19.42C157.073 19.2333 157.247 19.1133 157.46 19.06C158.927 18.6467 160.2 18.12 161.28 17.48C161.507 17.3467 161.747 17.3133 162 17.38C162.267 17.4333 162.467 17.5733 162.6 17.8C162.747 18.04 162.787 18.3 162.72 18.58C162.653 18.8467 162.507 19.0533 162.28 19.2C161.093 19.96 159.76 20.5733 158.28 21.04C158 21.1333 157.727 21.1133 157.46 20.98C157.193 20.8467 156.993 20.6467 156.86 20.38C156.847 20.3667 156.827 20.36 156.8 20.36C156.787 20.36 156.78 20.3667 156.78 20.38C156.633 21.6467 156.36 22.82 155.96 23.9C155.867 24.1533 155.68 24.3067 155.4 24.36C155.133 24.4133 154.9 24.3467 154.7 24.16ZM169.58 18.78V18.02C169.58 17.9 169.527 17.84 169.42 17.84H166.38C166.273 17.84 166.22 17.9 166.22 18.02V18.78C166.22 18.9 166.273 18.96 166.38 18.96H169.42C169.527 18.96 169.58 18.9 169.58 18.78ZM169.58 16.02V15.28C169.58 15.1733 169.527 15.12 169.42 15.12H166.38C166.273 15.12 166.22 15.1733 166.22 15.28V16.02C166.22 16.1267 166.273 16.18 166.38 16.18H169.42C169.527 16.18 169.58 16.1267 169.58 16.02ZM166.38 12.42C166.273 12.42 166.22 12.4733 166.22 12.58V13.28C166.22 13.4 166.273 13.46 166.38 13.46H169.42C169.527 13.46 169.58 13.4 169.58 13.28V12.58C169.58 12.4733 169.527 12.42 169.42 12.42H166.38ZM158 10.06C157.96 10.06 157.92 10.08 157.88 10.12C157.853 10.16 157.847 10.2 157.86 10.24C158.073 11.0933 158.227 11.7333 158.32 12.16C158.347 12.28 158.413 12.34 158.52 12.34H159.32C159.427 12.34 159.5 12.2867 159.54 12.18C159.78 11.42 159.967 10.7667 160.1 10.22C160.127 10.1133 160.08 10.06 159.96 10.06H158ZM164.5 24.48C164.207 24.6267 163.907 24.6467 163.6 24.54C163.293 24.4333 163.06 24.24 162.9 23.96C162.753 23.6933 162.727 23.42 162.82 23.14C162.913 22.86 163.093 22.6467 163.36 22.5C164.067 22.1533 164.713 21.7667 165.3 21.34C165.54 21.1667 165.813 21.1 166.12 21.14C166.427 21.18 166.667 21.32 166.84 21.56C167.027 21.8133 167.1 22.1 167.06 22.42C167.033 22.7267 166.893 22.9733 166.64 23.16C166.013 23.64 165.3 24.08 164.5 24.48ZM172.04 22.5C172.293 22.6733 172.447 22.9133 172.5 23.22C172.567 23.54 172.513 23.8333 172.34 24.1C172.18 24.3533 171.953 24.5133 171.66 24.58C171.367 24.6467 171.1 24.5933 170.86 24.42C170.073 23.8867 169.367 23.4467 168.74 23.1C168.473 22.9533 168.3 22.7467 168.22 22.48C168.153 22.2 168.193 21.9267 168.34 21.66C168.5 21.3933 168.727 21.2133 169.02 21.12C169.313 21.0267 169.6 21.0533 169.88 21.2C170.693 21.6133 171.413 22.0467 172.04 22.5ZM163.1 20.96C163.247 21.1867 163.3 21.44 163.26 21.72C163.22 22 163.093 22.22 162.88 22.38C161.533 23.3533 159.88 24.1333 157.92 24.72C157.627 24.8133 157.34 24.7867 157.06 24.64C156.78 24.4933 156.58 24.28 156.46 24C156.353 23.7333 156.36 23.4733 156.48 23.22C156.613 22.9667 156.82 22.8 157.1 22.72C158.873 22.2133 160.42 21.54 161.74 20.7C161.967 20.5533 162.213 20.5067 162.48 20.56C162.747 20.6133 162.953 20.7467 163.1 20.96ZM177.54 11.06C177.247 11.06 176.993 10.96 176.78 10.76C176.567 10.5467 176.46 10.2933 176.46 10C176.46 9.70667 176.567 9.46 176.78 9.26C176.993 9.04667 177.247 8.94 177.54 8.94H180.6C180.693 8.94 180.767 8.88 180.82 8.76L181.18 7.8C181.287 7.49333 181.48 7.26 181.76 7.1C182.04 6.92667 182.34 6.86667 182.66 6.92L183 7C183.293 7.06667 183.513 7.22667 183.66 7.48C183.807 7.72 183.833 7.98 183.74 8.26C183.713 8.32667 183.673 8.42 183.62 8.54C183.58 8.64667 183.553 8.72 183.54 8.76C183.513 8.88 183.553 8.94 183.66 8.94H190.74C191.033 8.94 191.28 9.04667 191.48 9.26C191.693 9.46 191.8 9.70667 191.8 10C191.8 10.2933 191.693 10.5467 191.48 10.76C191.28 10.96 191.033 11.06 190.74 11.06H182.78C182.66 11.06 182.58 11.1133 182.54 11.22C182.353 11.66 182.127 12.16 181.86 12.72C181.86 12.7467 181.867 12.76 181.88 12.76H181.9C182.607 12.48 183.287 12.34 183.94 12.34C185.647 12.34 186.827 13.0867 187.48 14.58C187.52 14.6867 187.607 14.7267 187.74 14.7C188.807 14.4867 189.793 14.32 190.7 14.2C190.993 14.16 191.26 14.2333 191.5 14.42C191.74 14.6067 191.873 14.8533 191.9 15.16C191.927 15.4667 191.847 15.74 191.66 15.98C191.473 16.22 191.227 16.36 190.92 16.4C189.76 16.5733 188.867 16.7267 188.24 16.86C188.12 16.8867 188.073 16.9533 188.1 17.06C188.18 17.7667 188.227 18.3667 188.24 18.86C188.253 19.1667 188.147 19.4333 187.92 19.66C187.707 19.8867 187.447 20 187.14 20H186.74C186.433 20 186.167 19.8933 185.94 19.68C185.713 19.4533 185.593 19.1867 185.58 18.88C185.567 18.52 185.547 18.1533 185.52 17.78C185.52 17.66 185.467 17.6133 185.36 17.64C183.213 18.3867 182.14 19.1933 182.14 20.06C182.14 20.4333 182.24 20.74 182.44 20.98C182.64 21.2067 183.073 21.4 183.74 21.56C184.407 21.72 185.34 21.8 186.54 21.8C187.553 21.8 188.84 21.7 190.4 21.5C190.707 21.46 190.98 21.54 191.22 21.74C191.473 21.9267 191.613 22.1733 191.64 22.48C191.667 22.8 191.58 23.08 191.38 23.32C191.193 23.5733 190.94 23.72 190.62 23.76C189.273 23.92 187.913 24 186.54 24C184.033 24 182.227 23.7 181.12 23.1C180.013 22.5133 179.46 21.5933 179.46 20.34C179.46 18.2867 181.26 16.66 184.86 15.46C184.98 15.4333 185.013 15.3667 184.96 15.26C184.653 14.7 184.113 14.42 183.34 14.42C182.087 14.42 180.64 15.4733 179 17.58C178.8 17.8333 178.54 17.9933 178.22 18.06C177.9 18.1133 177.607 18.06 177.34 17.9L177.18 17.8C176.927 17.64 176.767 17.4133 176.7 17.12C176.633 16.8267 176.687 16.5533 176.86 16.3C178.06 14.5533 179.04 12.8667 179.8 11.24C179.813 11.2 179.807 11.16 179.78 11.12C179.767 11.08 179.74 11.06 179.7 11.06H177.54ZM213.54 12.8C213.233 12.8 212.967 12.6867 212.74 12.46C212.513 12.2333 212.4 11.9667 212.4 11.66V10.74C212.4 10.62 212.347 10.56 212.24 10.56H200.58C200.46 10.56 200.4 10.62 200.4 10.74V11.66C200.4 11.9667 200.287 12.2333 200.06 12.46C199.833 12.6867 199.567 12.8 199.26 12.8H199C198.693 12.8 198.427 12.6867 198.2 12.46C197.973 12.2333 197.86 11.9667 197.86 11.66V9.5C197.86 9.19333 197.973 8.92667 198.2 8.7C198.427 8.47333 198.693 8.36 199 8.36H204.86C204.98 8.36 205.04 8.30667 205.04 8.2V7.54C205.04 7.23333 205.147 6.96667 205.36 6.74C205.587 6.51333 205.853 6.4 206.16 6.4H206.64C206.947 6.4 207.207 6.51333 207.42 6.74C207.647 6.96667 207.76 7.23333 207.76 7.54V8.2C207.76 8.30667 207.82 8.36 207.94 8.36H213.8C214.107 8.36 214.373 8.47333 214.6 8.7C214.827 8.92667 214.94 9.19333 214.94 9.5V11.66C214.94 11.9667 214.827 12.2333 214.6 12.46C214.373 12.6867 214.107 12.8 213.8 12.8H213.54ZM198.34 16.06C198.033 16.06 197.767 15.9533 197.54 15.74C197.313 15.5133 197.2 15.2467 197.2 14.94C197.2 14.6333 197.313 14.3667 197.54 14.14C197.767 13.9133 198.033 13.8 198.34 13.8H208.3C208.407 13.8 208.46 13.74 208.46 13.62V12.46C208.46 12.1533 208.573 11.8933 208.8 11.68C209.027 11.4533 209.293 11.34 209.6 11.34H210.06C210.367 11.34 210.633 11.4533 210.86 11.68C211.087 11.8933 211.2 12.1533 211.2 12.46V13.62C211.2 13.74 211.26 13.8 211.38 13.8H214.46C214.767 13.8 215.033 13.9133 215.26 14.14C215.487 14.3667 215.6 14.6333 215.6 14.94C215.6 15.2467 215.487 15.5133 215.26 15.74C215.033 15.9533 214.767 16.06 214.46 16.06H211.38C211.26 16.06 211.2 16.12 211.2 16.24V21.5C211.2 22.0467 211.187 22.48 211.16 22.8C211.147 23.1067 211.093 23.3933 211 23.66C210.907 23.94 210.793 24.14 210.66 24.26C210.54 24.38 210.333 24.48 210.04 24.56C209.747 24.6533 209.433 24.7067 209.1 24.72C208.78 24.7467 208.327 24.76 207.74 24.76C207.207 24.76 206.4 24.74 205.32 24.7C205 24.6867 204.727 24.5667 204.5 24.34C204.287 24.1267 204.167 23.86 204.14 23.54C204.113 23.2333 204.207 22.9733 204.42 22.76C204.647 22.5333 204.907 22.4267 205.2 22.44C206.16 22.48 206.847 22.5 207.26 22.5C207.847 22.5 208.193 22.46 208.3 22.38C208.407 22.2867 208.46 22.0133 208.46 21.56V16.24C208.46 16.12 208.407 16.06 208.3 16.06H198.34ZM203.9 21.52C203.647 21.7067 203.367 21.7867 203.06 21.76C202.753 21.72 202.5 21.58 202.3 21.34C201.62 20.5133 200.927 19.7 200.22 18.9C200.02 18.6867 199.927 18.4267 199.94 18.12C199.953 17.8133 200.08 17.5667 200.32 17.38L200.52 17.22C200.773 17.02 201.06 16.9333 201.38 16.96C201.713 16.9733 201.987 17.1 202.2 17.34C202.893 18.1 203.593 18.9133 204.3 19.78C204.5 20.02 204.58 20.3 204.54 20.62C204.5 20.9267 204.353 21.1733 204.1 21.36L203.9 21.52ZM228.42 21.84C228.607 21.3867 228.7 21.02 228.7 20.74C228.7 20.3267 228.54 20.0133 228.22 19.8C227.9 19.5733 227.327 19.46 226.5 19.46C225.833 19.46 225.32 19.5733 224.96 19.8C224.613 20.0133 224.44 20.28 224.44 20.6C224.44 21.5333 225.573 22 227.84 22H228.2C228.293 22 228.367 21.9467 228.42 21.84ZM221.78 17.28C221.513 17.4 221.247 17.4133 220.98 17.32C220.727 17.2267 220.533 17.0533 220.4 16.8C220.267 16.5467 220.24 16.28 220.32 16C220.4 15.7067 220.567 15.4867 220.82 15.34L229.26 10.24L229.28 10.22L229.26 10.2H222.4C222.107 10.2 221.847 10.0933 221.62 9.88C221.407 9.66667 221.3 9.40667 221.3 9.1C221.3 8.79333 221.407 8.53333 221.62 8.32C221.847 8.10667 222.107 8 222.4 8H232.9C233.207 8 233.473 8.11333 233.7 8.34C233.94 8.55333 234.06 8.81333 234.06 9.12C234.087 9.85333 233.76 10.4133 233.08 10.8L227.5 13.9V13.92H227.54C228.42 13.7467 229.227 13.66 229.96 13.66C231.867 13.66 233.307 14.0533 234.28 14.84C235.267 15.6267 235.76 16.7467 235.76 18.2C235.76 20.0933 235.073 21.56 233.7 22.6C232.327 23.6267 230.373 24.14 227.84 24.14C225.853 24.14 224.367 23.8333 223.38 23.22C222.393 22.62 221.9 21.7467 221.9 20.6C221.9 19.72 222.32 18.98 223.16 18.38C224 17.7667 225.16 17.46 226.64 17.46C228.16 17.46 229.26 17.7133 229.94 18.22C230.62 18.7267 230.96 19.4733 230.96 20.46C230.96 20.7 230.927 21 230.86 21.36C230.847 21.4 230.853 21.4333 230.88 21.46C230.92 21.4733 230.953 21.4733 230.98 21.46C232.3 20.8867 232.96 19.88 232.96 18.44C232.96 17.52 232.633 16.8267 231.98 16.36C231.34 15.8933 230.313 15.66 228.9 15.66C226.513 15.66 224.14 16.2 221.78 17.28Z" fill="white"/>
</g>
<defs>
<filter id="filter0_d_1_3566" x="2.25977" y="49.3401" width="265.98" height="30.7" filterUnits="userSpaceOnUse" color-interpolation-filters="sRGB">
<feFlood flood-opacity="0" result="BackgroundImageFix"/>
<feColorMatrix in="SourceAlpha" type="matrix" values="0 0 0 0 0 0 0 0 0 0 0 0 0 0 0 0 0 0 127 0" result="hardAlpha"/>
<feOffset dx="4" dy="6"/>
<feGaussianBlur stdDeviation="3"/>
<feComposite in2="hardAlpha" operator="out"/>
<feColorMatrix type="matrix" values="0 0 0 0 0 0 0 0 0 0 0 0 0 0 0 0 0 0 0.203922 0"/>
<feBlend mode="normal" in2="BackgroundImageFix" result="effect1_dropShadow_1_3566"/>
<feBlend mode="normal" in="SourceGraphic" in2="effect1_dropShadow_1_3566" result="shape"/>
</filter>
<filter id="filter1_d_1_3566" x="0.200195" y="6.3999" width="245.56" height="30.4602" filterUnits="userSpaceOnUse" color-interpolation-filters="sRGB">
<feFlood flood-opacity="0" result="BackgroundImageFix"/>
<feColorMatrix in="SourceAlpha" type="matrix" values="0 0 0 0 0 0 0 0 0 0 0 0 0 0 0 0 0 0 127 0" result="hardAlpha"/>
<feOffset dx="4" dy="6"/>
<feGaussianBlur stdDeviation="3"/>
<feComposite in2="hardAlpha" operator="out"/>
<feColorMatrix type="matrix" values="0 0 0 0 0 0 0 0 0 0 0 0 0 0 0 0 0 0 0.203922 0"/>
<feBlend mode="normal" in2="BackgroundImageFix" result="effect1_dropShadow_1_3566"/>
<feBlend mode="normal" in="SourceGraphic" in2="effect1_dropShadow_1_3566" result="shape"/>
</filter>
</defs>
</svg>
