<svg width="422" height="119" viewBox="0 0 422 119" fill="none" xmlns="http://www.w3.org/2000/svg">
<circle cx="4" cy="117" r="2" fill="white"/>
<circle cx="14" cy="117" r="2" fill="white"/>
<circle cx="24" cy="117" r="2" fill="white"/>
<circle cx="34" cy="117" r="2" fill="white"/>
<circle cx="44" cy="117" r="2" fill="white"/>
<circle cx="54" cy="117" r="2" fill="white"/>
<circle cx="64" cy="117" r="2" fill="white"/>
<circle cx="74" cy="117" r="2" fill="white"/>
<circle cx="84" cy="117" r="2" fill="white"/>
<circle cx="94" cy="117" r="2" fill="white"/>
<circle cx="104" cy="117" r="2" fill="white"/>
<circle cx="114" cy="117" r="2" fill="white"/>
<circle cx="124" cy="117" r="2" fill="white"/>
<circle cx="134" cy="117" r="2" fill="white"/>
<circle cx="144" cy="117" r="2" fill="white"/>
<circle cx="154" cy="117" r="2" fill="white"/>
<circle cx="164" cy="117" r="2" fill="white"/>
<circle cx="174" cy="117" r="2" fill="white"/>
<circle cx="184" cy="117" r="2" fill="white"/>
<circle cx="194" cy="117" r="2" fill="white"/>
<circle cx="204" cy="117" r="2" fill="white"/>
<circle cx="214" cy="117" r="2" fill="white"/>
<circle cx="224" cy="117" r="2" fill="white"/>
<circle cx="234" cy="117" r="2" fill="white"/>
<circle cx="244" cy="117" r="2" fill="white"/>
<circle cx="254" cy="117" r="2" fill="white"/>
<circle cx="264" cy="117" r="2" fill="white"/>
<circle cx="274" cy="117" r="2" fill="white"/>
<circle cx="284" cy="117" r="2" fill="white"/>
<circle cx="294" cy="117" r="2" fill="white"/>
<circle cx="304" cy="117" r="2" fill="white"/>
<circle cx="314" cy="117" r="2" fill="white"/>
<circle cx="324" cy="117" r="2" fill="white"/>
<circle cx="334" cy="117" r="2" fill="white"/>
<circle cx="344" cy="117" r="2" fill="white"/>
<circle cx="354" cy="117" r="2" fill="white"/>
<circle cx="364" cy="117" r="2" fill="white"/>
<circle cx="374" cy="117" r="2" fill="white"/>
<circle cx="384" cy="117" r="2" fill="white"/>
<circle cx="394" cy="117" r="2" fill="white"/>
<circle cx="404" cy="117" r="2" fill="white"/>
<circle cx="414" cy="117" r="2" fill="white"/>
<g filter="url(#filter0_d_1_4164)">
<path d="M7.44 81.48C6.94933 81.48 6.52267 81.2987 6.16 80.936C5.79733 80.5733 5.616 80.1467 5.616 79.656V79.56C5.616 79.0693 5.79733 78.6427 6.16 78.28C6.52267 77.9173 6.94933 77.736 7.44 77.736H29.744C30.2347 77.736 30.6507 77.9173 30.992 78.28C31.3547 78.6427 31.536 79.0693 31.536 79.56V79.656C31.536 81.064 31.3333 82.2373 30.928 83.176C29.5627 86.3547 27.4187 88.9787 24.496 91.048C24.0693 91.3467 23.6 91.4533 23.088 91.368C22.576 91.2827 22.16 91.0267 21.84 90.6L21.552 90.184C21.2747 89.8 21.168 89.3733 21.232 88.904C21.3173 88.4347 21.5627 88.0507 21.968 87.752C24.3573 86.0453 25.9893 84.04 26.864 81.736C26.9493 81.5653 26.896 81.48 26.704 81.48H7.44ZM15.76 84.04H16.4C16.8907 84.04 17.3173 84.2213 17.68 84.584C18.0427 84.9467 18.2133 85.3733 18.192 85.864C18.0853 90.28 17.4987 93.6613 16.432 96.008C15.3653 98.3333 13.552 100.221 10.992 101.672C10.544 101.928 10.064 101.981 9.552 101.832C9.06133 101.704 8.67733 101.416 8.4 100.968L8.176 100.552C7.92 100.147 7.84533 99.72 7.952 99.272C8.08 98.8027 8.34667 98.44 8.752 98.184C10.5867 97.0747 11.888 95.624 12.656 93.832C13.424 92.0187 13.8507 89.352 13.936 85.832C13.9573 85.3413 14.1387 84.9253 14.48 84.584C14.8427 84.2213 15.2693 84.04 15.76 84.04ZM61.232 82.504C61.744 82.5253 62.1707 82.728 62.512 83.112C62.8533 83.496 63.0133 83.944 62.992 84.456C62.736 90.1093 61.4667 94.28 59.184 96.968C56.9227 99.6347 53.2853 101.352 48.272 102.12C47.76 102.205 47.2907 102.088 46.864 101.768C46.4587 101.469 46.2027 101.064 46.096 100.552C46.0107 100.083 46.1067 99.6453 46.384 99.24C46.6613 98.8347 47.0453 98.5893 47.536 98.504C51.6533 97.8 54.5653 96.4133 56.272 94.344C57.9787 92.2747 58.9387 88.904 59.152 84.232C59.1733 83.7413 59.3653 83.3253 59.728 82.984C60.0907 82.6427 60.5173 82.4827 61.008 82.504H61.232ZM43.632 90.728C43.12 88.5733 42.6933 86.8987 42.352 85.704C42.224 85.2133 42.288 84.7547 42.544 84.328C42.8 83.9013 43.1627 83.6347 43.632 83.528L43.696 83.496C44.1867 83.3893 44.6453 83.464 45.072 83.72C45.52 83.9547 45.8187 84.3173 45.968 84.808C46.3947 86.3013 46.8427 87.9867 47.312 89.864C47.44 90.3333 47.376 90.792 47.12 91.24C46.864 91.6667 46.4907 91.9333 46 92.04L45.84 92.072C45.3493 92.1787 44.88 92.104 44.432 91.848C44.0053 91.5707 43.7387 91.1973 43.632 90.728ZM52.816 91.464C52.3253 91.5707 51.8667 91.496 51.44 91.24C51.0133 90.984 50.736 90.6107 50.608 90.12C50.416 89.416 49.9573 87.6667 49.232 84.872C49.104 84.3813 49.168 83.9227 49.424 83.496C49.68 83.0693 50.0427 82.8027 50.512 82.696L50.672 82.664C51.1627 82.5573 51.632 82.632 52.08 82.888C52.528 83.144 52.816 83.5173 52.944 84.008C53.5413 86.2267 54 87.976 54.32 89.256C54.448 89.7253 54.3733 90.184 54.096 90.632C53.84 91.0587 53.4667 91.3253 52.976 91.432L52.816 91.464ZM80.176 102.696C79.6853 102.696 79.2587 102.515 78.896 102.152C78.5547 101.811 78.384 101.395 78.384 100.904V78.056C78.384 77.5653 78.5547 77.1493 78.896 76.808C79.2587 76.4453 79.6853 76.264 80.176 76.264H81.04C81.5307 76.264 81.9573 76.4453 82.32 76.808C82.6827 77.1493 82.864 77.5653 82.864 78.056V84.968C82.864 85.16 82.9387 85.2667 83.088 85.288C88.1653 86.5253 93.328 88.072 98.576 89.928C99.0453 90.0987 99.3867 90.408 99.6 90.856C99.8347 91.304 99.8667 91.7733 99.696 92.264L99.504 92.872C99.3333 93.3413 99.024 93.6827 98.576 93.896C98.1493 94.1093 97.7013 94.1413 97.232 93.992C92.176 92.2213 87.4613 90.7813 83.088 89.672C83.024 89.6507 82.9707 89.672 82.928 89.736C82.8853 89.7787 82.864 89.832 82.864 89.896V100.904C82.864 101.395 82.6827 101.811 82.32 102.152C81.9573 102.515 81.5307 102.696 81.04 102.696H80.176ZM118.576 98.632C119.195 98.632 119.557 98.568 119.664 98.44C119.771 98.2907 119.824 97.8533 119.824 97.128V83.784C119.824 83.592 119.728 83.496 119.536 83.496H110.256C109.765 83.496 109.339 83.3253 108.976 82.984C108.635 82.6213 108.464 82.1947 108.464 81.704V81.48C108.464 80.9893 108.635 80.5627 108.976 80.2C109.339 79.8373 109.765 79.656 110.256 79.656H119.536C119.728 79.656 119.824 79.5707 119.824 79.4V77.096C119.824 76.6053 119.995 76.1893 120.336 75.848C120.699 75.4853 121.125 75.304 121.616 75.304H122.416C122.907 75.304 123.333 75.4853 123.696 75.848C124.059 76.1893 124.24 76.6053 124.24 77.096V79.4C124.24 79.5707 124.336 79.656 124.528 79.656H133.104C133.595 79.656 134.011 79.8373 134.352 80.2C134.715 80.5627 134.896 80.9893 134.896 81.48V81.704C134.896 82.1947 134.715 82.6213 134.352 82.984C134.011 83.3253 133.595 83.496 133.104 83.496H124.528C124.336 83.496 124.24 83.592 124.24 83.784V97.704C124.24 99.8373 123.973 101.171 123.44 101.704C122.928 102.237 121.627 102.504 119.536 102.504C118.619 102.504 117.499 102.44 116.176 102.312C115.685 102.269 115.28 102.045 114.96 101.64C114.661 101.235 114.533 100.787 114.576 100.296V100.136C114.619 99.6453 114.832 99.24 115.216 98.92C115.621 98.6 116.069 98.4613 116.56 98.504C117.627 98.5893 118.299 98.632 118.576 98.632ZM109.072 98.568C108.624 98.376 108.315 98.0453 108.144 97.576C107.973 97.1067 107.995 96.648 108.208 96.2C109.445 93.6187 110.619 90.9947 111.728 88.328C111.92 87.8587 112.251 87.5173 112.72 87.304C113.189 87.0907 113.659 87.0587 114.128 87.208L114.608 87.368C115.077 87.5173 115.419 87.816 115.632 88.264C115.845 88.6907 115.856 89.128 115.664 89.576C114.661 92.072 113.445 94.8133 112.016 97.8C111.781 98.2693 111.429 98.6 110.96 98.792C110.512 98.9627 110.043 98.952 109.552 98.76L109.072 98.568ZM129.136 87.112C129.605 86.92 130.075 86.92 130.544 87.112C131.035 87.2827 131.387 87.6027 131.6 88.072C132.795 90.632 134.021 93.4053 135.28 96.392C135.472 96.8613 135.461 97.3307 135.248 97.8C135.056 98.248 134.725 98.5573 134.256 98.728L133.744 98.92C133.275 99.0907 132.805 99.08 132.336 98.888C131.888 98.696 131.568 98.3653 131.376 97.896C130.608 96.0187 129.403 93.2453 127.76 89.576C127.568 89.128 127.568 88.68 127.76 88.232C127.952 87.7627 128.272 87.4427 128.72 87.272L129.136 87.112ZM144.816 91.624C144.325 91.624 143.899 91.4427 143.536 91.08C143.195 90.7173 143.024 90.2907 143.024 89.8V89.16C143.024 88.6693 143.195 88.2427 143.536 87.88C143.899 87.5173 144.325 87.336 144.816 87.336H167.664C168.155 87.336 168.571 87.5173 168.912 87.88C169.275 88.2427 169.456 88.6693 169.456 89.16V89.8C169.456 90.2907 169.275 90.7173 168.912 91.08C168.571 91.4427 168.155 91.624 167.664 91.624H144.816ZM178.896 101.256C178.405 101.277 177.968 101.117 177.584 100.776C177.2 100.413 176.997 99.9867 176.976 99.496V99.304C176.955 98.8133 177.115 98.3867 177.456 98.024C177.819 97.64 178.245 97.4267 178.736 97.384C178.864 97.3627 179.056 97.352 179.312 97.352C179.568 97.352 179.76 97.3413 179.888 97.32C180.059 97.32 180.176 97.2347 180.24 97.064V97.032C182.416 91.208 184.336 84.9253 186 78.184C186.128 77.6933 186.405 77.3093 186.832 77.032C187.259 76.7547 187.717 76.6693 188.208 76.776L189.008 76.904C189.499 77.0107 189.872 77.2773 190.128 77.704C190.405 78.1093 190.491 78.5467 190.384 79.016C188.912 85.1387 187.141 91.0373 185.072 96.712C185.029 96.8827 185.093 96.968 185.264 96.968C189.339 96.6267 193.541 96.1467 197.872 95.528C198.064 95.4853 198.117 95.3787 198.032 95.208C196.88 92.7333 196.027 90.92 195.472 89.768C195.237 89.32 195.195 88.8613 195.344 88.392C195.515 87.9227 195.835 87.5813 196.304 87.368L196.912 87.112C197.381 86.8987 197.851 86.8773 198.32 87.048C198.789 87.2187 199.141 87.528 199.376 87.976C200.955 91.2613 202.651 94.92 204.464 98.952C204.677 99.4 204.688 99.848 204.496 100.296C204.304 100.744 203.973 101.064 203.504 101.256L202.832 101.544C202.363 101.736 201.893 101.736 201.424 101.544C200.976 101.352 200.645 101.021 200.432 100.552C200.411 100.531 200.336 100.381 200.208 100.104C200.08 99.8053 199.984 99.5813 199.92 99.432C199.856 99.24 199.739 99.1653 199.568 99.208C192.357 100.275 185.467 100.957 178.896 101.256ZM229.552 95.56V95.432C229.552 95.24 229.467 95.112 229.296 95.048C228.165 94.4933 227.109 94.216 226.128 94.216C224.955 94.216 224.069 94.44 223.472 94.888C222.896 95.336 222.608 95.9547 222.608 96.744C222.608 97.576 222.917 98.2267 223.536 98.696C224.155 99.1653 225.019 99.4 226.128 99.4C227.429 99.4 228.325 99.1333 228.816 98.6C229.307 98.0667 229.552 97.0533 229.552 95.56ZM237.776 79.752C238.288 79.7947 238.693 80.0187 238.992 80.424C239.312 80.8293 239.44 81.288 239.376 81.8C239.312 82.2907 239.077 82.6853 238.672 82.984C238.267 83.2827 237.819 83.4 237.328 83.336C236.133 83.1867 234.981 83.1013 233.872 83.08C233.701 83.08 233.616 83.176 233.616 83.368V93.064C233.616 93.2347 233.68 93.3733 233.808 93.48C235.259 94.376 236.795 95.528 238.416 96.936C238.8 97.256 239.003 97.672 239.024 98.184C239.045 98.696 238.885 99.1333 238.544 99.496L238.448 99.592C238.107 99.9547 237.691 100.157 237.2 100.2C236.709 100.243 236.272 100.104 235.888 99.784C235.568 99.5067 235.131 99.1547 234.576 98.728C234.021 98.28 233.701 98.024 233.616 97.96C233.488 97.8747 233.403 97.896 233.36 98.024C233.019 99.6667 232.251 100.872 231.056 101.64C229.883 102.429 228.24 102.824 226.128 102.824C223.76 102.824 221.904 102.28 220.56 101.192C219.237 100.104 218.576 98.6213 218.576 96.744C218.576 94.9093 219.227 93.4587 220.528 92.392C221.851 91.304 223.717 90.76 226.128 90.76C227.067 90.76 228.133 90.9413 229.328 91.304C229.477 91.3467 229.552 91.2827 229.552 91.112V81.16C229.552 80.6693 229.723 80.2427 230.064 79.88C230.427 79.5173 230.853 79.3467 231.344 79.368C234.075 79.4533 236.219 79.5813 237.776 79.752ZM212.464 98.344C211.995 98.1947 211.664 97.896 211.472 97.448C211.28 97 211.269 96.5413 211.44 96.072C213.061 91.9547 214.533 87.6773 215.856 83.24C215.899 83.0693 215.835 82.984 215.664 82.984H213.296C212.805 82.984 212.379 82.8027 212.016 82.44C211.675 82.0773 211.504 81.6507 211.504 81.16C211.504 80.6693 211.675 80.2427 212.016 79.88C212.379 79.5173 212.805 79.336 213.296 79.336H216.688C216.88 79.336 216.997 79.2507 217.04 79.08C217.125 78.8027 217.232 78.3867 217.36 77.832C217.488 77.2773 217.595 76.8613 217.68 76.584C217.808 76.0933 218.085 75.7093 218.512 75.432C218.939 75.1333 219.408 75.016 219.92 75.08H220.144C220.635 75.144 221.008 75.3787 221.264 75.784C221.541 76.1893 221.627 76.6267 221.52 77.096C221.307 77.992 221.147 78.6533 221.04 79.08C220.997 79.2507 221.072 79.336 221.264 79.336H224.496C224.987 79.336 225.413 79.5173 225.776 79.88C226.139 80.2427 226.32 80.6693 226.32 81.16C226.32 81.6507 226.139 82.0773 225.776 82.44C225.413 82.8027 224.987 82.984 224.496 82.984H220.272C220.08 82.984 219.963 83.08 219.92 83.272C218.597 87.9653 217.008 92.648 215.152 97.32C214.96 97.7893 214.629 98.1413 214.16 98.376C213.712 98.5893 213.243 98.6107 212.752 98.44L212.464 98.344ZM247.216 83.784C246.747 83.784 246.341 83.6133 246 83.272C245.68 82.9307 245.52 82.5253 245.52 82.056C245.52 81.5867 245.68 81.192 246 80.872C246.341 80.5307 246.747 80.36 247.216 80.36H249.68C249.851 80.36 249.936 80.264 249.936 80.072V76.904C249.936 76.4133 250.117 75.9867 250.48 75.624C250.843 75.2613 251.269 75.08 251.76 75.08H252.304C252.795 75.08 253.211 75.2613 253.552 75.624C253.915 75.9867 254.096 76.4133 254.096 76.904V80.072C254.096 80.264 254.192 80.36 254.384 80.36H257.712C257.904 80.36 258 80.264 258 80.072V76.136C258 75.6453 258.181 75.2293 258.544 74.888C258.907 74.5253 259.333 74.344 259.824 74.344H261.072C261.435 74.344 261.744 74.472 262 74.728C262.256 74.984 262.384 75.2827 262.384 75.624C262.384 75.752 262.448 75.816 262.576 75.816H270.992C271.397 75.816 271.749 75.9653 272.048 76.264C272.347 76.5627 272.496 76.9253 272.496 77.352C272.496 77.7573 272.347 78.1093 272.048 78.408C271.771 78.7067 271.419 78.856 270.992 78.856H262.64C262.469 78.856 262.384 78.952 262.384 79.144V80.072C262.384 80.264 262.469 80.36 262.64 80.36H272.624C273.093 80.36 273.488 80.5307 273.808 80.872C274.149 81.192 274.32 81.5867 274.32 82.056C274.32 82.5253 274.149 82.9307 273.808 83.272C273.488 83.6133 273.093 83.784 272.624 83.784H247.216ZM248.496 84.84C248.987 84.84 249.413 85.0213 249.776 85.384C250.139 85.7467 250.32 86.1733 250.32 86.664V99.496C250.32 99.688 250.405 99.784 250.576 99.784H269.232C269.424 99.784 269.52 99.688 269.52 99.496V86.664C269.52 86.1733 269.701 85.7467 270.064 85.384C270.427 85.0213 270.853 84.84 271.344 84.84H271.824C272.315 84.84 272.731 85.0213 273.072 85.384C273.435 85.7467 273.616 86.1733 273.616 86.664V102.44C273.616 102.931 273.435 103.357 273.072 103.72C272.731 104.083 272.315 104.264 271.824 104.264H270.576C270.299 104.264 270.053 104.157 269.84 103.944C269.627 103.731 269.52 103.475 269.52 103.176C269.52 103.069 269.467 103.016 269.36 103.016H250.48C250.373 103.016 250.32 103.069 250.32 103.176C250.32 103.475 250.213 103.731 250 103.944C249.787 104.157 249.541 104.264 249.264 104.264H248.016C247.525 104.264 247.099 104.083 246.736 103.72C246.395 103.357 246.224 102.931 246.224 102.44V86.664C246.224 86.1733 246.395 85.7467 246.736 85.384C247.099 85.0213 247.525 84.84 248.016 84.84H248.496ZM254 89.768C254.171 89.768 254.203 89.6933 254.096 89.544C253.904 89.2667 253.605 88.8827 253.2 88.392C252.816 87.88 252.592 87.5813 252.528 87.496C252.251 87.1547 252.144 86.7707 252.208 86.344C252.272 85.896 252.485 85.5547 252.848 85.32C253.232 85.064 253.659 84.968 254.128 85.032C254.619 85.096 255.003 85.3093 255.28 85.672C255.408 85.8213 255.579 86.0453 255.792 86.344C256.027 86.6427 256.165 86.824 256.208 86.888C256.507 87.2933 256.613 87.7413 256.528 88.232C256.443 88.7013 256.187 89.0747 255.76 89.352L255.376 89.608C255.333 89.6293 255.312 89.6613 255.312 89.704C255.333 89.7467 255.365 89.768 255.408 89.768H257.68C257.872 89.768 257.968 89.672 257.968 89.48V86.344C257.968 85.8533 258.139 85.4267 258.48 85.064C258.843 84.7013 259.269 84.52 259.76 84.52H260.08C260.571 84.52 260.987 84.7013 261.328 85.064C261.691 85.4267 261.872 85.8533 261.872 86.344V89.48C261.872 89.672 261.968 89.768 262.16 89.768H264.4C264.443 89.768 264.475 89.7467 264.496 89.704C264.517 89.6613 264.507 89.6293 264.464 89.608L264.08 89.352C263.675 89.0747 263.44 88.7013 263.376 88.232C263.333 87.7413 263.461 87.3147 263.76 86.952C263.803 86.888 264.101 86.4933 264.656 85.768C264.933 85.4053 265.285 85.1813 265.712 85.096C266.16 84.9893 266.576 85.0533 266.96 85.288C267.344 85.544 267.579 85.896 267.664 86.344C267.749 86.792 267.653 87.1973 267.376 87.56C266.971 88.136 266.448 88.7973 265.808 89.544C265.701 89.6933 265.733 89.768 265.904 89.768H266.992C267.397 89.768 267.749 89.9173 268.048 90.216C268.347 90.4933 268.496 90.8453 268.496 91.272C268.496 91.6987 268.347 92.0613 268.048 92.36C267.749 92.6373 267.397 92.776 266.992 92.776H264.72C264.677 92.776 264.645 92.7973 264.624 92.84C264.624 92.8613 264.645 92.8933 264.688 92.936C265.797 93.7467 266.853 94.6107 267.856 95.528C268.219 95.848 268.411 96.2427 268.432 96.712C268.453 97.1813 268.304 97.5973 267.984 97.96C267.685 98.3013 267.301 98.472 266.832 98.472C266.363 98.472 265.968 98.3013 265.648 97.96C264.795 97.064 263.611 95.9013 262.096 94.472C262.053 94.4293 262 94.4187 261.936 94.44C261.893 94.4613 261.872 94.4933 261.872 94.536V97.224C261.872 97.7147 261.691 98.1413 261.328 98.504C260.987 98.8453 260.571 99.016 260.08 99.016H259.76C259.269 99.016 258.843 98.8453 258.48 98.504C258.139 98.1413 257.968 97.7147 257.968 97.224V94.92C257.968 94.8773 257.936 94.8453 257.872 94.824C257.829 94.8027 257.797 94.8133 257.776 94.856C256.709 96.0933 255.536 97.192 254.256 98.152C253.872 98.4293 253.445 98.536 252.976 98.472C252.507 98.3867 252.123 98.1627 251.824 97.8C251.547 97.4587 251.44 97.064 251.504 96.616C251.589 96.168 251.813 95.8267 252.176 95.592C253.371 94.8027 254.512 93.928 255.6 92.968C255.643 92.8827 255.611 92.8187 255.504 92.776H252.848C252.443 92.776 252.091 92.6373 251.792 92.36C251.493 92.0613 251.344 91.6987 251.344 91.272C251.344 90.8453 251.493 90.4933 251.792 90.216C252.091 89.9173 252.443 89.768 252.848 89.768H254ZM282.864 103.976C282.373 103.976 281.947 103.795 281.584 103.432C281.221 103.091 281.04 102.675 281.04 102.184V77.32C281.04 76.8293 281.221 76.4027 281.584 76.04C281.947 75.6773 282.373 75.496 282.864 75.496H306.64C307.109 75.496 307.504 75.6667 307.824 76.008C308.165 76.3493 308.336 76.7547 308.336 77.224C308.336 77.6933 308.165 78.0987 307.824 78.44C307.504 78.76 307.109 78.92 306.64 78.92H293.744C293.616 78.92 293.573 79.0053 293.616 79.176C293.787 79.56 293.776 79.944 293.584 80.328C293.541 80.3707 293.541 80.424 293.584 80.488C293.627 80.552 293.68 80.584 293.744 80.584H305.296C305.723 80.584 306.085 80.7333 306.384 81.032C306.683 81.3307 306.832 81.6933 306.832 82.12C306.832 82.5467 306.683 82.9093 306.384 83.208C306.085 83.5067 305.723 83.656 305.296 83.656H299.472C299.301 83.656 299.216 83.752 299.216 83.944V86.824C299.216 86.9947 299.301 87.08 299.472 87.08H306.352C306.821 87.08 307.216 87.24 307.536 87.56C307.856 87.88 308.016 88.2747 308.016 88.744C308.016 89.2133 307.856 89.608 307.536 89.928C307.216 90.2267 306.821 90.376 306.352 90.376H300.048C299.856 90.376 299.803 90.4613 299.888 90.632C300.912 92.7227 303.045 94.4827 306.288 95.912C306.715 96.104 306.992 96.424 307.12 96.872C307.269 97.32 307.216 97.736 306.96 98.12C306.661 98.568 306.256 98.8773 305.744 99.048C305.253 99.1973 304.763 99.1653 304.272 98.952C301.392 97.6293 299.12 95.6987 297.456 93.16C297.413 93.1173 297.36 93.096 297.296 93.096C297.232 93.0747 297.179 93.0853 297.136 93.128C295.259 95.7093 292.773 97.6613 289.68 98.984C289.189 99.176 288.688 99.1867 288.176 99.016C287.664 98.8453 287.259 98.536 286.96 98.088C286.704 97.704 286.64 97.2987 286.768 96.872C286.917 96.424 287.205 96.1147 287.632 95.944C291.131 94.5147 293.403 92.744 294.448 90.632C294.491 90.5893 294.491 90.536 294.448 90.472C294.405 90.408 294.352 90.376 294.288 90.376H287.664C287.195 90.376 286.8 90.2267 286.48 89.928C286.181 89.608 286.032 89.2133 286.032 88.744C286.032 88.2747 286.181 87.88 286.48 87.56C286.8 87.24 287.195 87.08 287.664 87.08H294.864C295.056 87.08 295.152 86.9947 295.152 86.824V83.944C295.152 83.752 295.056 83.656 294.864 83.656H291.952C291.781 83.656 291.643 83.7413 291.536 83.912C291.28 84.2747 290.875 84.8187 290.32 85.544C290 85.9493 289.573 86.1947 289.04 86.28C288.528 86.3653 288.037 86.28 287.568 86.024C287.163 85.8107 286.917 85.4693 286.832 85C286.747 84.5307 286.853 84.1147 287.152 83.752C288.219 82.344 289.125 80.9147 289.872 79.464C289.872 79.4427 289.957 79.3253 290.128 79.112C290.213 78.984 290.171 78.92 290 78.92H285.36C285.189 78.92 285.104 79.0053 285.104 79.176V99.016C285.104 99.208 285.189 99.304 285.36 99.304H306.96C307.429 99.304 307.824 99.4747 308.144 99.816C308.485 100.136 308.656 100.531 308.656 101C308.656 101.469 308.485 101.864 308.144 102.184C307.824 102.525 307.429 102.696 306.96 102.696H285.264C285.157 102.696 285.104 102.76 285.104 102.888C285.104 103.187 284.987 103.443 284.752 103.656C284.539 103.869 284.283 103.976 283.984 103.976H282.864ZM315.92 86.696C315.451 86.696 315.045 86.536 314.704 86.216C314.384 85.8747 314.224 85.4693 314.224 85C314.224 84.5307 314.384 84.136 314.704 83.816C315.045 83.4747 315.451 83.304 315.92 83.304H325.2C325.371 83.304 325.456 83.208 325.456 83.016V80.68C325.456 80.5093 325.371 80.424 325.2 80.424H318.64C318.171 80.424 317.776 80.264 317.456 79.944C317.136 79.624 316.976 79.2293 316.976 78.76C316.976 78.2907 317.136 77.896 317.456 77.576C317.776 77.256 318.171 77.096 318.64 77.096H325.2C325.371 77.096 325.456 77.0107 325.456 76.84V76.296C325.456 75.8053 325.637 75.3893 326 75.048C326.363 74.6853 326.789 74.504 327.28 74.504H328.016C328.507 74.504 328.933 74.6853 329.296 75.048C329.659 75.3893 329.84 75.8053 329.84 76.296V76.84C329.84 77.0107 329.936 77.096 330.128 77.096H334.384C334.875 77.096 335.291 77.2773 335.632 77.64C335.995 78.0027 336.176 78.4293 336.176 78.92V79.112C336.176 79.1547 336.197 79.1867 336.24 79.208C336.304 79.2293 336.357 79.2187 336.4 79.176C337.04 78.536 337.776 77.7253 338.608 76.744C338.928 76.36 339.333 76.136 339.824 76.072C340.315 76.008 340.773 76.1147 341.2 76.392L341.424 76.552C341.829 76.8507 342.064 77.2453 342.128 77.736C342.213 78.2053 342.096 78.632 341.776 79.016C340.795 80.1893 339.429 81.5547 337.68 83.112C337.637 83.1333 337.627 83.176 337.648 83.24C337.691 83.2827 337.733 83.304 337.776 83.304H342.16C342.629 83.304 343.024 83.4747 343.344 83.816C343.685 84.136 343.856 84.5307 343.856 85C343.856 85.4693 343.685 85.8747 343.344 86.216C343.024 86.536 342.629 86.696 342.16 86.696H333.392C333.264 86.696 333.093 86.76 332.88 86.888C332.347 87.2507 331.355 87.8907 329.904 88.808C329.883 88.8293 329.872 88.8613 329.872 88.904C329.872 88.9253 329.893 88.936 329.936 88.936H339.344C339.835 88.936 340.251 89.1173 340.592 89.48C340.955 89.8427 341.136 90.2693 341.136 90.76V102.056C341.136 102.547 340.955 102.973 340.592 103.336C340.251 103.699 339.835 103.88 339.344 103.88H337.904C337.627 103.88 337.381 103.784 337.168 103.592C336.976 103.4 336.88 103.155 336.88 102.856C336.88 102.749 336.827 102.696 336.72 102.696H324.24C324.133 102.696 324.08 102.749 324.08 102.856C324.08 103.155 323.973 103.4 323.76 103.592C323.568 103.784 323.333 103.88 323.056 103.88H321.616C321.125 103.88 320.699 103.699 320.336 103.336C319.995 102.973 319.824 102.547 319.824 102.056V94.088C319.824 93.9173 319.739 93.8533 319.568 93.896C319.035 94.1093 318.235 94.408 317.168 94.792C316.677 94.9627 316.197 94.9413 315.728 94.728C315.28 94.5147 314.971 94.1733 314.8 93.704L314.704 93.384C314.533 92.9147 314.555 92.4667 314.768 92.04C315.003 91.592 315.355 91.2933 315.824 91.144C319.387 90.0133 322.747 88.584 325.904 86.856C325.947 86.8347 325.968 86.8027 325.968 86.76C325.968 86.7173 325.947 86.696 325.904 86.696H315.92ZM336.88 99.272V97.672C336.88 97.48 336.784 97.384 336.592 97.384H324.368C324.176 97.384 324.08 97.48 324.08 97.672V99.272C324.08 99.4427 324.176 99.528 324.368 99.528H336.592C336.784 99.528 336.88 99.4427 336.88 99.272ZM329.84 80.68V83.016C329.84 83.208 329.936 83.304 330.128 83.304H331.28C331.451 83.304 331.611 83.2507 331.76 83.144C332.827 82.3547 333.872 81.5013 334.896 80.584C334.939 80.5413 334.949 80.5093 334.928 80.488C334.907 80.4453 334.875 80.424 334.832 80.424H330.128C329.936 80.424 329.84 80.5093 329.84 80.68ZM336.592 92.232H324.368C324.176 92.232 324.08 92.3173 324.08 92.488V94.024C324.08 94.216 324.176 94.312 324.368 94.312H336.592C336.784 94.312 336.88 94.216 336.88 94.024V92.488C336.88 92.3173 336.784 92.232 336.592 92.232ZM352.496 83.176C352.005 83.176 351.579 83.0053 351.216 82.664C350.875 82.3013 350.704 81.8747 350.704 81.384C350.704 80.872 350.875 80.4453 351.216 80.104C351.579 79.7413 352.016 79.56 352.528 79.56C355.152 79.56 359.109 79.496 364.4 79.368C364.613 79.368 364.699 79.2827 364.656 79.112C364.592 78.536 364.528 77.928 364.464 77.288C364.421 76.7973 364.56 76.3707 364.88 76.008C365.221 75.6453 365.648 75.4427 366.16 75.4H366.576C367.067 75.3573 367.504 75.5067 367.888 75.848C368.293 76.1893 368.507 76.6053 368.528 77.096C368.549 77.288 368.571 77.5973 368.592 78.024C368.635 78.4507 368.667 78.7707 368.688 78.984C368.731 79.1547 368.837 79.24 369.008 79.24C371.504 79.1547 373.403 79.08 374.704 79.016C375.195 78.9947 375.621 79.1547 375.984 79.496C376.347 79.8373 376.539 80.2533 376.56 80.744C376.581 81.2347 376.411 81.672 376.048 82.056C375.707 82.4187 375.291 82.6107 374.8 82.632L369.616 82.824C369.445 82.824 369.381 82.92 369.424 83.112C369.957 85.224 370.853 87.368 372.112 89.544C372.347 89.9493 372.4 90.3973 372.272 90.888C372.144 91.3787 371.867 91.7307 371.44 91.944L370.832 92.232C369.851 92.744 368.795 92.7227 367.664 92.168C365.744 91.2293 363.781 90.76 361.776 90.76C360.155 90.76 358.896 91.0907 358 91.752C357.104 92.392 356.656 93.2667 356.656 94.376C356.656 95.848 357.317 96.9893 358.64 97.8C359.963 98.5893 361.936 98.984 364.56 98.984C366.181 98.984 368.176 98.8027 370.544 98.44C371.035 98.3547 371.483 98.4613 371.888 98.76C372.315 99.0373 372.571 99.4213 372.656 99.912V99.976C372.763 100.467 372.667 100.915 372.368 101.32C372.091 101.725 371.707 101.971 371.216 102.056C368.741 102.419 366.523 102.6 364.56 102.6C360.464 102.6 357.413 101.832 355.408 100.296C353.403 98.76 352.4 96.7227 352.4 94.184C352.4 92.0507 353.211 90.344 354.832 89.064C356.453 87.784 358.704 87.144 361.584 87.144C363.419 87.144 365.232 87.496 367.024 88.2H367.088C367.109 88.1787 367.12 88.1573 367.12 88.136C366.395 86.664 365.819 85.032 365.392 83.24C365.349 83.0693 365.221 82.984 365.008 82.984C360.827 83.112 356.656 83.176 352.496 83.176ZM386.128 102.12C385.659 101.949 385.317 101.629 385.104 101.16C384.912 100.712 384.901 100.253 385.072 99.784C388.4 91.2507 391.365 83.7413 393.968 77.256C394.16 76.7867 394.491 76.4453 394.96 76.232C395.429 75.9973 395.909 75.9547 396.4 76.104L396.752 76.2C397.221 76.3493 397.552 76.648 397.744 77.096C397.957 77.5227 397.979 77.96 397.808 78.408C396.741 81.0533 395.483 84.232 394.032 87.944V88.008H394.096C395.227 87.2187 396.293 86.824 397.296 86.824C398.683 86.824 399.781 87.3573 400.592 88.424C401.424 89.4693 402.011 91.24 402.352 93.736C402.608 95.592 402.896 96.8507 403.216 97.512C403.536 98.152 403.952 98.472 404.464 98.472C405.723 98.472 406.928 96.5733 408.08 92.776C408.229 92.2853 408.517 91.9227 408.944 91.688C409.371 91.4533 409.819 91.4 410.288 91.528L410.48 91.592C410.971 91.72 411.344 92.008 411.6 92.456C411.856 92.8827 411.909 93.3307 411.76 93.8C410.8 96.9787 409.733 99.208 408.56 100.488C407.387 101.747 405.979 102.376 404.336 102.376C402.715 102.376 401.445 101.832 400.528 100.744C399.611 99.656 398.939 97.7573 398.512 95.048C398.235 93.4053 397.925 92.2747 397.584 91.656C397.243 91.016 396.827 90.696 396.336 90.696C395.312 90.696 394.224 91.464 393.072 93C391.92 94.536 390.512 97.2667 388.848 101.192C388.656 101.661 388.325 101.992 387.856 102.184C387.387 102.397 386.917 102.419 386.448 102.248L386.128 102.12Z" fill="white"/>
</g>
<circle cx="4" cy="52" r="2" fill="white"/>
<circle cx="14" cy="52" r="2" fill="white"/>
<circle cx="24" cy="52" r="2" fill="white"/>
<circle cx="34" cy="52" r="2" fill="white"/>
<circle cx="44" cy="52" r="2" fill="white"/>
<circle cx="54" cy="52" r="2" fill="white"/>
<circle cx="64" cy="52" r="2" fill="white"/>
<circle cx="74" cy="52" r="2" fill="white"/>
<circle cx="84" cy="52" r="2" fill="white"/>
<circle cx="94" cy="52" r="2" fill="white"/>
<circle cx="104" cy="52" r="2" fill="white"/>
<circle cx="114" cy="52" r="2" fill="white"/>
<circle cx="124" cy="52" r="2" fill="white"/>
<circle cx="134" cy="52" r="2" fill="white"/>
<circle cx="144" cy="52" r="2" fill="white"/>
<circle cx="154" cy="52" r="2" fill="white"/>
<circle cx="164" cy="52" r="2" fill="white"/>
<circle cx="174" cy="52" r="2" fill="white"/>
<circle cx="184" cy="52" r="2" fill="white"/>
<circle cx="194" cy="52" r="2" fill="white"/>
<circle cx="204" cy="52" r="2" fill="white"/>
<circle cx="214" cy="52" r="2" fill="white"/>
<circle cx="224" cy="52" r="2" fill="white"/>
<circle cx="234" cy="52" r="2" fill="white"/>
<circle cx="244" cy="52" r="2" fill="white"/>
<circle cx="254" cy="52" r="2" fill="white"/>
<circle cx="264" cy="52" r="2" fill="white"/>
<circle cx="274" cy="52" r="2" fill="white"/>
<circle cx="284" cy="52" r="2" fill="white"/>
<circle cx="294" cy="52" r="2" fill="white"/>
<circle cx="304" cy="52" r="2" fill="white"/>
<circle cx="314" cy="52" r="2" fill="white"/>
<circle cx="324" cy="52" r="2" fill="white"/>
<circle cx="334" cy="52" r="2" fill="white"/>
<circle cx="344" cy="52" r="2" fill="white"/>
<circle cx="354" cy="52" r="2" fill="white"/>
<circle cx="364" cy="52" r="2" fill="white"/>
<circle cx="374" cy="52" r="2" fill="white"/>
<g filter="url(#filter1_d_1_4164)">
<path d="M10.896 10.624C11.3013 10.9227 11.536 11.3173 11.6 11.808C11.6853 12.2773 11.568 12.704 11.248 13.088C9.49867 15.2 7.62133 16.928 5.616 18.272C5.232 18.528 4.816 18.5813 4.368 18.432C3.94133 18.2613 3.64267 17.952 3.472 17.504L3.376 17.248C3.20533 16.7573 3.19467 16.256 3.344 15.744C3.51467 15.232 3.81333 14.8267 4.24 14.528C5.648 13.504 6.992 12.288 8.272 10.88C8.61333 10.5173 9.02933 10.304 9.52 10.24C10.0107 10.176 10.4587 10.2933 10.864 10.592L10.896 10.624ZM25.52 14.496C25.0293 14.496 24.6027 14.3253 24.24 13.984C23.8773 13.6213 23.696 13.1947 23.696 12.704C23.696 12.2133 23.8773 11.7867 24.24 11.424C24.6027 11.0613 25.0293 10.88 25.52 10.88H31.12C31.6107 10.88 32.0373 11.0613 32.4 11.424C32.7627 11.7867 32.944 12.2133 32.944 12.704C32.944 13.1947 32.7627 13.6213 32.4 13.984C32.0373 14.3253 31.6107 14.496 31.12 14.496H25.52ZM31.536 18.144C32.0267 18.144 32.4533 18.3253 32.816 18.688C33.1787 19.0293 33.36 19.4453 33.36 19.936C33.36 20.4267 33.1787 20.8533 32.816 21.216C32.4533 21.5787 32.0267 21.76 31.536 21.76H31.504C31.312 21.76 31.216 21.8453 31.216 22.016V33.376C31.216 34.656 31.1733 35.6053 31.088 36.224C31.024 36.8427 30.8 37.3547 30.416 37.76C30.0533 38.1653 29.584 38.4107 29.008 38.496C28.4533 38.5813 27.5787 38.624 26.384 38.624C26.2133 38.624 25.6373 38.6027 24.656 38.56C24.144 38.5173 23.7067 38.3147 23.344 37.952C22.9813 37.5893 22.7787 37.152 22.736 36.64C22.6933 36.128 22.8747 35.6907 23.28 35.328C23.344 35.264 23.344 35.232 23.28 35.232C20.1653 35.7867 16.656 36.256 12.752 36.64C12.2613 36.6827 11.824 36.544 11.44 36.224C11.0773 35.9253 10.8853 35.5307 10.864 35.04C10.8213 34.5493 10.96 34.112 11.28 33.728C11.6213 33.344 12.0373 33.1307 12.528 33.088C13.872 32.96 14.896 32.8533 15.6 32.768C15.792 32.7253 15.888 32.6187 15.888 32.448V29.472C15.888 29.28 15.792 29.184 15.6 29.184H13.424C12.976 29.184 12.592 29.0347 12.272 28.736C11.9733 28.416 11.824 28.032 11.824 27.584C11.824 27.136 11.9733 26.7627 12.272 26.464C12.592 26.144 12.976 25.984 13.424 25.984H15.6C15.792 25.984 15.888 25.888 15.888 25.696V25.632C15.888 25.1413 16.0587 24.7147 16.4 24.352C16.7627 23.9893 17.1893 23.808 17.68 23.808H18.192C18.6827 23.808 19.1093 23.9893 19.472 24.352C19.8347 24.7147 20.016 25.1413 20.016 25.632V25.696C20.016 25.888 20.1013 25.984 20.272 25.984H22.352C22.8 25.984 23.184 26.144 23.504 26.464C23.824 26.7627 23.984 27.136 23.984 27.584C23.984 28.032 23.824 28.416 23.504 28.736C23.184 29.0347 22.8 29.184 22.352 29.184H20.272C20.1013 29.184 20.016 29.28 20.016 29.472V31.904C20.016 32.096 20.1013 32.1707 20.272 32.128C20.464 32.1067 20.9013 32.0427 21.584 31.936C22.288 31.8293 22.8213 31.744 23.184 31.68C23.6533 31.5947 24.0693 31.7013 24.432 32C24.7947 32.2773 24.9973 32.6507 25.04 33.12C25.104 33.824 24.848 34.3893 24.272 34.816C24.2507 34.8587 24.272 34.9013 24.336 34.944H24.432C24.7947 34.9653 25.2107 34.976 25.68 34.976C26.3413 34.976 26.7253 34.912 26.832 34.784C26.96 34.656 27.024 34.2293 27.024 33.504V22.016C27.024 21.8453 26.928 21.76 26.736 21.76H25.104C24.5493 21.76 24.112 21.5787 23.792 21.216C23.7067 21.1307 23.664 21.1413 23.664 21.248V21.344C23.664 21.8133 23.4933 22.2187 23.152 22.56C22.832 22.9013 22.4267 23.072 21.936 23.072H13.584C13.1147 23.072 12.7093 22.9013 12.368 22.56C12.0267 22.2187 11.856 21.8133 11.856 21.344C11.856 21.3013 11.8347 21.28 11.792 21.28C11.7707 21.2587 11.7493 21.2587 11.728 21.28C11.216 22.0267 10.5547 22.9013 9.744 23.904C9.616 24.032 9.552 24.2027 9.552 24.416V37.184C9.552 37.6747 9.37067 38.0907 9.008 38.432C8.66667 38.7947 8.25067 38.976 7.76 38.976H7.184C6.69333 38.976 6.26667 38.7947 5.904 38.432C5.54133 38.0907 5.36 37.6747 5.36 37.184V28.096C5.36 28.0533 5.33867 28.0213 5.296 28C5.27467 27.9787 5.24267 27.9893 5.2 28.032L4.656 28.576C4.35733 28.8533 4.016 28.9387 3.632 28.832C3.26933 28.704 3.03467 28.4373 2.928 28.032L2.736 27.232C2.45867 26.08 2.8 25.1093 3.76 24.32C5.65867 22.7627 7.35467 20.9173 8.848 18.784C9.14667 18.3573 9.54133 18.0693 10.032 17.92C10.5227 17.7707 11.0133 17.8027 11.504 18.016L11.6 18.048C11.9413 18.1973 12.1973 18.432 12.368 18.752C12.5387 19.072 12.6027 19.4027 12.56 19.744C12.56 19.8933 12.624 19.9253 12.752 19.84C13.0507 19.6907 13.328 19.616 13.584 19.616H15.6C15.792 19.616 15.888 19.5307 15.888 19.36V16.352C15.888 16.16 15.792 16.064 15.6 16.064H14.288C13.84 16.064 13.456 15.9147 13.136 15.616C12.816 15.296 12.656 14.912 12.656 14.464C12.656 14.016 12.816 13.6427 13.136 13.344C13.456 13.024 13.84 12.864 14.288 12.864H15.6C15.792 12.864 15.888 12.768 15.888 12.576V11.744C15.888 11.2533 16.0587 10.8267 16.4 10.464C16.7627 10.1013 17.1893 9.92 17.68 9.92H18.192C18.6827 9.92 19.1093 10.1013 19.472 10.464C19.8347 10.8267 20.016 11.2533 20.016 11.744V12.576C20.016 12.768 20.1013 12.864 20.272 12.864H21.52C21.968 12.864 22.3413 13.024 22.64 13.344C22.96 13.6427 23.12 14.016 23.12 14.464C23.12 14.912 22.96 15.296 22.64 15.616C22.3413 15.9147 21.968 16.064 21.52 16.064H20.272C20.1013 16.064 20.016 16.16 20.016 16.352V19.36C20.016 19.5307 20.1013 19.616 20.272 19.616H21.936C22.3413 19.616 22.736 19.7867 23.12 20.128C23.1627 20.1707 23.1947 20.1813 23.216 20.16C23.2587 20.1387 23.28 20.1067 23.28 20.064V19.936C23.28 19.4453 23.4613 19.0293 23.824 18.688C24.1867 18.3253 24.6133 18.144 25.104 18.144H31.536ZM50.672 16.384C48.176 16.9173 46.2133 18.0587 44.784 19.808C43.3547 21.536 42.64 23.6587 42.64 26.176C42.64 27.7973 42.9707 29.2373 43.632 30.496C44.2933 31.7547 44.9227 32.384 45.52 32.384C45.8187 32.384 46.128 32.2453 46.448 31.968C46.768 31.6693 47.12 31.1467 47.504 30.4C47.9093 29.632 48.2933 28.6827 48.656 27.552C49.04 26.4 49.424 24.8853 49.808 23.008C50.2133 21.1093 50.576 18.976 50.896 16.608C50.9173 16.544 50.896 16.4907 50.832 16.448C50.7893 16.384 50.736 16.3627 50.672 16.384ZM45.52 36.416C43.792 36.416 42.2027 35.424 40.752 33.44C39.3013 31.456 38.576 29.0347 38.576 26.176C38.576 22.0373 39.984 18.6773 42.8 16.096C45.616 13.5147 49.296 12.224 53.84 12.224C57.5093 12.224 60.5387 13.376 62.928 15.68C65.3387 17.984 66.544 20.9173 66.544 24.48C66.544 27.8293 65.7653 30.592 64.208 32.768C62.672 34.9227 60.56 36.2987 57.872 36.896C57.36 37.0027 56.8907 36.9067 56.464 36.608C56.0587 36.3093 55.8027 35.904 55.696 35.392L55.632 35.104C55.5253 34.6347 55.6107 34.1973 55.888 33.792C56.1653 33.3867 56.5387 33.1093 57.008 32.96C60.656 31.8293 62.48 29.0027 62.48 24.48C62.48 22.304 61.8293 20.4693 60.528 18.976C59.248 17.4613 57.5627 16.5333 55.472 16.192C55.28 16.1493 55.1627 16.224 55.12 16.416C54.6933 19.6373 54.2133 22.4427 53.68 24.832C53.1467 27.2 52.5813 29.12 51.984 30.592C51.408 32.0427 50.7573 33.216 50.032 34.112C49.3067 34.9867 48.592 35.5947 47.888 35.936C47.184 36.256 46.3947 36.416 45.52 36.416ZM88.688 24.16L88.656 24.224L88.624 24.288C88.5813 24.4587 88.656 24.544 88.848 24.544H97.264C97.7547 24.544 98.1707 24.7253 98.512 25.088C98.8747 25.4293 99.056 25.8453 99.056 26.336V37.024C99.056 37.5147 98.8747 37.9307 98.512 38.272C98.1707 38.6347 97.7547 38.816 97.264 38.816H95.824C95.5253 38.816 95.28 38.72 95.088 38.528C94.896 38.336 94.8 38.0907 94.8 37.792C94.8 37.7067 94.7467 37.664 94.64 37.664H79.92C79.8133 37.664 79.76 37.7067 79.76 37.792C79.76 38.0907 79.664 38.336 79.472 38.528C79.28 38.72 79.0347 38.816 78.736 38.816H77.296C76.8053 38.816 76.3787 38.6347 76.016 38.272C75.6747 37.9307 75.504 37.5147 75.504 37.024V26.336C75.504 25.8453 75.6747 25.4293 76.016 25.088C76.3787 24.7253 76.8053 24.544 77.296 24.544H83.792C83.9413 24.544 84.0587 24.448 84.144 24.256C84.1653 24.192 84.1867 24.096 84.208 23.968C84.2507 23.8187 84.2827 23.712 84.304 23.648C84.4533 23.1573 84.7413 22.7627 85.168 22.464C85.5947 22.1653 86.064 22.048 86.576 22.112L87.344 22.208C87.8347 22.272 88.208 22.496 88.464 22.88C88.7413 23.264 88.816 23.6907 88.688 24.16ZM94.8 34.208V32.896C94.8 32.704 94.704 32.608 94.512 32.608H80.048C79.856 32.608 79.76 32.704 79.76 32.896V34.208C79.76 34.3787 79.856 34.464 80.048 34.464H94.512C94.704 34.464 94.8 34.3787 94.8 34.208ZM94.512 27.744H80.048C79.856 27.744 79.76 27.84 79.76 28.032V29.344C79.76 29.536 79.856 29.632 80.048 29.632H94.512C94.704 29.632 94.8 29.536 94.8 29.344V28.032C94.8 27.84 94.704 27.744 94.512 27.744ZM74 23.744C73.5307 23.7867 73.104 23.6587 72.72 23.36C72.3573 23.0613 72.1547 22.6667 72.112 22.176C72.0693 21.7067 72.1973 21.2907 72.496 20.928C72.7947 20.5653 73.1787 20.3627 73.648 20.32C73.7973 20.2987 74.032 20.2773 74.352 20.256C74.672 20.2133 74.9173 20.1813 75.088 20.16C75.2587 20.1173 75.344 20.0107 75.344 19.84V12.256C75.344 11.7653 75.5253 11.3493 75.888 11.008C76.2507 10.6453 76.6773 10.464 77.168 10.464H77.808C78.2987 10.464 78.7253 10.6453 79.088 11.008C79.4507 11.3493 79.632 11.7653 79.632 12.256V12.512C79.632 12.704 79.7173 12.8 79.888 12.8H84.944C85.4133 12.8 85.808 12.9707 86.128 13.312C86.448 13.632 86.608 14.0267 86.608 14.496C86.608 14.9653 86.448 15.36 86.128 15.68C85.808 16 85.4133 16.16 84.944 16.16H79.888C79.7173 16.16 79.632 16.256 79.632 16.448V19.264C79.632 19.456 79.7173 19.5307 79.888 19.488C81.0187 19.3173 82.7147 19.0187 84.976 18.592C85.424 18.4853 85.84 18.5707 86.224 18.848C86.608 19.104 86.8213 19.4667 86.864 19.936C86.9067 20.4267 86.7893 20.8747 86.512 21.28C86.2347 21.6853 85.8613 21.9307 85.392 22.016C81.552 22.8053 77.7547 23.3813 74 23.744ZM101.52 18.432C101.328 20.4587 101.008 21.728 100.56 22.24C100.112 22.7307 99.1307 23.008 97.616 23.072C96.336 23.1147 95.3547 23.136 94.672 23.136C93.8613 23.136 92.88 23.1147 91.728 23.072C90.1067 23.008 89.0933 22.848 88.688 22.592C88.304 22.336 88.112 21.7387 88.112 20.8V12.256C88.112 11.7653 88.2827 11.3493 88.624 11.008C88.9867 10.6453 89.4133 10.464 89.904 10.464H90.544C91.0347 10.464 91.4613 10.6453 91.824 11.008C92.1867 11.3493 92.368 11.7653 92.368 12.256V13.344C92.368 13.536 92.4533 13.6107 92.624 13.568C94.416 13.0773 96.432 12.3947 98.672 11.52C99.12 11.328 99.568 11.3173 100.016 11.488C100.485 11.6587 100.816 11.968 101.008 12.416C101.2 12.8427 101.211 13.28 101.04 13.728C100.869 14.176 100.56 14.4853 100.112 14.656C97.5307 15.6587 95.0453 16.4373 92.656 16.992C92.464 17.0347 92.368 17.1413 92.368 17.312V19.04C92.368 19.36 92.4 19.552 92.464 19.616C92.528 19.6587 92.7733 19.7013 93.2 19.744C93.4987 19.7653 94.0213 19.776 94.768 19.776C95.4933 19.776 96.0267 19.7653 96.368 19.744C96.7307 19.7227 96.976 19.6907 97.104 19.648C97.232 19.584 97.3387 19.4347 97.424 19.2C97.5307 18.9653 97.616 18.5707 97.68 18.016C97.7227 17.504 97.9253 17.0987 98.288 16.8C98.672 16.48 99.1093 16.352 99.6 16.416L99.856 16.448C100.368 16.512 100.784 16.736 101.104 17.12C101.424 17.504 101.563 17.9413 101.52 18.432ZM110.576 18.176C110.085 18.176 109.659 18.0053 109.296 17.664C108.955 17.3013 108.784 16.8747 108.784 16.384C108.784 15.872 108.955 15.4453 109.296 15.104C109.659 14.7413 110.096 14.56 110.608 14.56C113.232 14.56 117.189 14.496 122.48 14.368C122.693 14.368 122.779 14.2827 122.736 14.112C122.672 13.536 122.608 12.928 122.544 12.288C122.501 11.7973 122.64 11.3707 122.96 11.008C123.301 10.6453 123.728 10.4427 124.24 10.4H124.656C125.147 10.3573 125.584 10.5067 125.968 10.848C126.373 11.1893 126.587 11.6053 126.608 12.096C126.629 12.288 126.651 12.5973 126.672 13.024C126.715 13.4507 126.747 13.7707 126.768 13.984C126.811 14.1547 126.917 14.24 127.088 14.24C129.584 14.1547 131.483 14.08 132.784 14.016C133.275 13.9947 133.701 14.1547 134.064 14.496C134.427 14.8373 134.619 15.2533 134.64 15.744C134.661 16.2347 134.491 16.672 134.128 17.056C133.787 17.4187 133.371 17.6107 132.88 17.632L127.696 17.824C127.525 17.824 127.461 17.92 127.504 18.112C128.037 20.224 128.933 22.368 130.192 24.544C130.427 24.9493 130.48 25.3973 130.352 25.888C130.224 26.3787 129.947 26.7307 129.52 26.944L128.912 27.232C127.931 27.744 126.875 27.7227 125.744 27.168C123.824 26.2293 121.861 25.76 119.856 25.76C118.235 25.76 116.976 26.0907 116.08 26.752C115.184 27.392 114.736 28.2667 114.736 29.376C114.736 30.848 115.397 31.9893 116.72 32.8C118.043 33.5893 120.016 33.984 122.64 33.984C124.261 33.984 126.256 33.8027 128.624 33.44C129.115 33.3547 129.563 33.4613 129.968 33.76C130.395 34.0373 130.651 34.4213 130.736 34.912V34.976C130.843 35.4667 130.747 35.9147 130.448 36.32C130.171 36.7253 129.787 36.9707 129.296 37.056C126.821 37.4187 124.603 37.6 122.64 37.6C118.544 37.6 115.493 36.832 113.488 35.296C111.483 33.76 110.48 31.7227 110.48 29.184C110.48 27.0507 111.291 25.344 112.912 24.064C114.533 22.784 116.784 22.144 119.664 22.144C121.499 22.144 123.312 22.496 125.104 23.2H125.168C125.189 23.1787 125.2 23.1573 125.2 23.136C124.475 21.664 123.899 20.032 123.472 18.24C123.429 18.0693 123.301 17.984 123.088 17.984C118.907 18.112 114.736 18.176 110.576 18.176ZM152.72 34.304C154.128 34.304 155.099 34.0693 155.632 33.6C156.165 33.1093 156.443 32.2027 156.464 30.88C156.464 30.7093 156.379 30.592 156.208 30.528C155.056 30.08 154.032 29.856 153.136 29.856C151.877 29.856 150.971 30.0267 150.416 30.368C149.883 30.7093 149.616 31.232 149.616 31.936C149.616 32.6827 149.883 33.2693 150.416 33.696C150.971 34.1013 151.739 34.304 152.72 34.304ZM145.584 17.12C145.093 17.12 144.667 16.9387 144.304 16.576C143.941 16.2133 143.76 15.7867 143.76 15.296C143.76 14.8053 143.941 14.3893 144.304 14.048C144.667 13.6853 145.093 13.504 145.584 13.504H156.176C156.368 13.504 156.464 13.408 156.464 13.216V12.224C156.464 11.7333 156.635 11.3067 156.976 10.944C157.339 10.5813 157.765 10.4 158.256 10.4H158.704C159.195 10.4 159.611 10.5813 159.952 10.944C160.315 11.3067 160.496 11.7333 160.496 12.224V13.216C160.496 13.408 160.592 13.504 160.784 13.504H166.896C167.387 13.504 167.813 13.6853 168.176 14.048C168.539 14.3893 168.72 14.8053 168.72 15.296C168.72 15.7867 168.539 16.2133 168.176 16.576C167.813 16.9387 167.387 17.12 166.896 17.12H160.784C160.592 17.12 160.496 17.2053 160.496 17.376V19.616C160.496 19.808 160.592 19.904 160.784 19.904H165.776C166.267 19.904 166.683 20.0747 167.024 20.416C167.365 20.7573 167.536 21.1733 167.536 21.664C167.536 22.1547 167.365 22.5813 167.024 22.944C166.683 23.2853 166.267 23.456 165.776 23.456H160.784C160.592 23.456 160.496 23.552 160.496 23.744V28.352C160.496 28.5227 160.571 28.6613 160.72 28.768C162.64 29.8773 164.635 31.328 166.704 33.12C167.088 33.44 167.291 33.856 167.312 34.368C167.333 34.88 167.173 35.3173 166.832 35.68L166.736 35.776C166.395 36.1387 165.968 36.3307 165.456 36.352C164.965 36.3947 164.539 36.2453 164.176 35.904C162.832 34.7307 161.627 33.76 160.56 32.992C160.411 32.8853 160.315 32.9173 160.272 33.088C159.931 34.7947 159.152 36.0213 157.936 36.768C156.741 37.536 155.003 37.92 152.72 37.92C150.459 37.92 148.677 37.3867 147.376 36.32C146.096 35.2747 145.456 33.8133 145.456 31.936C145.456 30.2507 146.043 28.896 147.216 27.872C148.411 26.8267 150.245 26.304 152.72 26.304C153.936 26.304 155.099 26.464 156.208 26.784C156.379 26.8267 156.464 26.7627 156.464 26.592V23.744C156.464 23.552 156.368 23.456 156.176 23.456H146.704C146.213 23.456 145.797 23.2853 145.456 22.944C145.115 22.6027 144.944 22.1867 144.944 21.696C144.944 21.2053 145.115 20.7893 145.456 20.448C145.797 20.0853 146.213 19.904 146.704 19.904H156.176C156.368 19.904 156.464 19.808 156.464 19.616V17.408C156.464 17.216 156.368 17.12 156.176 17.12H145.584ZM188.912 16.384C186.416 16.9173 184.453 18.0587 183.024 19.808C181.595 21.536 180.88 23.6587 180.88 26.176C180.88 27.7973 181.211 29.2373 181.872 30.496C182.533 31.7547 183.163 32.384 183.76 32.384C184.059 32.384 184.368 32.2453 184.688 31.968C185.008 31.6693 185.36 31.1467 185.744 30.4C186.149 29.632 186.533 28.6827 186.896 27.552C187.28 26.4 187.664 24.8853 188.048 23.008C188.453 21.1093 188.816 18.976 189.136 16.608C189.157 16.544 189.136 16.4907 189.072 16.448C189.029 16.384 188.976 16.3627 188.912 16.384ZM183.76 36.416C182.032 36.416 180.443 35.424 178.992 33.44C177.541 31.456 176.816 29.0347 176.816 26.176C176.816 22.0373 178.224 18.6773 181.04 16.096C183.856 13.5147 187.536 12.224 192.08 12.224C195.749 12.224 198.779 13.376 201.168 15.68C203.579 17.984 204.784 20.9173 204.784 24.48C204.784 27.8293 204.005 30.592 202.448 32.768C200.912 34.9227 198.8 36.2987 196.112 36.896C195.6 37.0027 195.131 36.9067 194.704 36.608C194.299 36.3093 194.043 35.904 193.936 35.392L193.872 35.104C193.765 34.6347 193.851 34.1973 194.128 33.792C194.405 33.3867 194.779 33.1093 195.248 32.96C198.896 31.8293 200.72 29.0027 200.72 24.48C200.72 22.304 200.069 20.4693 198.768 18.976C197.488 17.4613 195.803 16.5333 193.712 16.192C193.52 16.1493 193.403 16.224 193.36 16.416C192.933 19.6373 192.453 22.4427 191.92 24.832C191.387 27.2 190.821 29.12 190.224 30.592C189.648 32.0427 188.997 33.216 188.272 34.112C187.547 34.9867 186.832 35.5947 186.128 35.936C185.424 36.256 184.635 36.416 183.76 36.416ZM212.592 29.856C212.101 29.856 211.675 29.6853 211.312 29.344C210.971 29.0027 210.8 28.5867 210.8 28.096C210.8 27.6053 210.971 27.1893 211.312 26.848C211.675 26.4853 212.101 26.304 212.592 26.304H222.64C222.811 26.304 222.917 26.2187 222.96 26.048C223.024 25.664 223.077 25.056 223.12 24.224C223.12 24.0533 223.035 23.968 222.864 23.968C220.56 24.1387 218.16 24.2347 215.664 24.256C215.195 24.256 214.779 24.096 214.416 23.776C214.075 23.4347 213.883 23.0187 213.84 22.528C213.797 22.0587 213.936 21.6533 214.256 21.312C214.576 20.9707 214.971 20.8 215.44 20.8C222.672 20.6933 229.051 20.0213 234.576 18.784C235.067 18.6773 235.536 18.7413 235.984 18.976C236.453 19.2107 236.784 19.5627 236.976 20.032L237.008 20.128C237.179 20.576 237.147 21.0133 236.912 21.44C236.699 21.8667 236.357 22.1333 235.888 22.24C233.221 22.816 230.523 23.2533 227.792 23.552C227.6 23.5947 227.504 23.68 227.504 23.808C227.483 24.384 227.408 25.1307 227.28 26.048C227.259 26.112 227.28 26.176 227.344 26.24C227.408 26.2827 227.472 26.304 227.536 26.304H238.128C238.619 26.304 239.035 26.4853 239.376 26.848C239.739 27.1893 239.92 27.6053 239.92 28.096C239.92 28.5867 239.739 29.0027 239.376 29.344C239.035 29.6853 238.619 29.856 238.128 29.856H228.4C228.336 29.856 228.283 29.888 228.24 29.952C228.219 30.016 228.229 30.0693 228.272 30.112C229.68 32.2667 232.891 33.7707 237.904 34.624C238.352 34.7093 238.683 34.9547 238.896 35.36C239.131 35.744 239.173 36.1493 239.024 36.576L238.896 36.928C238.704 37.4187 238.373 37.792 237.904 38.048C237.456 38.304 236.976 38.3787 236.464 38.272C233.925 37.7173 231.685 36.9067 229.744 35.84C227.803 34.752 226.299 33.5253 225.232 32.16C225.125 32.0533 225.029 32.064 224.944 32.192C222.832 35.1573 219.28 37.184 214.288 38.272C213.776 38.3787 213.285 38.304 212.816 38.048C212.347 37.792 212.016 37.4187 211.824 36.928L211.696 36.576C211.525 36.1493 211.557 35.7333 211.792 35.328C212.027 34.9227 212.379 34.6773 212.848 34.592C215.131 34.1653 216.965 33.6 218.352 32.896C219.76 32.192 220.837 31.2533 221.584 30.08C221.605 30.0373 221.595 29.9947 221.552 29.952C221.531 29.888 221.488 29.856 221.424 29.856H212.592ZM235.76 15.584C235.589 15.584 235.525 15.6693 235.568 15.84C235.739 16.3093 235.717 16.7573 235.504 17.184C235.291 17.6107 234.949 17.888 234.48 18.016L234.16 18.112C233.669 18.24 233.189 18.1867 232.72 17.952C232.272 17.7173 231.963 17.3653 231.792 16.896C231.749 16.7893 231.675 16.6187 231.568 16.384C231.483 16.1493 231.419 15.9787 231.376 15.872C231.291 15.68 231.163 15.584 230.992 15.584H230.224C230.053 15.584 229.915 15.6587 229.808 15.808C229.36 16.3627 228.773 17.0027 228.048 17.728C227.685 18.0907 227.237 18.2827 226.704 18.304C226.192 18.304 225.733 18.1333 225.328 17.792L224.912 17.472C224.635 17.2587 224.496 16.9707 224.496 16.608C224.496 16.2453 224.624 15.9467 224.88 15.712C224.965 15.6267 224.944 15.584 224.816 15.584H221.584C221.52 15.584 221.467 15.616 221.424 15.68C221.381 15.7227 221.371 15.776 221.392 15.84C221.456 15.9893 221.595 16.352 221.808 16.928C221.979 17.376 221.957 17.8133 221.744 18.24C221.531 18.6667 221.189 18.944 220.72 19.072L220.4 19.168C219.909 19.296 219.429 19.2427 218.96 19.008C218.512 18.7733 218.192 18.4107 218 17.92C217.893 17.6427 217.616 16.9493 217.168 15.84C217.104 15.6693 216.987 15.584 216.816 15.584H216.528C216.357 15.584 216.219 15.6587 216.112 15.808C215.408 16.7893 214.747 17.6107 214.128 18.272C213.765 18.6347 213.339 18.816 212.848 18.816C212.357 18.7947 211.92 18.6027 211.536 18.24C211.195 17.8987 211.013 17.4827 210.992 16.992C210.992 16.48 211.163 16.032 211.504 15.648C212.677 14.2827 213.648 12.832 214.416 11.296C214.672 10.8267 215.024 10.464 215.472 10.208C215.941 9.952 216.421 9.86667 216.912 9.952L217.168 10.016C217.616 10.1013 217.957 10.336 218.192 10.72C218.427 11.104 218.459 11.4987 218.288 11.904C218.245 12.0533 218.299 12.128 218.448 12.128H223.984C224.475 12.128 224.891 12.3093 225.232 12.672C225.595 13.0347 225.776 13.4613 225.776 13.952V14.528C225.776 14.5707 225.797 14.6027 225.84 14.624C225.904 14.6453 225.947 14.6347 225.968 14.592C226.949 13.4827 227.76 12.3627 228.4 11.232C229.019 10.1867 229.883 9.76 230.992 9.952L231.216 9.984C231.664 10.0693 231.995 10.3147 232.208 10.72C232.443 11.104 232.464 11.4987 232.272 11.904C232.251 11.9467 232.251 12 232.272 12.064C232.315 12.1067 232.368 12.128 232.432 12.128H238.128C238.619 12.128 239.024 12.2987 239.344 12.64C239.685 12.9813 239.856 13.3867 239.856 13.856C239.856 14.3253 239.685 14.7307 239.344 15.072C239.024 15.4133 238.619 15.584 238.128 15.584H235.76ZM246.32 37.856L245.776 37.344C244.944 36.5547 244.709 35.5627 245.072 34.368C245.477 33.0667 245.755 31.5733 245.904 29.888C246.075 28.1813 246.16 25.792 246.16 22.72V20.736C246.16 20.2453 246.341 19.8293 246.704 19.488C247.067 19.1253 247.493 18.944 247.984 18.944H248.112C248.176 18.944 248.229 18.912 248.272 18.848C248.336 18.784 248.357 18.72 248.336 18.656C248.272 18.3787 248.016 17.3333 247.568 15.52C247.525 15.3707 247.429 15.296 247.28 15.296C246.853 15.296 246.491 15.1467 246.192 14.848C245.893 14.5493 245.744 14.1867 245.744 13.76V13.664C245.744 13.1947 245.893 12.8 246.192 12.48C246.512 12.16 246.907 12 247.376 12H250.576C250.768 12 250.864 11.904 250.864 11.712V11.52C250.864 11.0293 251.035 10.6027 251.376 10.24C251.739 9.87733 252.165 9.696 252.656 9.696H253.264C253.755 9.696 254.171 9.87733 254.512 10.24C254.875 10.6027 255.056 11.0293 255.056 11.52V11.712C255.056 11.904 255.152 12 255.344 12H258.256C258.725 12 259.12 12.16 259.44 12.48C259.461 12.5227 259.493 12.544 259.536 12.544C259.579 12.5227 259.6 12.4907 259.6 12.448V12.416C259.6 11.9253 259.771 11.5093 260.112 11.168C260.453 10.8267 260.869 10.656 261.36 10.656H273.168C273.637 10.656 274.043 10.8267 274.384 11.168C274.725 11.5093 274.896 11.9253 274.896 12.416C274.896 12.9067 274.725 13.3227 274.384 13.664C274.043 13.984 273.637 14.144 273.168 14.144H269.36C269.189 14.144 269.083 14.24 269.04 14.432C268.976 14.7093 268.88 15.104 268.752 15.616C268.709 15.808 268.773 15.904 268.944 15.904H272.336C272.827 15.904 273.253 16.0853 273.616 16.448C273.979 16.7893 274.16 17.2053 274.16 17.696V30.88C274.16 31.3707 273.979 31.7973 273.616 32.16C273.253 32.5227 272.827 32.704 272.336 32.704H264.752H262.704C262.213 32.704 261.787 32.5227 261.424 32.16C261.061 31.7973 260.88 31.3707 260.88 30.88V17.696C260.88 17.2053 261.061 16.7893 261.424 16.448C261.787 16.0853 262.213 15.904 262.704 15.904H264.176C264.368 15.904 264.485 15.808 264.528 15.616C264.656 15.104 264.752 14.7093 264.816 14.432C264.859 14.24 264.795 14.144 264.624 14.144H261.36C260.805 14.144 260.368 13.9627 260.048 13.6C259.963 13.5147 259.92 13.536 259.92 13.664V14.208C259.92 14.5067 259.813 14.7627 259.6 14.976C259.387 15.1893 259.131 15.296 258.832 15.296C258.725 15.296 258.651 15.3493 258.608 15.456C258.331 16.6293 258.043 17.696 257.744 18.656C257.701 18.848 257.755 18.944 257.904 18.944H258.384C258.853 18.944 259.248 19.104 259.568 19.424C259.888 19.7227 260.048 20.1067 260.048 20.576C260.048 21.0453 259.888 21.44 259.568 21.76C259.248 22.08 258.853 22.24 258.384 22.24H258.256C258.213 22.24 258.181 22.2613 258.16 22.304C258.139 22.3467 258.139 22.3787 258.16 22.4C258.288 22.528 258.373 22.6347 258.416 22.72C258.651 23.0827 258.715 23.4773 258.608 23.904C258.501 24.3307 258.267 24.6507 257.904 24.864C256.539 25.696 254.768 26.4533 252.592 27.136C252.144 27.2853 251.707 27.264 251.28 27.072C250.875 26.8587 250.576 26.528 250.384 26.08C250.213 25.696 250.213 25.312 250.384 24.928C250.576 24.544 250.875 24.288 251.28 24.16C253.115 23.6267 254.672 23.0293 255.952 22.368C255.973 22.3467 255.984 22.3253 255.984 22.304C255.984 22.2613 255.963 22.24 255.92 22.24H250.256C250.064 22.24 249.968 22.3253 249.968 22.496V25.28C249.968 27.3493 249.915 28.992 249.808 30.208C249.829 30.2507 249.861 30.272 249.904 30.272C250.117 29.9733 250.395 29.7813 250.736 29.696C253.083 29.0347 255.12 28.192 256.848 27.168C257.211 26.9547 257.595 26.9013 258 27.008C258.427 27.0933 258.747 27.3173 258.96 27.68C259.195 28.064 259.259 28.48 259.152 28.928C259.045 29.3547 258.811 29.6853 258.448 29.92C256.549 31.136 254.416 32.1173 252.048 32.864C251.6 33.0133 251.163 32.9813 250.736 32.768C250.309 32.5547 249.989 32.2347 249.776 31.808C249.755 31.7867 249.723 31.776 249.68 31.776C249.659 31.776 249.648 31.7867 249.648 31.808C249.413 33.8347 248.976 35.712 248.336 37.44C248.187 37.8453 247.888 38.0907 247.44 38.176C247.013 38.2613 246.64 38.1547 246.32 37.856ZM270.128 29.248V28.032C270.128 27.84 270.043 27.744 269.872 27.744H265.008C264.837 27.744 264.752 27.84 264.752 28.032V29.248C264.752 29.44 264.837 29.536 265.008 29.536H269.872C270.043 29.536 270.128 29.44 270.128 29.248ZM270.128 24.832V23.648C270.128 23.4773 270.043 23.392 269.872 23.392H265.008C264.837 23.392 264.752 23.4773 264.752 23.648V24.832C264.752 25.0027 264.837 25.088 265.008 25.088H269.872C270.043 25.088 270.128 25.0027 270.128 24.832ZM265.008 19.072C264.837 19.072 264.752 19.1573 264.752 19.328V20.448C264.752 20.64 264.837 20.736 265.008 20.736H269.872C270.043 20.736 270.128 20.64 270.128 20.448V19.328C270.128 19.1573 270.043 19.072 269.872 19.072H265.008ZM251.6 15.296C251.536 15.296 251.472 15.328 251.408 15.392C251.365 15.456 251.355 15.52 251.376 15.584C251.717 16.9493 251.963 17.9733 252.112 18.656C252.155 18.848 252.261 18.944 252.432 18.944H253.712C253.883 18.944 254 18.8587 254.064 18.688C254.448 17.472 254.747 16.4267 254.96 15.552C255.003 15.3813 254.928 15.296 254.736 15.296H251.6ZM262 38.368C261.531 38.6027 261.051 38.6347 260.56 38.464C260.069 38.2933 259.696 37.984 259.44 37.536C259.205 37.1093 259.163 36.672 259.312 36.224C259.461 35.776 259.749 35.4347 260.176 35.2C261.307 34.6453 262.341 34.0267 263.28 33.344C263.664 33.0667 264.101 32.96 264.592 33.024C265.083 33.088 265.467 33.312 265.744 33.696C266.043 34.1013 266.16 34.56 266.096 35.072C266.053 35.5627 265.829 35.9573 265.424 36.256C264.421 37.024 263.28 37.728 262 38.368ZM274.064 35.2C274.469 35.4773 274.715 35.8613 274.8 36.352C274.907 36.864 274.821 37.3333 274.544 37.76C274.288 38.1653 273.925 38.4213 273.456 38.528C272.987 38.6347 272.56 38.5493 272.176 38.272C270.917 37.4187 269.787 36.7147 268.784 36.16C268.357 35.9253 268.08 35.5947 267.952 35.168C267.845 34.72 267.909 34.2827 268.144 33.856C268.4 33.4293 268.763 33.1413 269.232 32.992C269.701 32.8427 270.16 32.8853 270.608 33.12C271.909 33.7813 273.061 34.4747 274.064 35.2ZM259.76 32.736C259.995 33.0987 260.08 33.504 260.016 33.952C259.952 34.4 259.749 34.752 259.408 35.008C257.253 36.5653 254.608 37.8133 251.472 38.752C251.003 38.9013 250.544 38.8587 250.096 38.624C249.648 38.3893 249.328 38.048 249.136 37.6C248.965 37.1733 248.976 36.7573 249.168 36.352C249.381 35.9467 249.712 35.68 250.16 35.552C252.997 34.7413 255.472 33.664 257.584 32.32C257.947 32.0853 258.341 32.0107 258.768 32.096C259.195 32.1813 259.525 32.3947 259.76 32.736ZM282.864 16.896C282.395 16.896 281.989 16.736 281.648 16.416C281.307 16.0747 281.136 15.6693 281.136 15.2C281.136 14.7307 281.307 14.336 281.648 14.016C281.989 13.6747 282.395 13.504 282.864 13.504H287.76C287.909 13.504 288.027 13.408 288.112 13.216L288.688 11.68C288.859 11.1893 289.168 10.816 289.616 10.56C290.064 10.2827 290.544 10.1867 291.056 10.272L291.6 10.4C292.069 10.5067 292.421 10.7627 292.656 11.168C292.891 11.552 292.933 11.968 292.784 12.416C292.741 12.5227 292.677 12.672 292.592 12.864C292.528 13.0347 292.485 13.152 292.464 13.216C292.421 13.408 292.485 13.504 292.656 13.504H303.984C304.453 13.504 304.848 13.6747 305.168 14.016C305.509 14.336 305.68 14.7307 305.68 15.2C305.68 15.6693 305.509 16.0747 305.168 16.416C304.848 16.736 304.453 16.896 303.984 16.896H291.248C291.056 16.896 290.928 16.9813 290.864 17.152C290.565 17.856 290.203 18.656 289.776 19.552C289.776 19.5947 289.787 19.616 289.808 19.616H289.84C290.971 19.168 292.059 18.944 293.104 18.944C295.835 18.944 297.723 20.1387 298.768 22.528C298.832 22.6987 298.971 22.7627 299.184 22.72C300.891 22.3787 302.469 22.112 303.92 21.92C304.389 21.856 304.816 21.9733 305.2 22.272C305.584 22.5707 305.797 22.9653 305.84 23.456C305.883 23.9467 305.755 24.384 305.456 24.768C305.157 25.152 304.763 25.376 304.272 25.44C302.416 25.7173 300.987 25.9627 299.984 26.176C299.792 26.2187 299.717 26.3253 299.76 26.496C299.888 27.6267 299.963 28.5867 299.984 29.376C300.005 29.8667 299.835 30.2933 299.472 30.656C299.131 31.0187 298.715 31.2 298.224 31.2H297.584C297.093 31.2 296.667 31.0293 296.304 30.688C295.941 30.3253 295.749 29.8987 295.728 29.408C295.707 28.832 295.675 28.2453 295.632 27.648C295.632 27.456 295.547 27.3813 295.376 27.424C291.941 28.6187 290.224 29.9093 290.224 31.296C290.224 31.8933 290.384 32.384 290.704 32.768C291.024 33.1307 291.717 33.44 292.784 33.696C293.851 33.952 295.344 34.08 297.264 34.08C298.885 34.08 300.944 33.92 303.44 33.6C303.931 33.536 304.368 33.664 304.752 33.984C305.157 34.2827 305.381 34.6773 305.424 35.168C305.467 35.68 305.328 36.128 305.008 36.512C304.709 36.9173 304.304 37.152 303.792 37.216C301.637 37.472 299.461 37.6 297.264 37.6C293.253 37.6 290.363 37.12 288.592 36.16C286.821 35.2213 285.936 33.7493 285.936 31.744C285.936 28.4587 288.816 25.856 294.576 23.936C294.768 23.8933 294.821 23.7867 294.736 23.616C294.245 22.72 293.381 22.272 292.144 22.272C290.139 22.272 287.824 23.9573 285.2 27.328C284.88 27.7333 284.464 27.9893 283.952 28.096C283.44 28.1813 282.971 28.096 282.544 27.84L282.288 27.68C281.883 27.424 281.627 27.0613 281.52 26.592C281.413 26.1227 281.499 25.6853 281.776 25.28C283.696 22.4853 285.264 19.7867 286.48 17.184C286.501 17.12 286.491 17.056 286.448 16.992C286.427 16.928 286.384 16.896 286.32 16.896H282.864ZM340.464 19.68C339.973 19.68 339.547 19.4987 339.184 19.136C338.821 18.7733 338.64 18.3467 338.64 17.856V16.384C338.64 16.192 338.555 16.096 338.384 16.096H319.728C319.536 16.096 319.44 16.192 319.44 16.384V17.856C319.44 18.3467 319.259 18.7733 318.896 19.136C318.533 19.4987 318.107 19.68 317.616 19.68H317.2C316.709 19.68 316.283 19.4987 315.92 19.136C315.557 18.7733 315.376 18.3467 315.376 17.856V14.4C315.376 13.9093 315.557 13.4827 315.92 13.12C316.283 12.7573 316.709 12.576 317.2 12.576H326.576C326.768 12.576 326.864 12.4907 326.864 12.32V11.264C326.864 10.7733 327.035 10.3467 327.376 9.984C327.739 9.62133 328.165 9.44 328.656 9.44H329.424C329.915 9.44 330.331 9.62133 330.672 9.984C331.035 10.3467 331.216 10.7733 331.216 11.264V12.32C331.216 12.4907 331.312 12.576 331.504 12.576H340.88C341.371 12.576 341.797 12.7573 342.16 13.12C342.523 13.4827 342.704 13.9093 342.704 14.4V17.856C342.704 18.3467 342.523 18.7733 342.16 19.136C341.797 19.4987 341.371 19.68 340.88 19.68H340.464ZM316.144 24.896C315.653 24.896 315.227 24.7253 314.864 24.384C314.501 24.0213 314.32 23.5947 314.32 23.104C314.32 22.6133 314.501 22.1867 314.864 21.824C315.227 21.4613 315.653 21.28 316.144 21.28H332.08C332.251 21.28 332.336 21.184 332.336 20.992V19.136C332.336 18.6453 332.517 18.2293 332.88 17.888C333.243 17.5253 333.669 17.344 334.16 17.344H334.896C335.387 17.344 335.813 17.5253 336.176 17.888C336.539 18.2293 336.72 18.6453 336.72 19.136V20.992C336.72 21.184 336.816 21.28 337.008 21.28H341.936C342.427 21.28 342.853 21.4613 343.216 21.824C343.579 22.1867 343.76 22.6133 343.76 23.104C343.76 23.5947 343.579 24.0213 343.216 24.384C342.853 24.7253 342.427 24.896 341.936 24.896H337.008C336.816 24.896 336.72 24.992 336.72 25.184V33.6C336.72 34.4747 336.699 35.168 336.656 35.68C336.635 36.1707 336.549 36.6293 336.4 37.056C336.251 37.504 336.069 37.824 335.856 38.016C335.664 38.208 335.333 38.368 334.864 38.496C334.395 38.6453 333.893 38.7307 333.36 38.752C332.848 38.7947 332.123 38.816 331.184 38.816C330.331 38.816 329.04 38.784 327.312 38.72C326.8 38.6987 326.363 38.5067 326 38.144C325.659 37.8027 325.467 37.376 325.424 36.864C325.381 36.3733 325.531 35.9573 325.872 35.616C326.235 35.2533 326.651 35.0827 327.12 35.104C328.656 35.168 329.755 35.2 330.416 35.2C331.355 35.2 331.909 35.136 332.08 35.008C332.251 34.8587 332.336 34.4213 332.336 33.696V25.184C332.336 24.992 332.251 24.896 332.08 24.896H316.144ZM325.04 33.632C324.635 33.9307 324.187 34.0587 323.696 34.016C323.205 33.952 322.8 33.728 322.48 33.344C321.392 32.0213 320.283 30.72 319.152 29.44C318.832 29.0987 318.683 28.6827 318.704 28.192C318.725 27.7013 318.928 27.3067 319.312 27.008L319.632 26.752C320.037 26.432 320.496 26.2933 321.008 26.336C321.541 26.3573 321.979 26.56 322.32 26.944C323.429 28.16 324.549 29.4613 325.68 30.848C326 31.232 326.128 31.68 326.064 32.192C326 32.6827 325.765 33.0773 325.36 33.376L325.04 33.632ZM364.272 34.144C364.571 33.4187 364.72 32.832 364.72 32.384C364.72 31.7227 364.464 31.2213 363.952 30.88C363.44 30.5173 362.523 30.336 361.2 30.336C360.133 30.336 359.312 30.5173 358.736 30.88C358.181 31.2213 357.904 31.648 357.904 32.16C357.904 33.6533 359.717 34.4 363.344 34.4H363.92C364.069 34.4 364.187 34.3147 364.272 34.144ZM353.648 26.848C353.221 27.04 352.795 27.0613 352.368 26.912C351.963 26.7627 351.653 26.4853 351.44 26.08C351.227 25.6747 351.184 25.248 351.312 24.8C351.44 24.3307 351.707 23.9787 352.112 23.744L365.616 15.584L365.648 15.552L365.616 15.52H354.64C354.171 15.52 353.755 15.3493 353.392 15.008C353.051 14.6667 352.88 14.2507 352.88 13.76C352.88 13.2693 353.051 12.8533 353.392 12.512C353.755 12.1707 354.171 12 354.64 12H371.44C371.931 12 372.357 12.1813 372.72 12.544C373.104 12.8853 373.296 13.3013 373.296 13.792C373.339 14.9653 372.816 15.8613 371.728 16.48L362.8 21.44V21.472H362.864C364.272 21.1947 365.563 21.056 366.736 21.056C369.787 21.056 372.091 21.6853 373.648 22.944C375.227 24.2027 376.016 25.9947 376.016 28.32C376.016 31.3493 374.917 33.696 372.72 35.36C370.523 37.0027 367.397 37.824 363.344 37.824C360.165 37.824 357.787 37.3333 356.208 36.352C354.629 35.392 353.84 33.9947 353.84 32.16C353.84 30.752 354.512 29.568 355.856 28.608C357.2 27.6267 359.056 27.136 361.424 27.136C363.856 27.136 365.616 27.5413 366.704 28.352C367.792 29.1627 368.336 30.3573 368.336 31.936C368.336 32.32 368.283 32.8 368.176 33.376C368.155 33.44 368.165 33.4933 368.208 33.536C368.272 33.5573 368.325 33.5573 368.368 33.536C370.48 32.6187 371.536 31.008 371.536 28.704C371.536 27.232 371.013 26.1227 369.968 25.376C368.944 24.6293 367.301 24.256 365.04 24.256C361.221 24.256 357.424 25.12 353.648 26.848Z" fill="white"/>
</g>
<defs>
<filter id="filter0_d_1_4164" x="3.61621" y="74.344" width="418.368" height="41.9199" filterUnits="userSpaceOnUse" color-interpolation-filters="sRGB">
<feFlood flood-opacity="0" result="BackgroundImageFix"/>
<feColorMatrix in="SourceAlpha" type="matrix" values="0 0 0 0 0 0 0 0 0 0 0 0 0 0 0 0 0 0 127 0" result="hardAlpha"/>
<feOffset dx="4" dy="6"/>
<feGaussianBlur stdDeviation="3"/>
<feComposite in2="hardAlpha" operator="out"/>
<feColorMatrix type="matrix" values="0 0 0 0 0 0 0 0 0 0 0 0 0 0 0 0 0 0 0.203922 0"/>
<feBlend mode="normal" in2="BackgroundImageFix" result="effect1_dropShadow_1_4164"/>
<feBlend mode="normal" in="SourceGraphic" in2="effect1_dropShadow_1_4164" result="shape"/>
</filter>
<filter id="filter1_d_1_4164" x="0.319824" y="9.43994" width="385.696" height="41.5361" filterUnits="userSpaceOnUse" color-interpolation-filters="sRGB">
<feFlood flood-opacity="0" result="BackgroundImageFix"/>
<feColorMatrix in="SourceAlpha" type="matrix" values="0 0 0 0 0 0 0 0 0 0 0 0 0 0 0 0 0 0 127 0" result="hardAlpha"/>
<feOffset dx="4" dy="6"/>
<feGaussianBlur stdDeviation="3"/>
<feComposite in2="hardAlpha" operator="out"/>
<feColorMatrix type="matrix" values="0 0 0 0 0 0 0 0 0 0 0 0 0 0 0 0 0 0 0.203922 0"/>
<feBlend mode="normal" in2="BackgroundImageFix" result="effect1_dropShadow_1_4164"/>
<feBlend mode="normal" in="SourceGraphic" in2="effect1_dropShadow_1_4164" result="shape"/>
</filter>
</defs>
</svg>
